<svg width="394" height="85" viewBox="0 0 394 85" fill="none" xmlns="http://www.w3.org/2000/svg">
<rect x="1" y="1" width="392" height="83" stroke="#80BDF2" stroke-width="2"/>
<path d="M22.1084 34.6459C23.7269 34.6459 25.1413 34.9667 26.3515 35.6083C27.5617 36.2499 28.4949 37.1539 29.1511 38.3204C29.8218 39.4723 30.1572 40.8065 30.1572 42.323C30.1572 43.8248 29.8218 45.159 29.1511 46.3255C28.4949 47.492 27.5545 48.3961 26.3296 49.0376C25.1194 49.6792 23.7123 50 22.1084 50H16.3561V34.6459H22.1084ZM21.8678 46.763C23.2821 46.763 24.383 46.3766 25.1704 45.6038C25.9578 44.8309 26.3515 43.7374 26.3515 42.323C26.3515 40.9086 25.9578 39.8077 25.1704 39.0203C24.383 38.2329 23.2821 37.8392 21.8678 37.8392H20.0961V46.763H21.8678ZM34.1283 36.5269C33.4722 36.5269 32.9327 36.3374 32.5098 35.9583C32.1015 35.5646 31.8974 35.0834 31.8974 34.5147C31.8974 33.9315 32.1015 33.4503 32.5098 33.0712C32.9327 32.6775 33.4722 32.4806 34.1283 32.4806C34.7699 32.4806 35.2948 32.6775 35.7031 33.0712C36.126 33.4503 36.3374 33.9315 36.3374 34.5147C36.3374 35.0834 36.126 35.5646 35.7031 35.9583C35.2948 36.3374 34.7699 36.5269 34.1283 36.5269ZM35.9874 37.7955V50H32.2473V37.7955H35.9874ZM37.9542 43.8759C37.9542 42.6219 38.1875 41.521 38.6541 40.5732C39.1353 39.6254 39.7841 38.8964 40.6007 38.386C41.4172 37.8757 42.3286 37.6205 43.3347 37.6205C44.195 37.6205 44.9459 37.7955 45.5875 38.1454C46.2436 38.4954 46.7467 38.9547 47.0966 39.5234V37.7955H50.8367V50H47.0966V48.2721C46.7321 48.8408 46.2218 49.3001 45.5656 49.6501C44.924 50 44.1731 50.175 43.3128 50.175C42.3213 50.175 41.4172 49.9198 40.6007 49.4095C39.7841 48.8845 39.1353 48.1482 38.6541 47.2004C38.1875 46.238 37.9542 45.1299 37.9542 43.8759ZM47.0966 43.8977C47.0966 42.9645 46.8342 42.2282 46.3092 41.6887C45.7989 41.1492 45.1719 40.8794 44.4283 40.8794C43.6846 40.8794 43.0503 41.1492 42.5254 41.6887C42.0151 42.2136 41.7599 42.9427 41.7599 43.8759C41.7599 44.8091 42.0151 45.5527 42.5254 46.1068C43.0503 46.6463 43.6846 46.9161 44.4283 46.9161C45.1719 46.9161 45.7989 46.6463 46.3092 46.1068C46.8342 45.5673 47.0966 44.8309 47.0966 43.8977ZM58.1793 37.6205C59.0396 37.6205 59.7906 37.7955 60.4322 38.1454C61.0883 38.4954 61.5914 38.9547 61.9413 39.5234V37.7955H65.6814V49.9781C65.6814 51.1009 65.4554 52.1143 65.0034 53.0183C64.5659 53.9369 63.8879 54.666 62.9693 55.2055C62.0653 55.745 60.9352 56.0148 59.5791 56.0148C57.7711 56.0148 56.3057 55.5846 55.1829 54.7243C54.0601 53.8786 53.4186 52.7267 53.2582 51.2686H56.9545C57.0712 51.7352 57.3482 52.0997 57.7857 52.3622C58.2231 52.6392 58.7626 52.7777 59.4042 52.7777C60.177 52.7777 60.7894 52.5517 61.2414 52.0997C61.708 51.6623 61.9413 50.9551 61.9413 49.9781V48.2503C61.5768 48.8189 61.0737 49.2855 60.4322 49.6501C59.7906 50 59.0396 50.175 58.1793 50.175C57.1732 50.175 56.2619 49.9198 55.4454 49.4095C54.6288 48.8845 53.9799 48.1482 53.4988 47.2004C53.0322 46.238 52.7989 45.1299 52.7989 43.8759C52.7989 42.6219 53.0322 41.521 53.4988 40.5732C53.9799 39.6254 54.6288 38.8964 55.4454 38.386C56.2619 37.8757 57.1732 37.6205 58.1793 37.6205ZM61.9413 43.8977C61.9413 42.9645 61.6788 42.2282 61.1539 41.6887C60.6436 41.1492 60.0166 40.8794 59.2729 40.8794C58.5293 40.8794 57.895 41.1492 57.3701 41.6887C56.8597 42.2136 56.6046 42.9427 56.6046 43.8759C56.6046 44.8091 56.8597 45.5527 57.3701 46.1068C57.895 46.6463 58.5293 46.9161 59.2729 46.9161C60.0166 46.9161 60.6436 46.6463 61.1539 46.1068C61.6788 45.5673 61.9413 44.8309 61.9413 43.8977ZM75.8236 37.6643C77.2526 37.6643 78.3899 38.1309 79.2356 39.0641C80.0959 39.9827 80.5261 41.2513 80.5261 42.8698V50H76.8079V43.3728C76.8079 42.5563 76.5964 41.922 76.1736 41.47C75.7507 41.018 75.182 40.7919 74.4676 40.7919C73.7531 40.7919 73.1844 41.018 72.7616 41.47C72.3387 41.922 72.1273 42.5563 72.1273 43.3728V50H68.3872V37.7955H72.1273V39.414C72.5064 38.8745 73.0167 38.4517 73.6583 38.1454C74.2999 37.8247 75.0217 37.6643 75.8236 37.6643ZM88.6805 50.175C87.4849 50.175 86.4058 49.9198 85.4435 49.4095C84.4957 48.8991 83.7448 48.1701 83.1907 47.2223C82.6512 46.2745 82.3814 45.1663 82.3814 43.8977C82.3814 42.6438 82.6585 41.5429 83.2126 40.5951C83.7666 39.6327 84.5249 38.8964 85.4872 38.386C86.4496 37.8757 87.5286 37.6205 88.7243 37.6205C89.9199 37.6205 90.9989 37.8757 91.9613 38.386C92.9237 38.8964 93.6819 39.6327 94.236 40.5951C94.7901 41.5429 95.0671 42.6438 95.0671 43.8977C95.0671 45.1517 94.7828 46.2599 94.2141 47.2223C93.66 48.1701 92.8945 48.8991 91.9176 49.4095C90.9552 49.9198 89.8762 50.175 88.6805 50.175ZM88.6805 46.9379C89.395 46.9379 90.0001 46.6755 90.4959 46.1506C91.0062 45.6256 91.2614 44.8747 91.2614 43.8977C91.2614 42.9208 91.0135 42.1699 90.5178 41.6449C90.0366 41.12 89.4387 40.8576 88.7243 40.8576C87.9952 40.8576 87.3901 41.12 86.9089 41.6449C86.4277 42.1553 86.1871 42.9062 86.1871 43.8977C86.1871 44.8747 86.4204 45.6256 86.887 46.1506C87.3682 46.6755 87.966 46.9379 88.6805 46.9379ZM102.016 50.175C100.952 50.175 100.004 49.9927 99.1729 49.6282C98.3417 49.2636 97.6856 48.7679 97.2044 48.1409C96.7232 47.4993 96.4535 46.7848 96.3951 45.9974H100.091C100.135 46.4203 100.332 46.763 100.682 47.0254C101.032 47.2879 101.462 47.4191 101.972 47.4191C102.439 47.4191 102.796 47.3316 103.044 47.1567C103.307 46.9671 103.438 46.7265 103.438 46.4349C103.438 46.0849 103.256 45.8298 102.891 45.6694C102.527 45.4944 101.936 45.3048 101.119 45.1007C100.245 44.8966 99.5155 44.6851 98.9323 44.4664C98.349 44.2331 97.846 43.8759 97.4231 43.3947C97.0003 42.8989 96.7888 42.2355 96.7888 41.4044C96.7888 40.7045 96.9784 40.0702 97.3575 39.5015C97.7512 38.9183 98.3199 38.4589 99.0635 38.1236C99.8217 37.7882 100.718 37.6205 101.754 37.6205C103.285 37.6205 104.488 37.9996 105.363 38.7579C106.252 39.5161 106.762 40.5222 106.894 41.7762H103.438C103.38 41.3533 103.19 41.018 102.869 40.7701C102.563 40.5222 102.155 40.3982 101.644 40.3982C101.207 40.3982 100.872 40.4857 100.638 40.6607C100.405 40.8211 100.288 41.0471 100.288 41.3387C100.288 41.6887 100.471 41.9512 100.835 42.1261C101.214 42.3011 101.797 42.4761 102.585 42.6511C103.489 42.8844 104.225 43.1177 104.794 43.351C105.363 43.5697 105.858 43.9342 106.281 44.4445C106.719 44.9403 106.945 45.611 106.959 46.4568C106.959 47.1712 106.755 47.8128 106.347 48.3815C105.953 48.9356 105.377 49.373 104.619 49.6938C103.875 50.0146 103.008 50.175 102.016 50.175ZM116.05 46.8286V50H114.147C112.791 50 111.734 49.6719 110.975 49.0158C110.217 48.345 109.838 47.2587 109.838 45.7569V40.9013H108.351V37.7955H109.838V34.8209H113.578V37.7955H116.028V40.9013H113.578V45.8006C113.578 46.1651 113.666 46.4276 113.841 46.588C114.016 46.7484 114.307 46.8286 114.715 46.8286H116.05ZM120.014 36.5269C119.358 36.5269 118.818 36.3374 118.395 35.9583C117.987 35.5646 117.783 35.0834 117.783 34.5147C117.783 33.9315 117.987 33.4503 118.395 33.0712C118.818 32.6775 119.358 32.4806 120.014 32.4806C120.655 32.4806 121.18 32.6775 121.589 33.0712C122.011 33.4503 122.223 33.9315 122.223 34.5147C122.223 35.0834 122.011 35.5646 121.589 35.9583C121.18 36.3374 120.655 36.5269 120.014 36.5269ZM121.873 37.7955V50H118.133V37.7955H121.873ZM123.84 43.8977C123.84 42.6292 124.095 41.521 124.605 40.5732C125.13 39.6254 125.852 38.8964 126.771 38.386C127.704 37.8757 128.768 37.6205 129.964 37.6205C131.495 37.6205 132.771 38.0215 133.791 38.8235C134.827 39.6254 135.505 40.7555 135.826 42.2136H131.845C131.509 41.2804 130.861 40.8138 129.898 40.8138C129.213 40.8138 128.666 41.0836 128.258 41.6231C127.85 42.148 127.645 42.9062 127.645 43.8977C127.645 44.8893 127.85 45.6548 128.258 46.1943C128.666 46.7192 129.213 46.9817 129.898 46.9817C130.861 46.9817 131.509 46.5151 131.845 45.5819H135.826C135.505 47.0108 134.827 48.1336 133.791 48.9502C132.756 49.7667 131.48 50.175 129.964 50.175C128.768 50.175 127.704 49.9198 126.771 49.4095C125.852 48.8991 125.13 48.1701 124.605 47.2223C124.095 46.2745 123.84 45.1663 123.84 43.8977ZM154.206 50L152.785 48.6221C151.37 49.7011 149.679 50.2406 147.71 50.2406C146.529 50.2406 145.501 50.051 144.626 49.6719C143.752 49.2782 143.073 48.7314 142.592 48.0315C142.126 47.3171 141.892 46.4859 141.892 45.5381C141.892 44.5758 142.148 43.7082 142.658 42.9354C143.183 42.148 143.963 41.5064 144.998 41.0107C144.619 40.5441 144.349 40.0993 144.189 39.6765C144.029 39.239 143.948 38.7651 143.948 38.2548C143.948 37.5257 144.138 36.8623 144.517 36.2645C144.896 35.6666 145.443 35.2 146.157 34.8647C146.886 34.5147 147.747 34.3397 148.738 34.3397C149.744 34.3397 150.597 34.522 151.297 34.8865C151.997 35.2511 152.522 35.7395 152.872 36.352C153.222 36.9644 153.382 37.6351 153.353 38.3642H149.832C149.846 37.9705 149.744 37.6716 149.526 37.4674C149.322 37.2487 149.045 37.1393 148.695 37.1393C148.345 37.1393 148.053 37.2414 147.82 37.4455C147.586 37.6497 147.47 37.9121 147.47 38.2329C147.47 38.5391 147.565 38.8599 147.754 39.1953C147.958 39.5307 148.272 39.9171 148.695 40.3545L152.435 44.0071C152.464 43.9342 152.5 43.8467 152.544 43.7446C152.602 43.6426 152.661 43.5259 152.719 43.3947L153.528 42.0168H157.268L156.218 43.9196C155.825 44.7799 155.373 45.5965 154.862 46.3693L158.559 50H154.206ZM147.885 47.2223C148.862 47.2223 149.73 46.9452 150.488 46.3911L147.076 43.0885C146.026 43.628 145.501 44.3571 145.501 45.2757C145.501 45.8298 145.713 46.2964 146.136 46.6755C146.573 47.04 147.156 47.2223 147.885 47.2223ZM174.105 47.2879H168.374L167.455 50H163.54L169.096 34.6459H173.427L178.982 50H175.023L174.105 47.2879ZM173.142 44.4008L171.239 38.7797L169.358 44.4008H173.142ZM179.929 43.8977C179.929 42.6292 180.184 41.521 180.695 40.5732C181.22 39.6254 181.941 38.8964 182.86 38.386C183.793 37.8757 184.858 37.6205 186.053 37.6205C187.584 37.6205 188.86 38.0215 189.881 38.8235C190.916 39.6254 191.594 40.7555 191.915 42.2136H187.934C187.599 41.2804 186.95 40.8138 185.988 40.8138C185.302 40.8138 184.756 41.0836 184.347 41.6231C183.939 42.148 183.735 42.9062 183.735 43.8977C183.735 44.8893 183.939 45.6548 184.347 46.1943C184.756 46.7192 185.302 46.9817 185.988 46.9817C186.95 46.9817 187.599 46.5151 187.934 45.5819H191.915C191.594 47.0108 190.916 48.1336 189.881 48.9502C188.846 49.7667 187.57 50.175 186.053 50.175C184.858 50.175 183.793 49.9198 182.86 49.4095C181.941 48.8991 181.22 48.1701 180.695 47.2223C180.184 46.2745 179.929 45.1663 179.929 43.8977ZM200.718 46.8286V50H198.815C197.459 50 196.402 49.6719 195.643 49.0158C194.885 48.345 194.506 47.2587 194.506 45.7569V40.9013H193.019V37.7955H194.506V34.8209H198.246V37.7955H200.696V40.9013H198.246V45.8006C198.246 46.1651 198.334 46.4276 198.509 46.588C198.684 46.7484 198.975 46.8286 199.383 46.8286H200.718ZM204.682 36.5269C204.026 36.5269 203.486 36.3374 203.063 35.9583C202.655 35.5646 202.451 35.0834 202.451 34.5147C202.451 33.9315 202.655 33.4503 203.063 33.0712C203.486 32.6775 204.026 32.4806 204.682 32.4806C205.324 32.4806 205.848 32.6775 206.257 33.0712C206.68 33.4503 206.891 33.9315 206.891 34.5147C206.891 35.0834 206.68 35.5646 206.257 35.9583C205.848 36.3374 205.324 36.5269 204.682 36.5269ZM206.541 37.7955V50H202.801V37.7955H206.541ZM214.807 50.175C213.611 50.175 212.532 49.9198 211.57 49.4095C210.622 48.8991 209.871 48.1701 209.317 47.2223C208.778 46.2745 208.508 45.1663 208.508 43.8977C208.508 42.6438 208.785 41.5429 209.339 40.5951C209.893 39.6327 210.651 38.8964 211.614 38.386C212.576 37.8757 213.655 37.6205 214.851 37.6205C216.046 37.6205 217.125 37.8757 218.088 38.386C219.05 38.8964 219.808 39.6327 220.362 40.5951C220.916 41.5429 221.193 42.6438 221.193 43.8977C221.193 45.1517 220.909 46.2599 220.34 47.2223C219.786 48.1701 219.021 48.8991 218.044 49.4095C217.082 49.9198 216.003 50.175 214.807 50.175ZM214.807 46.9379C215.521 46.9379 216.127 46.6755 216.622 46.1506C217.133 45.6256 217.388 44.8747 217.388 43.8977C217.388 42.9208 217.14 42.1699 216.644 41.6449C216.163 41.12 215.565 40.8576 214.851 40.8576C214.122 40.8576 213.516 41.12 213.035 41.6449C212.554 42.1553 212.314 42.9062 212.314 43.8977C212.314 44.8747 212.547 45.6256 213.013 46.1506C213.495 46.6755 214.092 46.9379 214.807 46.9379ZM230.614 37.6643C232.043 37.6643 233.18 38.1309 234.026 39.0641C234.886 39.9827 235.317 41.2513 235.317 42.8698V50H231.598V43.3728C231.598 42.5563 231.387 41.922 230.964 41.47C230.541 41.018 229.973 40.7919 229.258 40.7919C228.544 40.7919 227.975 41.018 227.552 41.47C227.129 41.922 226.918 42.5563 226.918 43.3728V50H223.178V37.7955H226.918V39.414C227.297 38.8745 227.807 38.4517 228.449 38.1454C229.09 37.8247 229.812 37.6643 230.614 37.6643ZM242.88 50.175C241.816 50.175 240.868 49.9927 240.037 49.6282C239.206 49.2636 238.55 48.7679 238.069 48.1409C237.587 47.4993 237.318 46.7848 237.259 45.9974H240.956C240.999 46.4203 241.196 46.763 241.546 47.0254C241.896 47.2879 242.326 47.4191 242.837 47.4191C243.303 47.4191 243.661 47.3316 243.908 47.1567C244.171 46.9671 244.302 46.7265 244.302 46.4349C244.302 46.0849 244.12 45.8298 243.755 45.6694C243.391 45.4944 242.8 45.3048 241.984 45.1007C241.109 44.8966 240.38 44.6851 239.797 44.4664C239.213 44.2331 238.71 43.8759 238.287 43.3947C237.865 42.8989 237.653 42.2355 237.653 41.4044C237.653 40.7045 237.843 40.0702 238.222 39.5015C238.615 38.9183 239.184 38.4589 239.928 38.1236C240.686 37.7882 241.583 37.6205 242.618 37.6205C244.149 37.6205 245.352 37.9996 246.227 38.7579C247.116 39.5161 247.627 40.5222 247.758 41.7762H244.302C244.244 41.3533 244.054 41.018 243.733 40.7701C243.427 40.5222 243.019 40.3982 242.509 40.3982C242.071 40.3982 241.736 40.4857 241.503 40.6607C241.269 40.8211 241.153 41.0471 241.153 41.3387C241.153 41.6887 241.335 41.9512 241.699 42.1261C242.079 42.3011 242.662 42.4761 243.449 42.6511C244.353 42.8844 245.09 43.1177 245.658 43.351C246.227 43.5697 246.723 43.9342 247.145 44.4445C247.583 44.9403 247.809 45.611 247.824 46.4568C247.824 47.1712 247.619 47.8128 247.211 48.3815C246.817 48.9356 246.241 49.373 245.483 49.6938C244.74 50.0146 243.872 50.175 242.88 50.175ZM258.487 39.5234C258.851 38.9547 259.354 38.4954 259.996 38.1454C260.637 37.7955 261.388 37.6205 262.249 37.6205C263.255 37.6205 264.166 37.8757 264.983 38.386C265.799 38.8964 266.441 39.6254 266.907 40.5732C267.389 41.521 267.629 42.6219 267.629 43.8759C267.629 45.1299 267.389 46.238 266.907 47.2004C266.441 48.1482 265.799 48.8845 264.983 49.4095C264.166 49.9198 263.255 50.175 262.249 50.175C261.403 50.175 260.652 50 259.996 49.6501C259.354 49.3001 258.851 48.8481 258.487 48.294V55.8179H254.747V37.7955H258.487V39.5234ZM263.823 43.8759C263.823 42.9427 263.561 42.2136 263.036 41.6887C262.526 41.1492 261.891 40.8794 261.133 40.8794C260.39 40.8794 259.755 41.1492 259.23 41.6887C258.72 42.2282 258.465 42.9645 258.465 43.8977C258.465 44.8309 258.72 45.5673 259.23 46.1068C259.755 46.6463 260.39 46.9161 261.133 46.9161C261.877 46.9161 262.511 46.6463 263.036 46.1068C263.561 45.5527 263.823 44.8091 263.823 43.8759ZM273.331 39.8296C273.769 39.1588 274.316 38.6339 274.972 38.2548C275.628 37.8611 276.357 37.6643 277.159 37.6643V41.6231H276.131C275.198 41.6231 274.498 41.8272 274.031 42.2355C273.565 42.6292 273.331 43.3291 273.331 44.3352V50H269.591V37.7955H273.331V39.8296ZM280.828 36.5269C280.172 36.5269 279.632 36.3374 279.209 35.9583C278.801 35.5646 278.597 35.0834 278.597 34.5147C278.597 33.9315 278.801 33.4503 279.209 33.0712C279.632 32.6775 280.172 32.4806 280.828 32.4806C281.469 32.4806 281.994 32.6775 282.402 33.0712C282.825 33.4503 283.037 33.9315 283.037 34.5147C283.037 35.0834 282.825 35.5646 282.402 35.9583C281.994 36.3374 281.469 36.5269 280.828 36.5269ZM282.687 37.7955V50H278.947V37.7955H282.687ZM290.953 50.175C289.757 50.175 288.678 49.9198 287.716 49.4095C286.768 48.8991 286.017 48.1701 285.463 47.2223C284.923 46.2745 284.654 45.1663 284.654 43.8977C284.654 42.6438 284.931 41.5429 285.485 40.5951C286.039 39.6327 286.797 38.8964 287.759 38.386C288.722 37.8757 289.801 37.6205 290.996 37.6205C292.192 37.6205 293.271 37.8757 294.233 38.386C295.196 38.8964 295.954 39.6327 296.508 40.5951C297.062 41.5429 297.339 42.6438 297.339 43.8977C297.339 45.1517 297.055 46.2599 296.486 47.2223C295.932 48.1701 295.167 48.8991 294.19 49.4095C293.227 49.9198 292.148 50.175 290.953 50.175ZM290.953 46.9379C291.667 46.9379 292.272 46.6755 292.768 46.1506C293.278 45.6256 293.533 44.8747 293.533 43.8977C293.533 42.9208 293.286 42.1699 292.79 41.6449C292.309 41.12 291.711 40.8576 290.996 40.8576C290.267 40.8576 289.662 41.12 289.181 41.6449C288.7 42.1553 288.459 42.9062 288.459 43.8977C288.459 44.8747 288.693 45.6256 289.159 46.1506C289.64 46.6755 290.238 46.9379 290.953 46.9379ZM303.063 39.8296C303.501 39.1588 304.048 38.6339 304.704 38.2548C305.36 37.8611 306.089 37.6643 306.891 37.6643V41.6231H305.863C304.93 41.6231 304.23 41.8272 303.763 42.2355C303.297 42.6292 303.063 43.3291 303.063 44.3352V50H299.323V37.7955H303.063V39.8296ZM310.56 36.5269C309.904 36.5269 309.364 36.3374 308.941 35.9583C308.533 35.5646 308.329 35.0834 308.329 34.5147C308.329 33.9315 308.533 33.4503 308.941 33.0712C309.364 32.6775 309.904 32.4806 310.56 32.4806C311.201 32.4806 311.726 32.6775 312.135 33.0712C312.557 33.4503 312.769 33.9315 312.769 34.5147C312.769 35.0834 312.557 35.5646 312.135 35.9583C311.726 36.3374 311.201 36.5269 310.56 36.5269ZM312.419 37.7955V50H308.679V37.7955H312.419ZM321.931 46.8286V50H320.029C318.672 50 317.615 49.6719 316.857 49.0158C316.099 48.345 315.72 47.2587 315.72 45.7569V40.9013H314.233V37.7955H315.72V34.8209H319.46V37.7955H321.91V40.9013H319.46V45.8006C319.46 46.1651 319.547 46.4276 319.722 46.588C319.897 46.7484 320.189 46.8286 320.597 46.8286H321.931ZM323.271 43.8759C323.271 42.6219 323.504 41.521 323.971 40.5732C324.452 39.6254 325.101 38.8964 325.918 38.386C326.734 37.8757 327.645 37.6205 328.652 37.6205C329.512 37.6205 330.263 37.7955 330.904 38.1454C331.56 38.4954 332.064 38.9547 332.413 39.5234V37.7955H336.154V50H332.413V48.2721C332.049 48.8408 331.539 49.3001 330.882 49.6501C330.241 50 329.49 50.175 328.63 50.175C327.638 50.175 326.734 49.9198 325.918 49.4095C325.101 48.8845 324.452 48.1482 323.971 47.2004C323.504 46.238 323.271 45.1299 323.271 43.8759ZM332.413 43.8977C332.413 42.9645 332.151 42.2282 331.626 41.6887C331.116 41.1492 330.489 40.8794 329.745 40.8794C329.001 40.8794 328.367 41.1492 327.842 41.6887C327.332 42.2136 327.077 42.9427 327.077 43.8759C327.077 44.8091 327.332 45.5527 327.842 46.1068C328.367 46.6463 329.001 46.9161 329.745 46.9161C330.489 46.9161 331.116 46.6463 331.626 46.1068C332.151 45.5673 332.413 44.8309 332.413 43.8977ZM340.74 36.5269C340.084 36.5269 339.545 36.3374 339.122 35.9583C338.714 35.5646 338.509 35.0834 338.509 34.5147C338.509 33.9315 338.714 33.4503 339.122 33.0712C339.545 32.6775 340.084 32.4806 340.74 32.4806C341.382 32.4806 341.907 32.6775 342.315 33.0712C342.738 33.4503 342.949 33.9315 342.949 34.5147C342.949 35.0834 342.738 35.5646 342.315 35.9583C341.907 36.3374 341.382 36.5269 340.74 36.5269ZM342.599 37.7955V50H338.859V37.7955H342.599ZM349.05 39.8296C349.487 39.1588 350.034 38.6339 350.69 38.2548C351.347 37.8611 352.076 37.6643 352.878 37.6643V41.6231H351.85C350.916 41.6231 350.216 41.8272 349.75 42.2355C349.283 42.6292 349.05 43.3291 349.05 44.3352V50H345.31V37.7955H349.05V39.8296ZM366.17 43.7009C366.17 44.0509 366.148 44.4154 366.104 44.7945H357.64C357.698 45.5527 357.939 46.136 358.362 46.5442C358.799 46.9379 359.331 47.1348 359.958 47.1348C360.891 47.1348 361.54 46.7411 361.905 45.9537H365.886C365.681 46.7557 365.31 47.4774 364.77 48.119C364.245 48.7606 363.582 49.2636 362.78 49.6282C361.978 49.9927 361.081 50.175 360.089 50.175C358.894 50.175 357.829 49.9198 356.896 49.4095C355.963 48.8991 355.234 48.1701 354.709 47.2223C354.184 46.2745 353.922 45.1663 353.922 43.8977C353.922 42.6292 354.177 41.521 354.687 40.5732C355.212 39.6254 355.941 38.8964 356.874 38.386C357.807 37.8757 358.879 37.6205 360.089 37.6205C361.271 37.6205 362.32 37.8684 363.239 38.3642C364.158 38.8599 364.872 39.5671 365.382 40.4857C365.907 41.4044 366.17 42.4761 366.17 43.7009ZM362.342 42.7167C362.342 42.0751 362.124 41.5647 361.686 41.1856C361.249 40.8065 360.702 40.617 360.046 40.617C359.419 40.617 358.887 40.7992 358.449 41.1638C358.026 41.5283 357.764 42.0459 357.662 42.7167H362.342ZM373.108 50.175C372.043 50.175 371.096 49.9927 370.264 49.6282C369.433 49.2636 368.777 48.7679 368.296 48.1409C367.815 47.4993 367.545 46.7848 367.487 45.9974H371.183C371.227 46.4203 371.424 46.763 371.774 47.0254C372.124 47.2879 372.554 47.4191 373.064 47.4191C373.531 47.4191 373.888 47.3316 374.136 47.1567C374.398 46.9671 374.53 46.7265 374.53 46.4349C374.53 46.0849 374.347 45.8298 373.983 45.6694C373.618 45.4944 373.028 45.3048 372.211 45.1007C371.336 44.8966 370.607 44.6851 370.024 44.4664C369.441 44.2331 368.938 43.8759 368.515 43.3947C368.092 42.8989 367.88 42.2355 367.88 41.4044C367.88 40.7045 368.07 40.0702 368.449 39.5015C368.843 38.9183 369.411 38.4589 370.155 38.1236C370.913 37.7882 371.81 37.6205 372.845 37.6205C374.376 37.6205 375.579 37.9996 376.454 38.7579C377.344 39.5161 377.854 40.5222 377.985 41.7762H374.53C374.471 41.3533 374.282 41.018 373.961 40.7701C373.655 40.5222 373.246 40.3982 372.736 40.3982C372.299 40.3982 371.963 40.4857 371.73 40.6607C371.497 40.8211 371.38 41.0471 371.38 41.3387C371.38 41.6887 371.562 41.9512 371.927 42.1261C372.306 42.3011 372.889 42.4761 373.677 42.6511C374.581 42.8844 375.317 43.1177 375.886 43.351C376.454 43.5697 376.95 43.9342 377.373 44.4445C377.81 44.9403 378.036 45.611 378.051 46.4568C378.051 47.1712 377.847 47.8128 377.438 48.3815C377.045 48.9356 376.469 49.373 375.711 49.6938C374.967 50.0146 374.099 50.175 373.108 50.175Z" fill="#80BDF2"/>
</svg>
