<svg width="422" height="92" viewBox="0 0 422 92" fill="none" xmlns="http://www.w3.org/2000/svg">
<rect width="422" height="91.0406" fill="#80BDF2"/>
<path d="M23.6794 37.4025C25.413 37.4025 26.9279 37.7461 28.2241 38.4332C29.5204 39.1204 30.5199 40.0887 31.2227 41.3381C31.9411 42.5719 32.3003 44.0009 32.3003 45.6251C32.3003 47.2337 31.9411 48.6627 31.2227 49.9121C30.5199 51.1615 29.5126 52.1298 28.2007 52.8169C26.9044 53.5041 25.3974 53.8477 23.6794 53.8477H17.5183V37.4025H23.6794ZM23.4218 50.3806C24.9366 50.3806 26.1158 49.9668 26.9591 49.139C27.8025 48.3113 28.2241 47.14 28.2241 45.6251C28.2241 44.1102 27.8025 42.9311 26.9591 42.0877C26.1158 41.2444 24.9366 40.8227 23.4218 40.8227H21.5242V50.3806H23.4218ZM36.5536 39.4172C35.8508 39.4172 35.273 39.2141 34.8201 38.8081C34.3828 38.3864 34.1641 37.871 34.1641 37.2619C34.1641 36.6372 34.3828 36.1219 34.8201 35.7158C35.273 35.2941 35.8508 35.0833 36.5536 35.0833C37.2408 35.0833 37.803 35.2941 38.2403 35.7158C38.6932 36.1219 38.9197 36.6372 38.9197 37.2619C38.9197 37.871 38.6932 38.3864 38.2403 38.8081C37.803 39.2141 37.2408 39.4172 36.5536 39.4172ZM38.5448 40.7759V53.8477H34.539V40.7759H38.5448ZM40.6514 47.2884C40.6514 45.9453 40.9012 44.7661 41.401 43.751C41.9164 42.7359 42.6114 41.955 43.4859 41.4084C44.3605 40.8618 45.3366 40.5885 46.4142 40.5885C47.3356 40.5885 48.1399 40.7759 48.8271 41.1507C49.5299 41.5255 50.0687 42.0175 50.4435 42.6265V40.7759H54.4494V53.8477H50.4435V51.997C50.0531 52.6061 49.5065 53.0981 48.8037 53.4729C48.1165 53.8477 47.3122 54.0351 46.3908 54.0351C45.3288 54.0351 44.3605 53.7618 43.4859 53.2152C42.6114 52.653 41.9164 51.8643 41.401 50.8491C40.9012 49.8184 40.6514 48.6315 40.6514 47.2884ZM50.4435 47.3118C50.4435 46.3123 50.1624 45.5236 49.6002 44.9457C49.0536 44.3679 48.382 44.079 47.5855 44.079C46.789 44.079 46.1097 44.3679 45.5474 44.9457C45.0008 45.508 44.7275 46.2888 44.7275 47.2884C44.7275 48.2879 45.0008 49.0844 45.5474 49.6778C46.1097 50.2557 46.789 50.5446 47.5855 50.5446C48.382 50.5446 49.0536 50.2557 49.6002 49.6778C50.1624 49.1 50.4435 48.3113 50.4435 47.3118ZM62.3138 40.5885C63.2353 40.5885 64.0396 40.7759 64.7267 41.1507C65.4295 41.5255 65.9683 42.0175 66.3432 42.6265V40.7759H70.349V53.8243C70.349 55.0268 70.107 56.1122 69.6228 57.0805C69.1543 58.0644 68.4281 58.8453 67.4442 59.4231C66.4759 60.001 65.2656 60.2899 63.8131 60.2899C61.8766 60.2899 60.307 59.8292 59.1045 58.9078C57.9019 58.002 57.2147 56.7682 57.043 55.2064H61.002C61.1269 55.7062 61.4237 56.0966 61.8922 56.3777C62.3607 56.6745 62.9385 56.8228 63.6257 56.8228C64.4534 56.8228 65.1094 56.5808 65.5935 56.0966C66.0933 55.6281 66.3432 54.8706 66.3432 53.8243V51.9736C65.9527 52.5827 65.4139 53.0824 64.7267 53.4729C64.0396 53.8477 63.2353 54.0351 62.3138 54.0351C61.2362 54.0351 60.2602 53.7618 59.3856 53.2152C58.511 52.653 57.816 51.8643 57.3006 50.8491C56.8009 49.8184 56.551 48.6315 56.551 47.2884C56.551 45.9453 56.8009 44.7661 57.3006 43.751C57.816 42.7359 58.511 41.955 59.3856 41.4084C60.2602 40.8618 61.2362 40.5885 62.3138 40.5885ZM66.3432 47.3118C66.3432 46.3123 66.062 45.5236 65.4998 44.9457C64.9532 44.3679 64.2817 44.079 63.4852 44.079C62.6887 44.079 62.0093 44.3679 61.4471 44.9457C60.9005 45.508 60.6272 46.2888 60.6272 47.2884C60.6272 48.2879 60.9005 49.0844 61.4471 49.6778C62.0093 50.2557 62.6887 50.5446 63.4852 50.5446C64.2817 50.5446 64.9532 50.2557 65.4998 49.6778C66.062 49.1 66.3432 48.3113 66.3432 47.3118ZM81.212 40.6353C82.7425 40.6353 83.9607 41.1351 84.8665 42.1346C85.788 43.1185 86.2487 44.4772 86.2487 46.2108V53.8477H82.2662V46.7496C82.2662 45.875 82.0398 45.1956 81.5869 44.7115C81.1339 44.2273 80.5249 43.9853 79.7596 43.9853C78.9944 43.9853 78.3853 44.2273 77.9324 44.7115C77.4795 45.1956 77.253 45.875 77.253 46.7496V53.8477H73.2471V40.7759H77.253V42.5094C77.6591 41.9316 78.2057 41.4787 78.8928 41.1507C79.58 40.8071 80.3531 40.6353 81.212 40.6353ZM94.9826 54.0351C93.702 54.0351 92.5463 53.7618 91.5155 53.2152C90.5004 52.6686 89.6961 51.8877 89.1026 50.8726C88.5248 49.8574 88.2359 48.6705 88.2359 47.3118C88.2359 45.9687 88.5326 44.7896 89.1261 43.7744C89.7195 42.7437 90.5316 41.955 91.5624 41.4084C92.5932 40.8618 93.7488 40.5885 95.0295 40.5885C96.3101 40.5885 97.4658 40.8618 98.4966 41.4084C99.5273 41.955 100.339 42.7437 100.933 43.7744C101.526 44.7896 101.823 45.9687 101.823 47.3118C101.823 48.6549 101.519 49.8418 100.909 50.8726C100.316 51.8877 99.4961 52.6686 98.4497 53.2152C97.419 53.7618 96.2633 54.0351 94.9826 54.0351ZM94.9826 50.568C95.7479 50.568 96.396 50.2869 96.927 49.7247C97.4736 49.1625 97.7469 48.3582 97.7469 47.3118C97.7469 46.2654 97.4814 45.4611 96.9504 44.8989C96.4351 44.3367 95.7947 44.0555 95.0295 44.0555C94.2486 44.0555 93.6005 44.3367 93.0851 44.8989C92.5697 45.4455 92.312 46.2498 92.312 47.3118C92.312 48.3582 92.5619 49.1625 93.0617 49.7247C93.5771 50.2869 94.2174 50.568 94.9826 50.568ZM109.266 54.0351C108.126 54.0351 107.111 53.8399 106.221 53.4495C105.33 53.059 104.628 52.528 104.112 51.8565C103.597 51.1693 103.308 50.404 103.245 49.5607H107.205C107.251 50.0136 107.462 50.3806 107.837 50.6617C108.212 50.9429 108.673 51.0834 109.219 51.0834C109.719 51.0834 110.102 50.9897 110.367 50.8023C110.648 50.5993 110.789 50.3416 110.789 50.0292C110.789 49.6544 110.594 49.3811 110.203 49.2093C109.813 49.0219 109.18 48.8189 108.306 48.6002C107.369 48.3816 106.588 48.1551 105.963 47.9209C105.338 47.671 104.799 47.2884 104.347 46.773C103.894 46.242 103.667 45.5314 103.667 44.6412C103.667 43.8916 103.87 43.2122 104.276 42.6031C104.698 41.9784 105.307 41.4865 106.103 41.1273C106.916 40.7681 107.876 40.5885 108.985 40.5885C110.625 40.5885 111.913 40.9945 112.85 41.8066C113.803 42.6187 114.35 43.6963 114.49 45.0394H110.789C110.726 44.5865 110.523 44.2273 110.18 43.9618C109.852 43.6963 109.414 43.5636 108.868 43.5636C108.399 43.5636 108.04 43.6573 107.79 43.8447C107.54 44.0165 107.415 44.2586 107.415 44.5709C107.415 44.9457 107.611 45.2269 108.001 45.4143C108.407 45.6017 109.032 45.7891 109.875 45.9765C110.843 46.2264 111.632 46.4763 112.241 46.7261C112.85 46.9604 113.381 47.3508 113.834 47.8974C114.303 48.4284 114.545 49.1468 114.56 50.0527C114.56 50.8179 114.342 51.5051 113.904 52.1142C113.483 52.7076 112.866 53.1762 112.054 53.5197C111.257 53.8633 110.328 54.0351 109.266 54.0351ZM124.297 50.4509V53.8477H122.259C120.806 53.8477 119.674 53.4963 118.862 52.7935C118.05 52.0751 117.644 50.9116 117.644 49.303V44.1024H116.051V40.7759H117.644V37.5899H121.65V40.7759H124.273V44.1024H121.65V49.3499C121.65 49.7403 121.743 50.0214 121.931 50.1932C122.118 50.365 122.43 50.4509 122.868 50.4509H124.297ZM128.543 39.4172C127.84 39.4172 127.262 39.2141 126.809 38.8081C126.372 38.3864 126.153 37.871 126.153 37.2619C126.153 36.6372 126.372 36.1219 126.809 35.7158C127.262 35.2941 127.84 35.0833 128.543 35.0833C129.23 35.0833 129.792 35.2941 130.229 35.7158C130.682 36.1219 130.909 36.6372 130.909 37.2619C130.909 37.871 130.682 38.3864 130.229 38.8081C129.792 39.2141 129.23 39.4172 128.543 39.4172ZM130.534 40.7759V53.8477H126.528V40.7759H130.534ZM132.64 47.3118C132.64 45.9531 132.914 44.7661 133.46 43.751C134.023 42.7359 134.796 41.955 135.78 41.4084C136.779 40.8618 137.919 40.5885 139.2 40.5885C140.84 40.5885 142.206 41.0179 143.299 41.8769C144.408 42.7359 145.134 43.9462 145.478 45.508H141.214C140.855 44.5084 140.16 44.0087 139.13 44.0087C138.395 44.0087 137.81 44.2976 137.373 44.8755C136.935 45.4377 136.717 46.2498 136.717 47.3118C136.717 48.3738 136.935 49.1937 137.373 49.7715C137.81 50.3338 138.395 50.6149 139.13 50.6149C140.16 50.6149 140.855 50.1151 141.214 49.1156H145.478C145.134 50.6461 144.408 51.8487 143.299 52.7232C142.191 53.5978 140.824 54.0351 139.2 54.0351C137.919 54.0351 136.779 53.7618 135.78 53.2152C134.796 52.6686 134.023 51.8877 133.46 50.8726C132.914 49.8574 132.64 48.6705 132.64 47.3118ZM165.165 53.8477L163.642 52.3719C162.127 53.5275 160.316 54.1054 158.207 54.1054C156.942 54.1054 155.841 53.9024 154.904 53.4963C153.967 53.0746 153.241 52.489 152.726 51.7393C152.226 50.9741 151.976 50.0839 151.976 49.0688C151.976 48.038 152.249 47.1088 152.796 46.281C153.358 45.4377 154.194 44.7505 155.303 44.2195C154.897 43.7198 154.608 43.2434 154.436 42.7905C154.264 42.322 154.178 41.8144 154.178 41.2678C154.178 40.4869 154.381 39.7764 154.787 39.136C155.193 38.4957 155.779 37.996 156.544 37.6368C157.325 37.2619 158.246 37.0745 159.308 37.0745C160.386 37.0745 161.3 37.2697 162.049 37.6602C162.799 38.0506 163.361 38.5738 163.736 39.2297C164.111 39.8857 164.283 40.6041 164.251 41.385H160.48C160.495 40.9633 160.386 40.6431 160.152 40.4245C159.933 40.1902 159.636 40.0731 159.262 40.0731C158.887 40.0731 158.574 40.1824 158.325 40.4011C158.075 40.6197 157.95 40.9008 157.95 41.2444C157.95 41.5724 158.051 41.9159 158.254 42.2751C158.473 42.6344 158.809 43.0482 159.262 43.5167L163.267 47.4289C163.299 47.3508 163.338 47.2571 163.385 47.1478C163.447 47.0385 163.51 46.9135 163.572 46.773L164.439 45.2971H168.445L167.32 47.3352C166.899 48.2566 166.414 49.1312 165.868 49.9589L169.827 53.8477H165.165ZM158.395 50.8726C159.441 50.8726 160.37 50.5758 161.183 49.9824L157.528 46.445C156.404 47.0229 155.841 47.8037 155.841 48.7876C155.841 49.3811 156.068 49.8809 156.521 50.2869C156.989 50.6774 157.614 50.8726 158.395 50.8726ZM186.477 50.9429H180.34L179.356 53.8477H175.163L181.113 37.4025H185.751L191.701 53.8477H187.461L186.477 50.9429ZM185.447 47.8506L183.409 41.8301L181.394 47.8506H185.447ZM192.716 47.3118C192.716 45.9531 192.989 44.7661 193.536 43.751C194.098 42.7359 194.871 41.955 195.855 41.4084C196.855 40.8618 197.995 40.5885 199.275 40.5885C200.915 40.5885 202.282 41.0179 203.375 41.8769C204.484 42.7359 205.21 43.9462 205.553 45.508H201.29C200.931 44.5084 200.236 44.0087 199.205 44.0087C198.471 44.0087 197.885 44.2976 197.448 44.8755C197.011 45.4377 196.792 46.2498 196.792 47.3118C196.792 48.3738 197.011 49.1937 197.448 49.7715C197.885 50.3338 198.471 50.6149 199.205 50.6149C200.236 50.6149 200.931 50.1151 201.29 49.1156H205.553C205.21 50.6461 204.484 51.8487 203.375 52.7232C202.266 53.5978 200.899 54.0351 199.275 54.0351C197.995 54.0351 196.855 53.7618 195.855 53.2152C194.871 52.6686 194.098 51.8877 193.536 50.8726C192.989 49.8574 192.716 48.6705 192.716 47.3118ZM214.982 50.4509V53.8477H212.944C211.491 53.8477 210.359 53.4963 209.547 52.7935C208.735 52.0751 208.329 50.9116 208.329 49.303V44.1024H206.736V40.7759H208.329V37.5899H212.335V40.7759H214.958V44.1024H212.335V49.3499C212.335 49.7403 212.428 50.0214 212.616 50.1932C212.803 50.365 213.115 50.4509 213.553 50.4509H214.982ZM219.228 39.4172C218.525 39.4172 217.947 39.2141 217.494 38.8081C217.057 38.3864 216.838 37.871 216.838 37.2619C216.838 36.6372 217.057 36.1219 217.494 35.7158C217.947 35.2941 218.525 35.0833 219.228 35.0833C219.915 35.0833 220.477 35.2941 220.914 35.7158C221.367 36.1219 221.594 36.6372 221.594 37.2619C221.594 37.871 221.367 38.3864 220.914 38.8081C220.477 39.2141 219.915 39.4172 219.228 39.4172ZM221.219 40.7759V53.8477H217.213V40.7759H221.219ZM230.072 54.0351C228.792 54.0351 227.636 53.7618 226.605 53.2152C225.59 52.6686 224.786 51.8877 224.192 50.8726C223.614 49.8574 223.326 48.6705 223.326 47.3118C223.326 45.9687 223.622 44.7896 224.216 43.7744C224.809 42.7437 225.621 41.955 226.652 41.4084C227.683 40.8618 228.839 40.5885 230.119 40.5885C231.4 40.5885 232.555 40.8618 233.586 41.4084C234.617 41.955 235.429 42.7437 236.023 43.7744C236.616 44.7896 236.913 45.9687 236.913 47.3118C236.913 48.6549 236.608 49.8418 235.999 50.8726C235.406 51.8877 234.586 52.6686 233.539 53.2152C232.509 53.7618 231.353 54.0351 230.072 54.0351ZM230.072 50.568C230.838 50.568 231.486 50.2869 232.017 49.7247C232.563 49.1625 232.837 48.3582 232.837 47.3118C232.837 46.2654 232.571 45.4611 232.04 44.8989C231.525 44.3367 230.884 44.0555 230.119 44.0555C229.338 44.0555 228.69 44.3367 228.175 44.8989C227.659 45.4455 227.402 46.2498 227.402 47.3118C227.402 48.3582 227.652 49.1625 228.151 49.7247C228.667 50.2869 229.307 50.568 230.072 50.568ZM247.003 40.6353C248.533 40.6353 249.752 41.1351 250.657 42.1346C251.579 43.1185 252.039 44.4772 252.039 46.2108V53.8477H248.057V46.7496C248.057 45.875 247.831 45.1956 247.378 44.7115C246.925 44.2273 246.316 43.9853 245.55 43.9853C244.785 43.9853 244.176 44.2273 243.723 44.7115C243.27 45.1956 243.044 45.875 243.044 46.7496V53.8477H239.038V40.7759H243.044V42.5094C243.45 41.9316 243.996 41.4787 244.684 41.1507C245.371 40.8071 246.144 40.6353 247.003 40.6353ZM260.141 54.0351C259.001 54.0351 257.986 53.8399 257.096 53.4495C256.205 53.059 255.503 52.528 254.987 51.8565C254.472 51.1693 254.183 50.404 254.12 49.5607H258.079C258.126 50.0136 258.337 50.3806 258.712 50.6617C259.087 50.9429 259.547 51.0834 260.094 51.0834C260.594 51.0834 260.976 50.9897 261.242 50.8023C261.523 50.5993 261.664 50.3416 261.664 50.0292C261.664 49.6544 261.468 49.3811 261.078 49.2093C260.688 49.0219 260.055 48.8189 259.18 48.6002C258.243 48.3816 257.463 48.1551 256.838 47.9209C256.213 47.671 255.674 47.2884 255.221 46.773C254.769 46.242 254.542 45.5314 254.542 44.6412C254.542 43.8916 254.745 43.2122 255.151 42.6031C255.573 41.9784 256.182 41.4865 256.978 41.1273C257.791 40.7681 258.751 40.5885 259.86 40.5885C261.5 40.5885 262.788 40.9945 263.725 41.8066C264.678 42.6187 265.224 43.6963 265.365 45.0394H261.664C261.601 44.5865 261.398 44.2273 261.055 43.9618C260.727 43.6963 260.289 43.5636 259.743 43.5636C259.274 43.5636 258.915 43.6573 258.665 43.8447C258.415 44.0165 258.29 44.2586 258.29 44.5709C258.29 44.9457 258.485 45.2269 258.876 45.4143C259.282 45.6017 259.907 45.7891 260.75 45.9765C261.718 46.2264 262.507 46.4763 263.116 46.7261C263.725 46.9604 264.256 47.3508 264.709 47.8974C265.178 48.4284 265.42 49.1468 265.435 50.0527C265.435 50.8179 265.217 51.5051 264.779 52.1142C264.358 52.7076 263.741 53.1762 262.929 53.5197C262.132 53.8633 261.203 54.0351 260.141 54.0351ZM276.856 42.6265C277.247 42.0175 277.786 41.5255 278.473 41.1507C279.16 40.7759 279.964 40.5885 280.886 40.5885C281.963 40.5885 282.939 40.8618 283.814 41.4084C284.688 41.955 285.376 42.7359 285.875 43.751C286.391 44.7661 286.648 45.9453 286.648 47.2884C286.648 48.6315 286.391 49.8184 285.875 50.8491C285.376 51.8643 284.688 52.653 283.814 53.2152C282.939 53.7618 281.963 54.0351 280.886 54.0351C279.98 54.0351 279.175 53.8477 278.473 53.4729C277.786 53.0981 277.247 52.6139 276.856 52.0205V60.0791H272.85V40.7759H276.856V42.6265ZM282.572 47.2884C282.572 46.2888 282.291 45.508 281.729 44.9457C281.182 44.3679 280.503 44.079 279.691 44.079C278.894 44.079 278.215 44.3679 277.653 44.9457C277.106 45.5236 276.833 46.3123 276.833 47.3118C276.833 48.3113 277.106 49.1 277.653 49.6778C278.215 50.2557 278.894 50.5446 279.691 50.5446C280.487 50.5446 281.167 50.2557 281.729 49.6778C282.291 49.0844 282.572 48.2879 282.572 47.2884ZM292.756 42.9545C293.224 42.2361 293.81 41.6739 294.513 41.2678C295.216 40.8462 295.997 40.6353 296.856 40.6353V44.8755H295.754C294.755 44.8755 294.005 45.0941 293.506 45.5314C293.006 45.9531 292.756 46.7027 292.756 47.7803V53.8477H288.75V40.7759H292.756V42.9545ZM300.785 39.4172C300.082 39.4172 299.504 39.2141 299.051 38.8081C298.614 38.3864 298.395 37.871 298.395 37.2619C298.395 36.6372 298.614 36.1219 299.051 35.7158C299.504 35.2941 300.082 35.0833 300.785 35.0833C301.472 35.0833 302.034 35.2941 302.472 35.7158C302.924 36.1219 303.151 36.6372 303.151 37.2619C303.151 37.871 302.924 38.3864 302.472 38.8081C302.034 39.2141 301.472 39.4172 300.785 39.4172ZM302.776 40.7759V53.8477H298.77V40.7759H302.776ZM311.629 54.0351C310.349 54.0351 309.193 53.7618 308.162 53.2152C307.147 52.6686 306.343 51.8877 305.749 50.8726C305.172 49.8574 304.883 48.6705 304.883 47.3118C304.883 45.9687 305.179 44.7896 305.773 43.7744C306.366 42.7437 307.178 41.955 308.209 41.4084C309.24 40.8618 310.396 40.5885 311.676 40.5885C312.957 40.5885 314.113 40.8618 315.143 41.4084C316.174 41.955 316.986 42.7437 317.58 43.7744C318.173 44.7896 318.47 45.9687 318.47 47.3118C318.47 48.6549 318.165 49.8418 317.556 50.8726C316.963 51.8877 316.143 52.6686 315.096 53.2152C314.066 53.7618 312.91 54.0351 311.629 54.0351ZM311.629 50.568C312.395 50.568 313.043 50.2869 313.574 49.7247C314.12 49.1625 314.394 48.3582 314.394 47.3118C314.394 46.2654 314.128 45.4611 313.597 44.8989C313.082 44.3367 312.442 44.0555 311.676 44.0555C310.895 44.0555 310.247 44.3367 309.732 44.8989C309.216 45.4455 308.959 46.2498 308.959 47.3118C308.959 48.3582 309.209 49.1625 309.708 49.7247C310.224 50.2869 310.864 50.568 311.629 50.568ZM324.601 42.9545C325.069 42.2361 325.655 41.6739 326.358 41.2678C327.061 40.8462 327.842 40.6353 328.701 40.6353V44.8755H327.599C326.6 44.8755 325.85 45.0941 325.351 45.5314C324.851 45.9531 324.601 46.7027 324.601 47.7803V53.8477H320.595V40.7759H324.601V42.9545ZM332.63 39.4172C331.927 39.4172 331.349 39.2141 330.896 38.8081C330.459 38.3864 330.24 37.871 330.24 37.2619C330.24 36.6372 330.459 36.1219 330.896 35.7158C331.349 35.2941 331.927 35.0833 332.63 35.0833C333.317 35.0833 333.879 35.2941 334.317 35.7158C334.769 36.1219 334.996 36.6372 334.996 37.2619C334.996 37.871 334.769 38.3864 334.317 38.8081C333.879 39.2141 333.317 39.4172 332.63 39.4172ZM334.621 40.7759V53.8477H330.615V40.7759H334.621ZM344.81 50.4509V53.8477H342.772C341.319 53.8477 340.187 53.4963 339.375 52.7935C338.563 52.0751 338.157 50.9116 338.157 49.303V44.1024H336.564V40.7759H338.157V37.5899H342.163V40.7759H344.786V44.1024H342.163V49.3499C342.163 49.7403 342.256 50.0214 342.444 50.1932C342.631 50.365 342.943 50.4509 343.381 50.4509H344.81ZM346.245 47.2884C346.245 45.9453 346.494 44.7661 346.994 43.751C347.51 42.7359 348.205 41.955 349.079 41.4084C349.954 40.8618 350.93 40.5885 352.007 40.5885C352.929 40.5885 353.733 40.7759 354.42 41.1507C355.123 41.5255 355.662 42.0175 356.037 42.6265V40.7759H360.043V53.8477H356.037V51.997C355.646 52.6061 355.1 53.0981 354.397 53.4729C353.71 53.8477 352.905 54.0351 351.984 54.0351C350.922 54.0351 349.954 53.7618 349.079 53.2152C348.205 52.653 347.51 51.8643 346.994 50.8491C346.494 49.8184 346.245 48.6315 346.245 47.2884ZM356.037 47.3118C356.037 46.3123 355.756 45.5236 355.193 44.9457C354.647 44.3679 353.975 44.079 353.179 44.079C352.382 44.079 351.703 44.3679 351.141 44.9457C350.594 45.508 350.321 46.2888 350.321 47.2884C350.321 48.2879 350.594 49.0844 351.141 49.6778C351.703 50.2557 352.382 50.5446 353.179 50.5446C353.975 50.5446 354.647 50.2557 355.193 49.6778C355.756 49.1 356.037 48.3113 356.037 47.3118ZM364.955 39.4172C364.253 39.4172 363.675 39.2141 363.222 38.8081C362.785 38.3864 362.566 37.871 362.566 37.2619C362.566 36.6372 362.785 36.1219 363.222 35.7158C363.675 35.2941 364.253 35.0833 364.955 35.0833C365.643 35.0833 366.205 35.2941 366.642 35.7158C367.095 36.1219 367.321 36.6372 367.321 37.2619C367.321 37.871 367.095 38.3864 366.642 38.8081C366.205 39.2141 365.643 39.4172 364.955 39.4172ZM366.947 40.7759V53.8477H362.941V40.7759H366.947ZM373.855 42.9545C374.324 42.2361 374.91 41.6739 375.612 41.2678C376.315 40.8462 377.096 40.6353 377.955 40.6353V44.8755H376.854C375.855 44.8755 375.105 45.0941 374.605 45.5314C374.105 45.9531 373.855 46.7027 373.855 47.7803V53.8477H369.85V40.7759H373.855V42.9545ZM392.192 47.101C392.192 47.4758 392.169 47.8662 392.122 48.2723H383.056C383.118 49.0844 383.376 49.7091 383.829 50.1464C384.297 50.568 384.867 50.7789 385.539 50.7789C386.538 50.7789 387.233 50.3572 387.624 49.5139H391.887C391.669 50.3728 391.271 51.1459 390.693 51.833C390.13 52.5202 389.42 53.059 388.561 53.4495C387.702 53.8399 386.741 54.0351 385.679 54.0351C384.399 54.0351 383.259 53.7618 382.259 53.2152C381.26 52.6686 380.479 51.8877 379.917 50.8726C379.354 49.8574 379.073 48.6705 379.073 47.3118C379.073 45.9531 379.347 44.7661 379.893 43.751C380.455 42.7359 381.236 41.955 382.236 41.4084C383.235 40.8618 384.383 40.5885 385.679 40.5885C386.945 40.5885 388.069 40.854 389.053 41.385C390.037 41.9159 390.802 42.6734 391.349 43.6573C391.911 44.6412 392.192 45.7891 392.192 47.101ZM388.092 46.0468C388.092 45.3596 387.858 44.813 387.39 44.4069C386.921 44.0009 386.335 43.7979 385.633 43.7979C384.961 43.7979 384.391 43.9931 383.923 44.3835C383.47 44.7739 383.188 45.3284 383.079 46.0468H388.092ZM399.623 54.0351C398.483 54.0351 397.468 53.8399 396.578 53.4495C395.687 53.059 394.985 52.528 394.469 51.8565C393.954 51.1693 393.665 50.404 393.602 49.5607H397.562C397.608 50.0136 397.819 50.3806 398.194 50.6617C398.569 50.9429 399.03 51.0834 399.576 51.0834C400.076 51.0834 400.459 50.9897 400.724 50.8023C401.005 50.5993 401.146 50.3416 401.146 50.0292C401.146 49.6544 400.951 49.3811 400.56 49.2093C400.17 49.0219 399.537 48.8189 398.663 48.6002C397.725 48.3816 396.945 48.1551 396.32 47.9209C395.695 47.671 395.156 47.2884 394.704 46.773C394.251 46.242 394.024 45.5314 394.024 44.6412C394.024 43.8916 394.227 43.2122 394.633 42.6031C395.055 41.9784 395.664 41.4865 396.46 41.1273C397.273 40.7681 398.233 40.5885 399.342 40.5885C400.982 40.5885 402.27 40.9945 403.207 41.8066C404.16 42.6187 404.707 43.6963 404.847 45.0394H401.146C401.083 44.5865 400.88 44.2273 400.537 43.9618C400.209 43.6963 399.771 43.5636 399.225 43.5636C398.756 43.5636 398.397 43.6573 398.147 43.8447C397.897 44.0165 397.772 44.2586 397.772 44.5709C397.772 44.9457 397.968 45.2269 398.358 45.4143C398.764 45.6017 399.389 45.7891 400.232 45.9765C401.2 46.2264 401.989 46.4763 402.598 46.7261C403.207 46.9604 403.738 47.3508 404.191 47.8974C404.66 48.4284 404.902 49.1468 404.917 50.0527C404.917 50.8179 404.699 51.5051 404.261 52.1142C403.84 52.7076 403.223 53.1762 402.411 53.5197C401.614 53.8633 400.685 54.0351 399.623 54.0351Z" fill="white"/>
</svg>
