<svg width="416" height="90" viewBox="0 0 416 90" fill="none" xmlns="http://www.w3.org/2000/svg">
<rect width="416" height="89.7462" fill="white"/>
<path d="M64.8252 25.566C64.8252 26.5051 64.6096 27.3673 64.1786 28.1525C63.7475 28.9222 63.0855 29.5457 62.1925 30.023C61.2996 30.5003 60.1911 30.7389 58.8671 30.7389H56.4193V36.5584H52.4703V20.347H58.8671C60.1604 20.347 61.2534 20.5702 62.1464 21.0167C63.0393 21.4631 63.709 22.079 64.1555 22.8641C64.6019 23.6493 64.8252 24.5499 64.8252 25.566ZM58.5669 27.5982C59.3213 27.5982 59.8832 27.4212 60.2527 27.0671C60.6222 26.713 60.807 26.2126 60.807 25.566C60.807 24.9194 60.6222 24.4191 60.2527 24.065C59.8832 23.7109 59.3213 23.5338 58.5669 23.5338H56.4193V27.5982H58.5669ZM66.0958 30.0923C66.0958 28.7683 66.3422 27.6059 66.8348 26.6052C67.3429 25.6045 68.028 24.8347 68.8901 24.2959C69.7522 23.7571 70.7145 23.4876 71.7767 23.4876C72.6851 23.4876 73.4779 23.6724 74.1553 24.0419C74.8481 24.4114 75.3793 24.8963 75.7488 25.4967V23.6724H79.6977V36.5584H75.7488V34.734C75.3639 35.3344 74.825 35.8194 74.1322 36.1889C73.4548 36.5584 72.662 36.7431 71.7536 36.7431C70.7068 36.7431 69.7522 36.4737 68.8901 35.9348C68.028 35.3806 67.3429 34.6031 66.8348 33.6024C66.3422 32.5863 66.0958 31.4163 66.0958 30.0923ZM75.7488 30.1154C75.7488 29.1301 75.4716 28.3526 74.9174 27.783C74.3786 27.2133 73.7166 26.9285 72.9314 26.9285C72.1462 26.9285 71.4765 27.2133 70.9223 27.783C70.3835 28.3372 70.114 29.107 70.114 30.0923C70.114 31.0776 70.3835 31.8628 70.9223 32.4478C71.4765 33.0174 72.1462 33.3022 72.9314 33.3022C73.7166 33.3022 74.3786 33.0174 74.9174 32.4478C75.4716 31.8782 75.7488 31.1007 75.7488 30.1154ZM81.7694 30.1154C81.7694 28.776 82.0388 27.6059 82.5777 26.6052C83.1319 25.6045 83.894 24.8347 84.8639 24.2959C85.8492 23.7571 86.9731 23.4876 88.2355 23.4876C89.852 23.4876 91.1991 23.911 92.2768 24.7578C93.3699 25.6045 94.0857 26.7977 94.4244 28.3372H90.2215C89.8674 27.3519 89.1823 26.8592 88.1662 26.8592C87.4426 26.8592 86.8653 27.1441 86.4342 27.7137C86.0031 28.2679 85.7876 29.0685 85.7876 30.1154C85.7876 31.1623 86.0031 31.9705 86.4342 32.5402C86.8653 33.0944 87.4426 33.3715 88.1662 33.3715C89.1823 33.3715 89.8674 32.8789 90.2215 31.8935H94.4244C94.0857 33.4023 93.3699 34.5877 92.2768 35.4499C91.1837 36.312 89.8366 36.7431 88.2355 36.7431C86.9731 36.7431 85.8492 36.4737 84.8639 35.9348C83.894 35.396 83.1319 34.6262 82.5777 33.6255C82.0388 32.6248 81.7694 31.4548 81.7694 30.1154ZM104.412 36.5584L100.486 31.1546V36.5584H96.5367V19.4694H100.486V28.9145L104.388 23.6724H109.261L103.903 30.1385L109.307 36.5584H104.412ZM114.921 30.0923C114.921 28.7683 115.167 27.6059 115.66 26.6052C116.168 25.6045 116.853 24.8347 117.715 24.2959C118.577 23.7571 119.539 23.4876 120.602 23.4876C121.448 23.4876 122.218 23.6647 122.911 24.0188C123.619 24.3729 124.173 24.8501 124.574 25.4506V19.4694H128.523V36.5584H124.574V34.7109C124.204 35.3267 123.673 35.8194 122.98 36.1889C122.303 36.5584 121.51 36.7431 120.602 36.7431C119.539 36.7431 118.577 36.4737 117.715 35.9348C116.853 35.3806 116.168 34.6031 115.66 33.6024C115.167 32.5863 114.921 31.4163 114.921 30.0923ZM124.574 30.1154C124.574 29.1301 124.297 28.3526 123.742 27.783C123.203 27.2133 122.541 26.9285 121.756 26.9285C120.971 26.9285 120.301 27.2133 119.747 27.783C119.208 28.3372 118.939 29.107 118.939 30.0923C118.939 31.0776 119.208 31.8628 119.747 32.4478C120.301 33.0174 120.971 33.3022 121.756 33.3022C122.541 33.3022 123.203 33.0174 123.742 32.4478C124.297 31.8782 124.574 31.1007 124.574 30.1154ZM132.28 20.347H136.321L133.735 26.5359H131.079L132.28 20.347ZM137.856 30.0923C137.856 28.7683 138.102 27.6059 138.595 26.6052C139.103 25.6045 139.788 24.8347 140.65 24.2959C141.512 23.7571 142.475 23.4876 143.537 23.4876C144.445 23.4876 145.238 23.6724 145.915 24.0419C146.608 24.4114 147.139 24.8963 147.509 25.4967V23.6724H151.458V36.5584H147.509V34.734C147.124 35.3344 146.585 35.8194 145.892 36.1889C145.215 36.5584 144.422 36.7431 143.514 36.7431C142.467 36.7431 141.512 36.4737 140.65 35.9348C139.788 35.3806 139.103 34.6031 138.595 33.6024C138.102 32.5863 137.856 31.4163 137.856 30.0923ZM147.509 30.1154C147.509 29.1301 147.232 28.3526 146.678 27.783C146.139 27.2133 145.477 26.9285 144.692 26.9285C143.906 26.9285 143.237 27.2133 142.682 27.783C142.144 28.3372 141.874 29.107 141.874 30.0923C141.874 31.0776 142.144 31.8628 142.682 32.4478C143.237 33.0174 143.906 33.3022 144.692 33.3022C145.477 33.3022 146.139 33.0174 146.678 32.4478C147.232 31.8782 147.509 31.1007 147.509 30.1154ZM153.53 30.1154C153.53 28.776 153.799 27.6059 154.338 26.6052C154.892 25.6045 155.654 24.8347 156.624 24.2959C157.609 23.7571 158.733 23.4876 159.996 23.4876C161.612 23.4876 162.959 23.911 164.037 24.7578C165.13 25.6045 165.846 26.7977 166.185 28.3372H161.982C161.628 27.3519 160.942 26.8592 159.926 26.8592C159.203 26.8592 158.625 27.1441 158.194 27.7137C157.763 28.2679 157.548 29.0685 157.548 30.1154C157.548 31.1623 157.763 31.9705 158.194 32.5402C158.625 33.0944 159.203 33.3715 159.926 33.3715C160.942 33.3715 161.628 32.8789 161.982 31.8935H166.185C165.846 33.4023 165.13 34.5877 164.037 35.4499C162.944 36.312 161.597 36.7431 159.996 36.7431C158.733 36.7431 157.609 36.4737 156.624 35.9348C155.654 35.396 154.892 34.6262 154.338 33.6255C153.799 32.6248 153.53 31.4548 153.53 30.1154ZM167.512 30.1154C167.512 28.776 167.781 27.6059 168.32 26.6052C168.874 25.6045 169.636 24.8347 170.606 24.2959C171.592 23.7571 172.715 23.4876 173.978 23.4876C175.594 23.4876 176.941 23.911 178.019 24.7578C179.112 25.6045 179.828 26.7977 180.167 28.3372H175.964C175.61 27.3519 174.925 26.8592 173.909 26.8592C173.185 26.8592 172.608 27.1441 172.177 27.7137C171.745 28.2679 171.53 29.0685 171.53 30.1154C171.53 31.1623 171.745 31.9705 172.177 32.5402C172.608 33.0944 173.185 33.3715 173.909 33.3715C174.925 33.3715 175.61 32.8789 175.964 31.8935H180.167C179.828 33.4023 179.112 34.5877 178.019 35.4499C176.926 36.312 175.579 36.7431 173.978 36.7431C172.715 36.7431 171.592 36.4737 170.606 35.9348C169.636 35.396 168.874 34.6262 168.32 33.6255C167.781 32.6248 167.512 31.4548 167.512 30.1154ZM188.145 36.7431C186.882 36.7431 185.743 36.4737 184.727 35.9348C183.726 35.396 182.933 34.6262 182.348 33.6255C181.779 32.6248 181.494 31.4548 181.494 30.1154C181.494 28.7914 181.786 27.629 182.371 26.6283C182.956 25.6122 183.757 24.8347 184.773 24.2959C185.789 23.7571 186.928 23.4876 188.191 23.4876C189.453 23.4876 190.593 23.7571 191.609 24.2959C192.625 24.8347 193.425 25.6122 194.01 26.6283C194.595 27.629 194.888 28.7914 194.888 30.1154C194.888 31.4394 194.588 32.6094 193.987 33.6255C193.402 34.6262 192.594 35.396 191.562 35.9348C190.546 36.4737 189.407 36.7431 188.145 36.7431ZM188.145 33.3253C188.899 33.3253 189.538 33.0482 190.061 32.494C190.6 31.9397 190.87 31.1469 190.87 30.1154C190.87 29.0839 190.608 28.291 190.085 27.7368C189.576 27.1825 188.945 26.9054 188.191 26.9054C187.421 26.9054 186.782 27.1825 186.274 27.7368C185.766 28.2756 185.512 29.0685 185.512 30.1154C185.512 31.1469 185.758 31.9397 186.251 32.494C186.759 33.0482 187.39 33.3253 188.145 33.3253ZM213.425 23.5338C215.026 23.5338 216.296 24.0188 217.236 24.9887C218.19 25.9586 218.667 27.3057 218.667 29.03V36.5584H214.742V29.5611C214.742 28.7298 214.518 28.0909 214.072 27.6444C213.641 27.1825 213.04 26.9516 212.271 26.9516C211.501 26.9516 210.893 27.1825 210.446 27.6444C210.015 28.0909 209.8 28.7298 209.8 29.5611V36.5584H205.874V29.5611C205.874 28.7298 205.651 28.0909 205.204 27.6444C204.773 27.1825 204.173 26.9516 203.403 26.9516C202.633 26.9516 202.025 27.1825 201.578 27.6444C201.147 28.0909 200.932 28.7298 200.932 29.5611V36.5584H196.983V23.6724H200.932V25.2889C201.332 24.7501 201.856 24.3267 202.502 24.0188C203.149 23.6955 203.88 23.5338 204.696 23.5338C205.666 23.5338 206.528 23.7417 207.282 24.1573C208.052 24.573 208.653 25.1657 209.084 25.9355C209.53 25.2273 210.138 24.65 210.908 24.2035C211.678 23.7571 212.517 23.5338 213.425 23.5338ZM225.378 25.4967C225.763 24.8963 226.294 24.4114 226.972 24.0419C227.649 23.6724 228.442 23.4876 229.35 23.4876C230.412 23.4876 231.375 23.7571 232.237 24.2959C233.099 24.8347 233.776 25.6045 234.269 26.6052C234.777 27.6059 235.031 28.7683 235.031 30.0923C235.031 31.4163 234.777 32.5863 234.269 33.6024C233.776 34.6031 233.099 35.3806 232.237 35.9348C231.375 36.4737 230.412 36.7431 229.35 36.7431C228.457 36.7431 227.664 36.5584 226.972 36.1889C226.294 35.8194 225.763 35.3421 225.378 34.7571V42.7011H221.429V23.6724H225.378V25.4967ZM231.013 30.0923C231.013 29.107 230.736 28.3372 230.181 27.783C229.643 27.2133 228.973 26.9285 228.172 26.9285C227.387 26.9285 226.717 27.2133 226.163 27.783C225.624 28.3526 225.355 29.1301 225.355 30.1154C225.355 31.1007 225.624 31.8782 226.163 32.4478C226.717 33.0174 227.387 33.3022 228.172 33.3022C228.958 33.3022 229.627 33.0174 230.181 32.4478C230.736 31.8628 231.013 31.0776 231.013 30.0923ZM236.318 30.0923C236.318 28.7683 236.564 27.6059 237.057 26.6052C237.565 25.6045 238.25 24.8347 239.112 24.2959C239.974 23.7571 240.936 23.4876 241.998 23.4876C242.907 23.4876 243.7 23.6724 244.377 24.0419C245.07 24.4114 245.601 24.8963 245.97 25.4967V23.6724H249.919V36.5584H245.97V34.734C245.586 35.3344 245.047 35.8194 244.354 36.1889C243.677 36.5584 242.884 36.7431 241.975 36.7431C240.928 36.7431 239.974 36.4737 239.112 35.9348C238.25 35.3806 237.565 34.6031 237.057 33.6024C236.564 32.5863 236.318 31.4163 236.318 30.0923ZM245.97 30.1154C245.97 29.1301 245.693 28.3526 245.139 27.783C244.6 27.2133 243.938 26.9285 243.153 26.9285C242.368 26.9285 241.698 27.2133 241.144 27.783C240.605 28.3372 240.336 29.107 240.336 30.0923C240.336 31.0776 240.605 31.8628 241.144 32.4478C241.698 33.0174 242.368 33.3022 243.153 33.3022C243.938 33.3022 244.6 33.0174 245.139 32.4478C245.693 31.8782 245.97 31.1007 245.97 30.1154ZM257.672 23.4876C258.58 23.4876 259.373 23.6724 260.051 24.0419C260.743 24.4114 261.275 24.8963 261.644 25.4967V23.6724H265.593V36.5353C265.593 37.7207 265.354 38.7907 264.877 39.7452C264.415 40.7151 263.699 41.4849 262.729 42.0545C261.775 42.6242 260.582 42.909 259.15 42.909C257.241 42.909 255.694 42.4548 254.508 41.5465C253.323 40.6535 252.645 39.4373 252.476 37.8978H256.379C256.502 38.3904 256.794 38.7753 257.256 39.0524C257.718 39.3449 258.288 39.4912 258.965 39.4912C259.781 39.4912 260.428 39.2526 260.905 38.7753C261.398 38.3134 261.644 37.5668 261.644 36.5353V34.7109C261.259 35.3113 260.728 35.804 260.051 36.1889C259.373 36.5584 258.58 36.7431 257.672 36.7431C256.61 36.7431 255.648 36.4737 254.785 35.9348C253.923 35.3806 253.238 34.6031 252.73 33.6024C252.237 32.5863 251.991 31.4163 251.991 30.0923C251.991 28.7683 252.237 27.6059 252.73 26.6052C253.238 25.6045 253.923 24.8347 254.785 24.2959C255.648 23.7571 256.61 23.4876 257.672 23.4876ZM261.644 30.1154C261.644 29.1301 261.367 28.3526 260.813 27.783C260.274 27.2133 259.612 26.9285 258.827 26.9285C258.042 26.9285 257.372 27.2133 256.818 27.783C256.279 28.3372 256.009 29.107 256.009 30.0923C256.009 31.0776 256.279 31.8628 256.818 32.4478C257.372 33.0174 258.042 33.3022 258.827 33.3022C259.612 33.3022 260.274 33.0174 260.813 32.4478C261.367 31.8782 261.644 31.1007 261.644 30.1154ZM276.302 23.5338C277.81 23.5338 279.011 24.0265 279.904 25.0118C280.812 25.9817 281.267 27.3211 281.267 29.03V36.5584H277.341V29.5611C277.341 28.699 277.117 28.0293 276.671 27.552C276.225 27.0748 275.624 26.8362 274.87 26.8362C274.115 26.8362 273.515 27.0748 273.068 27.552C272.622 28.0293 272.399 28.699 272.399 29.5611V36.5584H268.45V23.6724H272.399V25.3813C272.799 24.8117 273.338 24.3652 274.015 24.0419C274.693 23.7032 275.455 23.5338 276.302 23.5338ZM296.158 29.9075C296.158 30.277 296.135 30.6619 296.088 31.0622H287.151C287.213 31.8628 287.467 32.4786 287.913 32.9096C288.375 33.3253 288.937 33.5332 289.599 33.5332C290.585 33.5332 291.27 33.1175 291.654 32.2861H295.857C295.642 33.1329 295.249 33.895 294.68 34.5724C294.125 35.2498 293.425 35.7809 292.578 36.1658C291.731 36.5507 290.785 36.7431 289.738 36.7431C288.475 36.7431 287.351 36.4737 286.366 35.9348C285.381 35.396 284.611 34.6262 284.057 33.6255C283.503 32.6248 283.225 31.4548 283.225 30.1154C283.225 28.776 283.495 27.6059 284.034 26.6052C284.588 25.6045 285.358 24.8347 286.343 24.2959C287.328 23.7571 288.46 23.4876 289.738 23.4876C290.985 23.4876 292.093 23.7494 293.063 24.2728C294.033 24.7963 294.787 25.5429 295.326 26.5128C295.881 27.4828 296.158 28.6143 296.158 29.9075ZM292.116 28.8683C292.116 28.1909 291.885 27.6521 291.424 27.2518C290.962 26.8515 290.384 26.6514 289.692 26.6514C289.03 26.6514 288.468 26.8438 288.006 27.2287C287.559 27.6136 287.282 28.1602 287.174 28.8683H292.116ZM314.683 23.5338C316.284 23.5338 317.554 24.0188 318.494 24.9887C319.448 25.9586 319.925 27.3057 319.925 29.03V36.5584H316V29.5611C316 28.7298 315.776 28.0909 315.33 27.6444C314.899 27.1825 314.298 26.9516 313.529 26.9516C312.759 26.9516 312.151 27.1825 311.704 27.6444C311.273 28.0909 311.058 28.7298 311.058 29.5611V36.5584H307.132V29.5611C307.132 28.7298 306.909 28.0909 306.462 27.6444C306.031 27.1825 305.431 26.9516 304.661 26.9516C303.891 26.9516 303.283 27.1825 302.836 27.6444C302.405 28.0909 302.19 28.7298 302.19 29.5611V36.5584H298.241V23.6724H302.19V25.2889C302.59 24.7501 303.114 24.3267 303.76 24.0188C304.407 23.6955 305.138 23.5338 305.954 23.5338C306.924 23.5338 307.786 23.7417 308.54 24.1573C309.31 24.573 309.911 25.1657 310.342 25.9355C310.788 25.2273 311.396 24.65 312.166 24.2035C312.936 23.7571 313.775 23.5338 314.683 23.5338ZM334.834 29.9075C334.834 30.277 334.811 30.6619 334.765 31.0622H325.828C325.889 31.8628 326.143 32.4786 326.59 32.9096C327.052 33.3253 327.614 33.5332 328.276 33.5332C329.261 33.5332 329.946 33.1175 330.331 32.2861H334.534C334.318 33.1329 333.926 33.895 333.356 34.5724C332.802 35.2498 332.101 35.7809 331.255 36.1658C330.408 36.5507 329.461 36.7431 328.414 36.7431C327.152 36.7431 326.028 36.4737 325.043 35.9348C324.057 35.396 323.288 34.6262 322.733 33.6255C322.179 32.6248 321.902 31.4548 321.902 30.1154C321.902 28.776 322.171 27.6059 322.71 26.6052C323.264 25.6045 324.034 24.8347 325.02 24.2959C326.005 23.7571 327.136 23.4876 328.414 23.4876C329.661 23.4876 330.77 23.7494 331.74 24.2728C332.71 24.7963 333.464 25.5429 334.003 26.5128C334.557 27.4828 334.834 28.6143 334.834 29.9075ZM330.793 28.8683C330.793 28.1909 330.562 27.6521 330.1 27.2518C329.638 26.8515 329.061 26.6514 328.368 26.6514C327.706 26.6514 327.144 26.8438 326.682 27.2287C326.236 27.6136 325.959 28.1602 325.851 28.8683H330.793ZM344.769 23.5338C346.278 23.5338 347.479 24.0265 348.372 25.0118C349.28 25.9817 349.734 27.3211 349.734 29.03V36.5584H345.808V29.5611C345.808 28.699 345.585 28.0293 345.139 27.552C344.692 27.0748 344.092 26.8362 343.337 26.8362C342.583 26.8362 341.983 27.0748 341.536 27.552C341.09 28.0293 340.866 28.699 340.866 29.5611V36.5584H336.917V23.6724H340.866V25.3813C341.267 24.8117 341.805 24.3652 342.483 24.0419C343.16 23.7032 343.922 23.5338 344.769 23.5338ZM359.66 33.2099V36.5584H357.651C356.219 36.5584 355.103 36.212 354.303 35.5192C353.502 34.811 353.102 33.664 353.102 32.0783V26.9516H351.531V23.6724H353.102V20.5317H357.051V23.6724H359.637V26.9516H357.051V32.1245C357.051 32.5094 357.143 32.7865 357.328 32.9558C357.513 33.1252 357.82 33.2099 358.252 33.2099H359.66ZM139.352 76.3848C137.859 74.9531 136.696 73.1056 135.865 70.8425C135.034 68.5793 134.618 66.1392 134.618 63.522C134.618 60.8739 135.049 58.403 135.911 56.1091C136.773 53.7997 137.997 51.9215 139.583 50.4743H143.463V50.8438C141.846 52.4449 140.599 54.3694 139.721 56.6171C138.844 58.8494 138.405 61.1511 138.405 63.522C138.405 65.8775 138.829 68.1483 139.675 70.3344C140.522 72.5206 141.715 74.4142 143.255 76.0153V76.3848H139.352ZM161.417 58.1412H154.212V61.3281C154.52 60.9894 154.951 60.7123 155.505 60.4967C156.059 60.2812 156.66 60.1734 157.306 60.1734C158.461 60.1734 159.416 60.4352 160.17 60.9586C160.94 61.4821 161.502 62.1595 161.856 62.9908C162.21 63.8222 162.387 64.7228 162.387 65.6927C162.387 67.494 161.879 68.9257 160.863 69.988C159.847 71.0349 158.415 71.5584 156.567 71.5584C155.336 71.5584 154.266 71.3505 153.357 70.9348C152.449 70.5038 151.749 69.9111 151.256 69.1567C150.763 68.4023 150.494 67.5325 150.448 66.5472H154.304C154.397 67.0244 154.62 67.4247 154.974 67.748C155.328 68.0559 155.813 68.2099 156.429 68.2099C157.152 68.2099 157.691 67.9789 158.045 67.5171C158.399 67.0552 158.576 66.4394 158.576 65.6696C158.576 64.9152 158.392 64.3379 158.022 63.9376C157.653 63.5373 157.114 63.3372 156.406 63.3372C155.882 63.3372 155.451 63.4681 155.112 63.7298C154.774 63.9761 154.551 64.3071 154.443 64.7228H150.632V54.6773H161.417V58.1412ZM175.095 71.7431C173.971 71.7431 172.971 71.5507 172.093 71.1658C171.215 70.7809 170.523 70.2575 170.015 69.5954C169.507 68.918 169.222 68.1637 169.16 67.3323H173.063C173.109 67.7788 173.317 68.1406 173.686 68.4177C174.056 68.6948 174.51 68.8334 175.049 68.8334C175.542 68.8334 175.919 68.741 176.18 68.5563C176.458 68.3561 176.596 68.1021 176.596 67.7942C176.596 67.4247 176.404 67.1553 176.019 66.9859C175.634 66.8012 175.01 66.601 174.148 66.3855C173.225 66.17 172.455 65.9467 171.839 65.7158C171.223 65.4695 170.692 65.0923 170.246 64.5842C169.799 64.0608 169.576 63.3603 169.576 62.4828C169.576 61.7438 169.776 61.0741 170.176 60.4737C170.592 59.8578 171.192 59.3729 171.978 59.0188C172.778 58.6647 173.725 58.4876 174.818 58.4876C176.434 58.4876 177.705 58.8879 178.628 59.6885C179.567 60.4891 180.106 61.5513 180.245 62.8753H176.596C176.535 62.4289 176.334 62.0748 175.996 61.8131C175.672 61.5513 175.241 61.4205 174.703 61.4205C174.241 61.4205 173.887 61.5128 173.64 61.6976C173.394 61.8669 173.271 62.1056 173.271 62.4135C173.271 62.783 173.463 63.0601 173.848 63.2448C174.248 63.4296 174.864 63.6143 175.696 63.7991C176.65 64.0454 177.427 64.2917 178.028 64.538C178.628 64.769 179.152 65.1539 179.598 65.6927C180.06 66.2162 180.299 66.9243 180.314 67.8173C180.314 68.5717 180.099 69.2491 179.668 69.8495C179.252 70.4345 178.644 70.8964 177.843 71.2351C177.058 71.5738 176.142 71.7431 175.095 71.7431ZM194.877 64.9075C194.877 65.277 194.854 65.6619 194.808 66.0622H185.871C185.932 66.8628 186.186 67.4786 186.633 67.9096C187.095 68.3253 187.657 68.5332 188.319 68.5332C189.304 68.5332 189.989 68.1175 190.374 67.2861H194.577C194.361 68.1329 193.969 68.895 193.399 69.5724C192.845 70.2498 192.144 70.7809 191.298 71.1658C190.451 71.5507 189.504 71.7431 188.457 71.7431C187.195 71.7431 186.071 71.4737 185.086 70.9348C184.1 70.396 183.331 69.6262 182.776 68.6255C182.222 67.6248 181.945 66.4548 181.945 65.1154C181.945 63.776 182.214 62.6059 182.753 61.6052C183.307 60.6045 184.077 59.8347 185.062 59.2959C186.048 58.7571 187.179 58.4876 188.457 58.4876C189.704 58.4876 190.813 58.7494 191.783 59.2728C192.753 59.7963 193.507 60.5429 194.046 61.5128C194.6 62.4828 194.877 63.6143 194.877 64.9075ZM190.836 63.8683C190.836 63.1909 190.605 62.6521 190.143 62.2518C189.681 61.8515 189.104 61.6514 188.411 61.6514C187.749 61.6514 187.187 61.8438 186.725 62.2287C186.279 62.6136 186.002 63.1602 185.894 63.8683H190.836ZM191.113 55.3701L185.547 57.7025V54.9775L191.113 52.2987V55.3701ZM196.175 65.0923C196.175 63.7683 196.421 62.6059 196.914 61.6052C197.422 60.6045 198.107 59.8347 198.969 59.2959C199.832 58.7571 200.794 58.4876 201.856 58.4876C202.764 58.4876 203.557 58.6724 204.235 59.0419C204.927 59.4114 205.459 59.8963 205.828 60.4967V58.6724H209.777V71.5584H205.828V69.734C205.443 70.3344 204.904 70.8194 204.212 71.1889C203.534 71.5584 202.741 71.7431 201.833 71.7431C200.786 71.7431 199.832 71.4737 198.969 70.9348C198.107 70.3806 197.422 69.6031 196.914 68.6024C196.421 67.5863 196.175 66.4163 196.175 65.0923ZM205.828 65.1154C205.828 64.1301 205.551 63.3526 204.997 62.783C204.458 62.2133 203.796 61.9285 203.011 61.9285C202.226 61.9285 201.556 62.2133 201.002 62.783C200.463 63.3372 200.193 64.107 200.193 65.0923C200.193 66.0776 200.463 66.8628 201.002 67.4478C201.556 68.0174 202.226 68.3022 203.011 68.3022C203.796 68.3022 204.458 68.0174 204.997 67.4478C205.551 66.8782 205.828 66.1007 205.828 65.1154ZM220.486 58.5338C221.994 58.5338 223.195 59.0265 224.088 60.0118C224.996 60.9817 225.451 62.3211 225.451 64.03V71.5584H221.525V64.5611C221.525 63.699 221.302 63.0293 220.855 62.552C220.409 62.0748 219.808 61.8362 219.054 61.8362C218.299 61.8362 217.699 62.0748 217.253 62.552C216.806 63.0293 216.583 63.699 216.583 64.5611V71.5584H212.634V58.6724H216.583V60.3813C216.983 59.8117 217.522 59.3652 218.199 59.0419C218.877 58.7032 219.639 58.5338 220.486 58.5338ZM227.41 65.1154C227.41 63.776 227.679 62.6059 228.218 61.6052C228.772 60.6045 229.534 59.8347 230.504 59.2959C231.489 58.7571 232.613 58.4876 233.876 58.4876C235.492 58.4876 236.839 58.911 237.917 59.7578C239.01 60.6045 239.726 61.7977 240.065 63.3372H235.862C235.508 62.3519 234.822 61.8592 233.806 61.8592C233.083 61.8592 232.505 62.1441 232.074 62.7137C231.643 63.2679 231.428 64.0685 231.428 65.1154C231.428 66.1623 231.643 66.9705 232.074 67.5402C232.505 68.0944 233.083 68.3715 233.806 68.3715C234.822 68.3715 235.508 67.8789 235.862 66.8935H240.065C239.726 68.4023 239.01 69.5877 237.917 70.4499C236.824 71.312 235.477 71.7431 233.876 71.7431C232.613 71.7431 231.489 71.4737 230.504 70.9348C229.534 70.396 228.772 69.6262 228.218 68.6255C227.679 67.6248 227.41 66.4548 227.41 65.1154ZM254.324 64.9075C254.324 65.277 254.301 65.6619 254.255 66.0622H245.318C245.379 66.8628 245.633 67.4786 246.08 67.9096C246.541 68.3253 247.103 68.5332 247.765 68.5332C248.751 68.5332 249.436 68.1175 249.821 67.2861H254.024C253.808 68.1329 253.416 68.895 252.846 69.5724C252.292 70.2498 251.591 70.7809 250.744 71.1658C249.898 71.5507 248.951 71.7431 247.904 71.7431C246.642 71.7431 245.518 71.4737 244.532 70.9348C243.547 70.396 242.777 69.6262 242.223 68.6255C241.669 67.6248 241.392 66.4548 241.392 65.1154C241.392 63.776 241.661 62.6059 242.2 61.6052C242.754 60.6045 243.524 59.8347 244.509 59.2959C245.495 58.7571 246.626 58.4876 247.904 58.4876C249.151 58.4876 250.259 58.7494 251.229 59.2728C252.199 59.7963 252.954 60.5429 253.493 61.5128C254.047 62.4828 254.324 63.6143 254.324 64.9075ZM250.283 63.8683C250.283 63.1909 250.052 62.6521 249.59 62.2518C249.128 61.8515 248.551 61.6514 247.858 61.6514C247.196 61.6514 246.634 61.8438 246.172 62.2287C245.726 62.6136 245.448 63.1602 245.341 63.8683H250.283ZM261.649 71.7431C260.525 71.7431 259.525 71.5507 258.647 71.1658C257.77 70.7809 257.077 70.2575 256.569 69.5954C256.061 68.918 255.776 68.1637 255.714 67.3323H259.617C259.663 67.7788 259.871 68.1406 260.241 68.4177C260.61 68.6948 261.064 68.8334 261.603 68.8334C262.096 68.8334 262.473 68.741 262.735 68.5563C263.012 68.3561 263.15 68.1021 263.15 67.7942C263.15 67.4247 262.958 67.1553 262.573 66.9859C262.188 66.8012 261.565 66.601 260.702 66.3855C259.779 66.17 259.009 65.9467 258.393 65.7158C257.777 65.4695 257.246 65.0923 256.8 64.5842C256.353 64.0608 256.13 63.3603 256.13 62.4828C256.13 61.7438 256.33 61.0741 256.73 60.4737C257.146 59.8578 257.747 59.3729 258.532 59.0188C259.332 58.6647 260.279 58.4876 261.372 58.4876C262.989 58.4876 264.259 58.8879 265.183 59.6885C266.122 60.4891 266.66 61.5513 266.799 62.8753H263.15C263.089 62.4289 262.889 62.0748 262.55 61.8131C262.227 61.5513 261.796 61.4205 261.257 61.4205C260.795 61.4205 260.441 61.5128 260.194 61.6976C259.948 61.8669 259.825 62.1056 259.825 62.4135C259.825 62.783 260.017 63.0601 260.402 63.2448C260.803 63.4296 261.418 63.6143 262.25 63.7991C263.204 64.0454 263.982 64.2917 264.582 64.538C265.183 64.769 265.706 65.1539 266.152 65.6927C266.614 66.2162 266.853 66.9243 266.868 67.8173C266.868 68.5717 266.653 69.2491 266.222 69.8495C265.806 70.4345 265.198 70.8964 264.397 71.2351C263.612 71.5738 262.696 71.7431 261.649 71.7431ZM273.116 76.3848V76.0153C274.655 74.4142 275.848 72.5206 276.695 70.3344C277.542 68.1483 277.965 65.8775 277.965 63.522C277.965 61.1511 277.527 58.8494 276.649 56.6171C275.771 54.3694 274.524 52.4449 272.908 50.8438V50.4743H276.788C278.373 51.9215 279.597 53.7997 280.459 56.1091C281.322 58.403 281.753 60.8739 281.753 63.522C281.753 66.1392 281.337 68.5793 280.506 70.8425C279.674 73.1056 278.512 74.9531 277.018 76.3848H273.116Z" fill="#80BDF2"/>
</svg>
