<svg width="229" height="52" viewBox="0 0 229 52" fill="none" xmlns="http://www.w3.org/2000/svg">
<rect x="0.5" y="0.5" width="228" height="50.3854" fill="white" stroke="#80BDF2"/>
<path d="M32.0466 25.7104C32.0466 26.747 31.6891 27.6109 30.9742 28.302C30.2712 28.9812 29.1928 29.3208 27.7392 29.3208H25.3442V34.5219H23.7177V22.0643H27.7392C29.1452 22.0643 30.2116 22.4038 30.9385 23.083C31.6772 23.7622 32.0466 24.638 32.0466 25.7104ZM27.7392 27.9803C28.6447 27.9803 29.312 27.7837 29.741 27.3905C30.1699 26.9972 30.3844 26.4372 30.3844 25.7104C30.3844 24.1733 29.5026 23.4047 27.7392 23.4047H25.3442V27.9803H27.7392ZM33.4604 29.5889C33.4604 28.588 33.663 27.7122 34.0681 26.9615C34.4732 26.1989 35.0273 25.6091 35.7303 25.1921C36.4452 24.775 37.2376 24.5665 38.1074 24.5665C38.9653 24.5665 39.71 24.7512 40.3416 25.1206C40.9731 25.4899 41.4437 25.9546 41.7535 26.5147V24.7274H43.3979V34.5219H41.7535V32.6988C41.4318 33.2707 40.9492 33.7473 40.3058 34.1286C39.6743 34.498 38.9355 34.6827 38.0895 34.6827C37.2197 34.6827 36.4333 34.4682 35.7303 34.0393C35.0273 33.6103 34.4732 33.0086 34.0681 32.2341C33.663 31.4596 33.4604 30.5778 33.4604 29.5889ZM41.7535 29.6067C41.7535 28.868 41.6046 28.2245 41.3067 27.6764C41.0088 27.1283 40.6037 26.7113 40.0913 26.4253C39.5909 26.1274 39.0368 25.9785 38.4291 25.9785C37.8214 25.9785 37.2674 26.1215 36.7669 26.4074C36.2665 26.6934 35.8673 27.1104 35.5694 27.6586C35.2715 28.2067 35.1226 28.8501 35.1226 29.5889C35.1226 30.3395 35.2715 30.9949 35.5694 31.5549C35.8673 32.103 36.2665 32.526 36.7669 32.8239C37.2674 33.1099 37.8214 33.2529 38.4291 33.2529C39.0368 33.2529 39.5909 33.1099 40.0913 32.8239C40.6037 32.526 41.0088 32.103 41.3067 31.5549C41.6046 30.9949 41.7535 30.3455 41.7535 29.6067ZM49.6138 34.6827C48.8632 34.6827 48.1899 34.5576 47.5942 34.3074C46.9984 34.0452 46.5277 33.6878 46.1822 33.235C45.8366 32.7703 45.646 32.24 45.6102 31.6443H47.2903C47.338 32.1328 47.5644 32.532 47.9695 32.8418C48.3865 33.1516 48.9287 33.3065 49.596 33.3065C50.2156 33.3065 50.7041 33.1694 51.0616 32.8954C51.419 32.6213 51.5977 32.2758 51.5977 31.8587C51.5977 31.4298 51.4071 31.114 51.0258 30.9115C50.6445 30.697 50.0547 30.4885 49.2564 30.2859C48.5295 30.0953 47.9337 29.9046 47.469 29.714C47.0163 29.5114 46.623 29.2195 46.2894 28.8382C45.9677 28.445 45.8068 27.9326 45.8068 27.3011C45.8068 26.8006 45.9558 26.3419 46.2537 25.9249C46.5516 25.5078 46.9746 25.1801 47.5227 24.9418C48.0708 24.6916 48.6963 24.5665 49.3993 24.5665C50.4837 24.5665 51.3594 24.8405 52.0267 25.3887C52.694 25.9368 53.0514 26.6874 53.0991 27.6407H51.4726C51.4369 27.1283 51.2284 26.7172 50.8471 26.4074C50.4777 26.0976 49.9772 25.9427 49.3457 25.9427C48.7619 25.9427 48.2972 26.0678 47.9516 26.3181C47.6061 26.5683 47.4333 26.896 47.4333 27.3011C47.4333 27.6228 47.5346 27.8909 47.7371 28.1054C47.9516 28.3079 48.2138 28.4748 48.5236 28.6058C48.8453 28.725 49.2861 28.862 49.8462 29.0169C50.5492 29.2076 51.1211 29.3982 51.562 29.5889C52.0029 29.7676 52.3782 30.0416 52.688 30.411C53.0097 30.7804 53.1765 31.263 53.1885 31.8587C53.1885 32.3949 53.0395 32.8775 52.7416 33.3065C52.4437 33.7354 52.0207 34.075 51.4726 34.3252C50.9364 34.5636 50.3168 34.6827 49.6138 34.6827ZM58.9519 34.6827C58.2012 34.6827 57.528 34.5576 56.9322 34.3074C56.3364 34.0452 55.8658 33.6878 55.5202 33.235C55.1747 32.7703 54.984 32.24 54.9483 31.6443H56.6283C56.676 32.1328 56.9024 32.532 57.3075 32.8418C57.7246 33.1516 58.2667 33.3065 58.934 33.3065C59.5536 33.3065 60.0421 33.1694 60.3996 32.8954C60.7571 32.6213 60.9358 32.2758 60.9358 31.8587C60.9358 31.4298 60.7451 31.114 60.3638 30.9115C59.9825 30.697 59.3927 30.4885 58.5944 30.2859C57.8676 30.0953 57.2718 29.9046 56.8071 29.714C56.3543 29.5114 55.9611 29.2195 55.6275 28.8382C55.3057 28.445 55.1449 27.9326 55.1449 27.3011C55.1449 26.8006 55.2938 26.3419 55.5917 25.9249C55.8896 25.5078 56.3126 25.1801 56.8607 24.9418C57.4088 24.6916 58.0344 24.5665 58.7374 24.5665C59.8217 24.5665 60.6975 24.8405 61.3647 25.3887C62.032 25.9368 62.3895 26.6874 62.4371 27.6407H60.8107C60.7749 27.1283 60.5664 26.7172 60.1851 26.4074C59.8157 26.0976 59.3153 25.9427 58.6838 25.9427C58.0999 25.9427 57.6352 26.0678 57.2897 26.3181C56.9441 26.5683 56.7713 26.896 56.7713 27.3011C56.7713 27.6228 56.8726 27.8909 57.0752 28.1054C57.2897 28.3079 57.5518 28.4748 57.8616 28.6058C58.1833 28.725 58.6242 28.862 59.1842 29.0169C59.8872 29.2076 60.4592 29.3982 60.9 29.5889C61.3409 29.7676 61.7162 30.0416 62.026 30.411C62.3478 30.7804 62.5146 31.263 62.5265 31.8587C62.5265 32.3949 62.3776 32.8775 62.0797 33.3065C61.7818 33.7354 61.3588 34.075 60.8107 34.3252C60.2745 34.5636 59.6549 34.6827 58.9519 34.6827ZM69.0942 34.6827C68.1767 34.6827 67.3426 34.4742 66.5919 34.0571C65.8532 33.6401 65.2693 33.0503 64.8404 32.2877C64.4233 31.5132 64.2148 30.6195 64.2148 29.6067C64.2148 28.6058 64.4293 27.7241 64.8582 26.9615C65.2991 26.187 65.8949 25.5972 66.6456 25.1921C67.3962 24.775 68.2363 24.5665 69.1657 24.5665C70.0951 24.5665 70.9351 24.775 71.6858 25.1921C72.4365 25.5972 73.0263 26.181 73.4552 26.9436C73.8961 27.7062 74.1165 28.5939 74.1165 29.6067C74.1165 30.6195 73.8902 31.5132 73.4374 32.2877C72.9965 33.0503 72.3948 33.6401 71.6322 34.0571C70.8696 34.4742 70.0236 34.6827 69.0942 34.6827ZM69.0942 33.2529C69.678 33.2529 70.2262 33.1158 70.7385 32.8418C71.2509 32.5677 71.662 32.1566 71.9718 31.6085C72.2935 31.0604 72.4543 30.3931 72.4543 29.6067C72.4543 28.8203 72.2994 28.153 71.9896 27.6049C71.6798 27.0568 71.2747 26.6517 70.7743 26.3896C70.2738 26.1155 69.7317 25.9785 69.1478 25.9785C68.552 25.9785 68.0039 26.1155 67.5035 26.3896C67.0149 26.6517 66.6217 27.0568 66.3238 27.6049C66.026 28.153 65.877 28.8203 65.877 29.6067C65.877 30.4051 66.02 31.0783 66.306 31.6264C66.6039 32.1745 66.9971 32.5856 67.4856 32.8596C67.9741 33.1218 68.5103 33.2529 69.0942 33.2529ZM81.0272 24.5486C82.2187 24.5486 83.1839 24.912 83.9226 25.6389C84.6614 26.3538 85.0308 27.3905 85.0308 28.7488V34.5219H83.4222V28.9812C83.4222 28.0041 83.1779 27.2594 82.6894 26.747C82.2008 26.2227 81.5336 25.9606 80.6876 25.9606C79.8297 25.9606 79.1445 26.2287 78.6322 26.7649C78.1317 27.3011 77.8815 28.0816 77.8815 29.1063V34.5219H76.255V24.7274H77.8815V26.1215C78.2032 25.621 78.6381 25.2338 79.1862 24.9597C79.7463 24.6856 80.3599 24.5486 81.0272 24.5486ZM91.155 34.6827C90.4043 34.6827 89.7311 34.5576 89.1353 34.3074C88.5395 34.0452 88.0689 33.6878 87.7233 33.235C87.3778 32.7703 87.1871 32.24 87.1514 31.6443H88.8315C88.8791 32.1328 89.1055 32.532 89.5107 32.8418C89.9277 33.1516 90.4698 33.3065 91.1371 33.3065C91.7567 33.3065 92.2452 33.1694 92.6027 32.8954C92.9602 32.6213 93.1389 32.2758 93.1389 31.8587C93.1389 31.4298 92.9483 31.114 92.567 30.9115C92.1857 30.697 91.5959 30.4885 90.7975 30.2859C90.0707 30.0953 89.4749 29.9046 89.0102 29.714C88.5574 29.5114 88.1642 29.2195 87.8306 28.8382C87.5089 28.445 87.348 27.9326 87.348 27.3011C87.348 26.8006 87.4969 26.3419 87.7948 25.9249C88.0927 25.5078 88.5157 25.1801 89.0638 24.9418C89.6119 24.6916 90.2375 24.5665 90.9405 24.5665C92.0248 24.5665 92.9006 24.8405 93.5679 25.3887C94.2351 25.9368 94.5926 26.6874 94.6403 27.6407H93.0138C92.978 27.1283 92.7695 26.7172 92.3882 26.4074C92.0189 26.0976 91.5184 25.9427 90.8869 25.9427C90.303 25.9427 89.8383 26.0678 89.4928 26.3181C89.1472 26.5683 88.9745 26.896 88.9745 27.3011C88.9745 27.6228 89.0757 27.8909 89.2783 28.1054C89.4928 28.3079 89.7549 28.4748 90.0647 28.6058C90.3864 28.725 90.8273 28.862 91.3873 29.0169C92.0903 29.2076 92.6623 29.3982 93.1032 29.5889C93.544 29.7676 93.9194 30.0416 94.2292 30.411C94.5509 30.7804 94.7177 31.263 94.7296 31.8587C94.7296 32.3949 94.5807 32.8775 94.2828 33.3065C93.9849 33.7354 93.5619 34.075 93.0138 34.3252C92.4776 34.5636 91.858 34.6827 91.155 34.6827ZM101.183 29.5889C101.183 28.588 101.386 27.7122 101.791 26.9615C102.196 26.1989 102.75 25.6091 103.453 25.1921C104.168 24.775 104.96 24.5665 105.83 24.5665C106.688 24.5665 107.433 24.7512 108.064 25.1206C108.696 25.4899 109.166 25.9546 109.476 26.5147V24.7274H111.12V34.5219H109.476V32.6988C109.154 33.2707 108.672 33.7473 108.028 34.1286C107.397 34.498 106.658 34.6827 105.812 34.6827C104.942 34.6827 104.156 34.4682 103.453 34.0393C102.75 33.6103 102.196 33.0086 101.791 32.2341C101.386 31.4596 101.183 30.5778 101.183 29.5889ZM109.476 29.6067C109.476 28.868 109.327 28.2245 109.029 27.6764C108.731 27.1283 108.326 26.7113 107.814 26.4253C107.313 26.1274 106.759 25.9785 106.152 25.9785C105.544 25.9785 104.99 26.1215 104.489 26.4074C103.989 26.6934 103.59 27.1104 103.292 27.6586C102.994 28.2067 102.845 28.8501 102.845 29.5889C102.845 30.3395 102.994 30.9949 103.292 31.5549C103.59 32.103 103.989 32.526 104.489 32.8239C104.99 33.1099 105.544 33.2529 106.152 33.2529C106.759 33.2529 107.313 33.1099 107.814 32.8239C108.326 32.526 108.731 32.103 109.029 31.5549C109.327 30.9949 109.476 30.3455 109.476 29.6067ZM108.207 22.7792V23.9946L104.4 21.957V20.545L108.207 22.7792ZM120.26 21.2957V34.5219H118.634V21.2957H120.26ZM123.283 22.0643H125.088L123.372 26.1215H122.228L123.283 22.0643ZM126.335 29.5889C126.335 28.588 126.537 27.7122 126.942 26.9615C127.347 26.1989 127.901 25.6091 128.604 25.1921C129.319 24.775 130.112 24.5665 130.982 24.5665C131.839 24.5665 132.584 24.7512 133.216 25.1206C133.847 25.4899 134.318 25.9546 134.628 26.5147V24.7274H136.272V34.5219H134.628V32.6988C134.306 33.2707 133.823 33.7473 133.18 34.1286C132.548 34.498 131.81 34.6827 130.964 34.6827C130.094 34.6827 129.307 34.4682 128.604 34.0393C127.901 33.6103 127.347 33.0086 126.942 32.2341C126.537 31.4596 126.335 30.5778 126.335 29.5889ZM134.628 29.6067C134.628 28.868 134.479 28.2245 134.181 27.6764C133.883 27.1283 133.478 26.7113 132.965 26.4253C132.465 26.1274 131.911 25.9785 131.303 25.9785C130.696 25.9785 130.142 26.1215 129.641 26.4074C129.141 26.6934 128.741 27.1104 128.444 27.6586C128.146 28.2067 127.997 28.8501 127.997 29.5889C127.997 30.3395 128.146 30.9949 128.444 31.5549C128.741 32.103 129.141 32.526 129.641 32.8239C130.142 33.1099 130.696 33.2529 131.303 33.2529C131.911 33.2529 132.465 33.1099 132.965 32.8239C133.478 32.526 133.883 32.103 134.181 31.5549C134.479 30.9949 134.628 30.3455 134.628 29.6067ZM138.413 29.6067C138.413 28.5939 138.615 27.7122 139.021 26.9615C139.426 26.1989 139.986 25.6091 140.701 25.1921C141.428 24.775 142.256 24.5665 143.185 24.5665C144.388 24.5665 145.377 24.8584 146.152 25.4423C146.938 26.0261 147.457 26.8364 147.707 27.873H145.955C145.789 27.2773 145.461 26.8066 144.972 26.461C144.496 26.1155 143.9 25.9427 143.185 25.9427C142.256 25.9427 141.505 26.2644 140.933 26.9079C140.361 27.5394 140.075 28.439 140.075 29.6067C140.075 30.7864 140.361 31.6979 140.933 32.3413C141.505 32.9848 142.256 33.3065 143.185 33.3065C143.9 33.3065 144.496 33.1397 144.972 32.806C145.449 32.4724 145.777 31.9958 145.955 31.3762H147.707C147.445 32.3771 146.921 33.1814 146.134 33.7891C145.348 34.3848 144.365 34.6827 143.185 34.6827C142.256 34.6827 141.428 34.4742 140.701 34.0571C139.986 33.6401 139.426 33.0503 139.021 32.2877C138.615 31.5251 138.413 30.6315 138.413 29.6067ZM151.861 26.0678V31.8409C151.861 32.3175 151.962 32.6571 152.165 32.8596C152.367 33.0503 152.719 33.1456 153.219 33.1456H154.417V34.5219H152.951C152.046 34.5219 151.367 34.3133 150.914 33.8963C150.461 33.4792 150.235 32.7941 150.235 31.8409V26.0678H148.966V24.7274H150.235V22.2609H151.861V24.7274H154.417V26.0678H151.861ZM157.228 23.1366C156.918 23.1366 156.656 23.0294 156.441 22.8149C156.227 22.6004 156.119 22.3383 156.119 22.0285C156.119 21.7187 156.227 21.4566 156.441 21.2421C156.656 21.0276 156.918 20.9204 157.228 20.9204C157.526 20.9204 157.776 21.0276 157.978 21.2421C158.193 21.4566 158.3 21.7187 158.3 22.0285C158.3 22.3383 158.193 22.6004 157.978 22.8149C157.776 23.0294 157.526 23.1366 157.228 23.1366ZM158.014 24.7274V34.5219H156.388V24.7274H158.014ZM165.058 34.6827C164.14 34.6827 163.306 34.4742 162.556 34.0571C161.817 33.6401 161.233 33.0503 160.804 32.2877C160.387 31.5132 160.178 30.6195 160.178 29.6067C160.178 28.6058 160.393 27.7241 160.822 26.9615C161.263 26.187 161.858 25.5972 162.609 25.1921C163.36 24.775 164.2 24.5665 165.129 24.5665C166.059 24.5665 166.899 24.775 167.649 25.1921C168.4 25.5972 168.99 26.181 169.419 26.9436C169.86 27.7062 170.08 28.5939 170.08 29.6067C170.08 30.6195 169.854 31.5132 169.401 32.2877C168.96 33.0503 168.358 33.6401 167.596 34.0571C166.833 34.4742 165.987 34.6827 165.058 34.6827ZM165.058 33.2529C165.642 33.2529 166.19 33.1158 166.702 32.8418C167.214 32.5677 167.626 32.1566 167.935 31.6085C168.257 31.0604 168.418 30.3931 168.418 29.6067C168.418 28.8203 168.263 28.153 167.953 27.6049C167.643 27.0568 167.238 26.6517 166.738 26.3896C166.237 26.1155 165.695 25.9785 165.111 25.9785C164.516 25.9785 163.967 26.1155 163.467 26.3896C162.979 26.6517 162.585 27.0568 162.287 27.6049C161.99 28.153 161.841 28.8203 161.841 29.6067C161.841 30.4051 161.984 31.0783 162.27 31.6264C162.567 32.1745 162.961 32.5856 163.449 32.8596C163.938 33.1218 164.474 33.2529 165.058 33.2529ZM176.991 24.5486C178.182 24.5486 179.147 24.912 179.886 25.6389C180.625 26.3538 180.994 27.3905 180.994 28.7488V34.5219H179.386V28.9812C179.386 28.0041 179.141 27.2594 178.653 26.747C178.164 26.2227 177.497 25.9606 176.651 25.9606C175.793 25.9606 175.108 26.2287 174.596 26.7649C174.095 27.3011 173.845 28.0816 173.845 29.1063V34.5219H172.219V24.7274H173.845V26.1215C174.167 25.621 174.602 25.2338 175.15 24.9597C175.71 24.6856 176.323 24.5486 176.991 24.5486Z" fill="#80BDF2"/>
<path d="M204.086 29.1354C204.253 29.3114 204.241 29.5923 204.06 29.7633L201.094 32.5503C200.912 32.7207 200.63 32.7154 200.464 32.5395C200.297 32.3634 200.308 32.0825 200.49 31.9117L202.658 29.8722L187.266 29.6467L187.306 28.7582L202.699 28.9837L200.707 26.8847C200.541 26.7086 200.554 26.4278 200.736 26.2571C200.918 26.0865 201.2 26.0896 201.367 26.2654L204.086 29.1354Z" fill="#80BDF2"/>
</svg>
