<svg width="59" height="59" viewBox="0 0 59 59" fill="none" xmlns="http://www.w3.org/2000/svg">
<path d="M12.8203 17.1098C14.5124 17.1098 16.1664 16.6079 17.5732 15.6677C18.9801 14.7275 20.0765 13.3913 20.7239 11.8279C21.3713 10.2646 21.5405 8.54439 21.2102 6.88486C20.8798 5.22534 20.0648 3.70104 18.8681 2.50475C17.6715 1.30845 16.1469 0.493893 14.4873 0.164084C12.8277 -0.165725 11.1075 0.00403016 9.54439 0.651882C7.98124 1.29973 6.64533 2.39658 5.70559 3.80371C4.76584 5.21084 4.26449 6.86505 4.26492 8.55712C4.26783 10.825 5.17022 12.9991 6.7741 14.6025C8.37799 16.2059 10.5524 17.1076 12.8203 17.1098ZM12.8203 4.4C13.642 4.40009 14.4453 4.64385 15.1285 5.10045C15.8117 5.55705 16.3442 6.20599 16.6586 6.96521C16.973 7.72443 17.0552 8.55983 16.8949 9.36578C16.7345 10.1717 16.3388 10.912 15.7577 11.4931C15.1766 12.0741 14.4362 12.4698 13.6303 12.63C12.8243 12.7903 11.9889 12.708 11.2297 12.3935C10.4705 12.079 9.82165 11.5465 9.36512 10.8632C8.90859 10.18 8.66492 9.37667 8.66492 8.55492C8.66644 7.45336 9.10473 6.39735 9.8837 5.61847C10.6627 4.83958 11.7187 4.4014 12.8203 4.4ZM16.3456 24.6704H9.29456C7.99664 24.672 6.75237 25.1884 5.83476 26.1064C4.91716 27.0243 4.40116 28.2688 4.4 29.5667V34.5704C4.4 35.1538 4.16821 35.7134 3.75563 36.126C3.34305 36.5386 2.78348 36.7704 2.2 36.7704C1.61652 36.7704 1.05695 36.5386 0.644365 36.126C0.231785 35.7134 0 35.1538 0 34.5704V29.5667C0.00267784 27.1023 0.982728 24.7395 2.72517 22.9968C4.4676 21.254 6.83015 20.2735 9.29456 20.2704H16.3456C18.8103 20.273 21.1733 21.2533 22.9161 22.9962C24.6589 24.739 25.6392 27.102 25.6419 29.5667V34.5704C25.6419 35.1538 25.4101 35.7134 24.9975 36.126C24.5849 36.5386 24.0254 36.7704 23.4419 36.7704C22.8584 36.7704 22.2988 36.5386 21.8862 36.126C21.4737 35.7134 21.2419 35.1538 21.2419 34.5704V29.5667C21.2407 28.2685 20.7245 27.0237 19.8065 26.1058C18.8885 25.1878 17.6438 24.6715 16.3456 24.6704ZM37.3208 30.6984C37.3207 32.3905 37.8224 34.0446 38.7625 35.4516C39.7025 36.8586 41.0387 37.9553 42.602 38.6028C44.1653 39.2504 45.8855 39.4199 47.5451 39.0898C49.2047 38.7597 50.7292 37.9449 51.9257 36.7484C53.1222 35.5518 53.9371 34.0274 54.2672 32.3678C54.5972 30.7081 54.4278 28.9879 53.7802 27.4246C53.1326 25.8613 52.036 24.5251 50.629 23.5851C49.222 22.6451 47.5678 22.1434 45.8757 22.1434C43.6075 22.1459 41.4329 23.0481 39.829 24.652C38.2252 26.2559 37.3231 28.4301 37.3208 30.6984ZM50.0311 30.6984C50.0312 31.5202 49.7875 32.3237 49.331 33.0071C48.8744 33.6905 48.2255 34.2232 47.4662 34.5377C46.7069 34.8523 45.8714 34.9347 45.0653 34.7744C44.2592 34.6141 43.5188 34.2184 42.9376 33.6372C42.3564 33.0561 41.9606 32.3157 41.8002 31.5096C41.6399 30.7036 41.7221 29.868 42.0366 29.1087C42.3511 28.3494 42.8837 27.7004 43.5671 27.2438C44.2504 26.7872 45.0538 26.5434 45.8757 26.5434C46.9773 26.545 48.0334 26.9832 48.8123 27.7622C49.5913 28.5411 50.0296 29.5968 50.0311 30.6984ZM58.6991 51.7101V56.7138C58.6991 57.2973 58.4673 57.8569 58.0547 58.2694C57.6421 58.682 57.0826 58.9138 56.4991 58.9138C55.9156 58.9138 55.356 58.682 54.9434 58.2694C54.5309 57.8569 54.2991 57.2973 54.2991 56.7138V51.7106C54.2979 50.4123 53.7817 49.1676 52.8637 48.2496C51.9457 47.3316 50.701 46.8154 49.4028 46.8142H42.3504C41.0522 46.8154 39.8075 47.3316 38.8895 48.2496C37.9715 49.1676 37.4553 50.4123 37.4541 51.7106V56.7142C37.4541 57.2977 37.2223 57.8573 36.8098 58.2699C36.3972 58.6825 35.8376 58.9142 35.2541 58.9142C34.6706 58.9142 34.1111 58.6825 33.6985 58.2699C33.2859 57.8573 33.0541 57.2977 33.0541 56.7142V51.7106C33.0568 49.2459 34.0371 46.8829 35.7799 45.14C37.5227 43.3972 39.8857 42.4169 42.3504 42.4142H49.4014C51.8659 42.4174 54.2284 43.3979 55.9708 45.1407C57.7133 46.8834 58.6964 49.2457 58.6991 51.7101ZM28.8671 53.4591C28.8671 54.0426 28.6353 54.6022 28.2227 55.0148C27.8101 55.4273 27.2506 55.6591 26.6671 55.6591H21.6071C18.6908 55.6556 15.8949 54.4956 13.8328 52.4334C11.7706 50.3713 10.6106 47.5754 10.6071 44.6591V43.3831C10.6071 42.7997 10.8389 42.2401 11.2514 41.8275C11.664 41.4149 12.2236 41.1831 12.8071 41.1831C13.3906 41.1831 13.9501 41.4149 14.3627 41.8275C14.7753 42.2401 15.0071 42.7997 15.0071 43.3831V44.6591C15.0091 46.4089 15.7051 48.0865 16.9424 49.3238C18.1797 50.5612 19.8573 51.2571 21.6071 51.2591H26.6671C26.956 51.2592 27.2421 51.3161 27.509 51.4268C27.7758 51.5374 28.0183 51.6995 28.2226 51.9038C28.4268 52.1081 28.5888 52.3507 28.6993 52.6176C28.8099 52.8846 28.8671 53.1702 28.8671 53.4591ZM25.6991 5.67512C25.6991 5.09165 25.9309 4.53207 26.3434 4.11949C26.756 3.70691 27.3156 3.47512 27.8991 3.47512H37.0951C40.0114 3.4785 42.8074 4.63851 44.8695 6.70068C46.9317 8.76285 48.0917 11.5588 48.0951 14.4751V15.5311C48.0951 16.1146 47.8633 16.6742 47.4507 17.0868C47.0381 17.4993 46.4786 17.7311 45.8951 17.7311C45.3116 17.7311 44.752 17.4993 44.3394 17.0868C43.9269 16.6742 43.6951 16.1146 43.6951 15.5311V14.4751C43.6932 12.7253 42.9973 11.0476 41.7599 9.81028C40.5226 8.57294 38.8449 7.87699 37.0951 7.87512H27.896C27.607 7.87512 27.3208 7.81818 27.0538 7.70753C26.7868 7.59689 26.5442 7.43472 26.3399 7.23029C26.1356 7.02586 25.9736 6.78318 25.8631 6.51611C25.7526 6.24904 25.6989 5.96414 25.6991 5.67512Z" fill="#5B5A5F"/>
</svg>
