<svg width="241" height="73" viewBox="0 0 241 73" fill="none" xmlns="http://www.w3.org/2000/svg">
<rect x="1.5515" y="1.5515" width="237.897" height="69.3004" rx="34.6502" stroke="#80BDF2" stroke-width="3.103"/>
<path d="M49.8407 43.7153L46.5378 37.7202H45.6102V43.7153H41.7417V27.8341H48.2345C49.4863 27.8341 50.5496 28.0528 51.4243 28.4901C52.3141 28.9275 52.9777 29.5308 53.4151 30.3C53.8525 31.0541 54.0712 31.8986 54.0712 32.8337C54.0712 33.8894 53.7695 34.8321 53.1663 35.6616C52.5781 36.4911 51.7033 37.0793 50.542 37.4262L54.2069 43.7153H49.8407ZM45.6102 34.9829H48.0083C48.7171 34.9829 49.245 34.8094 49.5919 34.4626C49.9538 34.1157 50.1348 33.6255 50.1348 32.9921C50.1348 32.3888 49.9538 31.9137 49.5919 31.5668C49.245 31.22 48.7171 31.0465 48.0083 31.0465H45.6102V34.9829ZM68.3992 37.1999C68.3992 37.5619 68.3766 37.9389 68.3313 38.3311H59.5763C59.6366 39.1153 59.8855 39.7186 60.3229 40.1409C60.7753 40.5481 61.3258 40.7517 61.9743 40.7517C62.9396 40.7517 63.6107 40.3445 63.9878 39.5301H68.1051C67.894 40.3596 67.5094 41.1061 66.9513 41.7697C66.4084 42.4333 65.7222 42.9537 64.8927 43.3307C64.0632 43.7078 63.1356 43.8963 62.1101 43.8963C60.8733 43.8963 59.7724 43.6324 58.8071 43.1045C57.8419 42.5766 57.0878 41.8225 56.5448 40.8422C56.0019 39.8619 55.7304 38.7157 55.7304 37.4035C55.7304 36.0914 55.9943 34.9452 56.5222 33.9649C57.0652 32.9845 57.8193 32.2304 58.7845 31.7026C59.7497 31.1747 60.8583 30.9108 62.1101 30.9108C63.3317 30.9108 64.4176 31.1672 65.3677 31.68C66.3179 32.1927 67.0569 32.9242 67.5848 33.8744C68.1277 34.8245 68.3992 35.933 68.3992 37.1999ZM64.4402 36.1819C64.4402 35.5183 64.214 34.9904 63.7615 34.5983C63.3091 34.2062 62.7435 34.0101 62.0648 34.0101C61.4163 34.0101 60.8658 34.1986 60.4133 34.5757C59.976 34.9527 59.7045 35.4881 59.5989 36.1819H64.4402ZM64.7117 27.8567L59.2596 30.1416V27.4721L64.7117 24.8479V27.8567ZM76.7744 34.3042H74.6931V43.7153H70.8246V34.3042H69.422V31.0918H70.8246V30.7298C70.8246 29.1764 71.2695 28 72.1594 27.2006C73.0492 26.3862 74.3538 25.979 76.0731 25.979C76.3597 25.979 76.5708 25.9865 76.7066 26.0016V29.2819C75.9675 29.2367 75.4472 29.3423 75.1456 29.5987C74.8439 29.855 74.6931 30.315 74.6931 30.9786V31.0918H76.7744V34.3042ZM90.4918 37.1999C90.4918 37.5619 90.4692 37.9389 90.424 38.3311H81.6689C81.7292 39.1153 81.9781 39.7186 82.4155 40.1409C82.8679 40.5481 83.4184 40.7517 84.0669 40.7517C85.0322 40.7517 85.7033 40.3445 86.0804 39.5301H90.1977C89.9866 40.3596 89.602 41.1061 89.044 41.7697C88.501 42.4333 87.8148 42.9537 86.9853 43.3307C86.1558 43.7078 85.2282 43.8963 84.2027 43.8963C82.966 43.8963 81.865 43.6324 80.8997 43.1045C79.9345 42.5766 79.1804 41.8225 78.6375 40.8422C78.0945 39.8619 77.823 38.7157 77.823 37.4035C77.823 36.0914 78.087 34.9452 78.6148 33.9649C79.1578 32.9845 79.9119 32.2304 80.8771 31.7026C81.8424 31.1747 82.9509 30.9108 84.2027 30.9108C85.4243 30.9108 86.5102 31.1672 87.4604 31.68C88.4105 32.1927 89.1495 32.9242 89.6774 33.8744C90.2203 34.8245 90.4918 35.933 90.4918 37.1999ZM86.5328 36.1819C86.5328 35.5183 86.3066 34.9904 85.8541 34.5983C85.4017 34.2062 84.8361 34.0101 84.1574 34.0101C83.5089 34.0101 82.9584 34.1986 82.506 34.5757C82.0686 34.9527 81.7971 35.4881 81.6915 36.1819H86.5328ZM86.8043 27.8567L81.3522 30.1416V27.4721L86.8043 24.8479V27.8567ZM96.4012 33.1957C96.8536 32.5019 97.4192 31.959 98.0979 31.5668C98.7766 31.1596 99.5306 30.956 100.36 30.956V35.0508H99.2969C98.3316 35.0508 97.6077 35.2619 97.1251 35.6842C96.6425 36.0914 96.4012 36.8153 96.4012 37.856V43.7153H92.5326V31.0918H96.4012V33.1957ZM114.109 37.1999C114.109 37.5619 114.086 37.9389 114.041 38.3311H105.286C105.346 39.1153 105.595 39.7186 106.032 40.1409C106.485 40.5481 107.035 40.7517 107.684 40.7517C108.649 40.7517 109.32 40.3445 109.697 39.5301H113.815C113.604 40.3596 113.219 41.1061 112.661 41.7697C112.118 42.4333 111.432 42.9537 110.602 43.3307C109.773 43.7078 108.845 43.8963 107.82 43.8963C106.583 43.8963 105.482 43.6324 104.517 43.1045C103.551 42.5766 102.797 41.8225 102.254 40.8422C101.712 39.8619 101.44 38.7157 101.44 37.4035C101.44 36.0914 101.704 34.9452 102.232 33.9649C102.775 32.9845 103.529 32.2304 104.494 31.7026C105.459 31.1747 106.568 30.9108 107.82 30.9108C109.041 30.9108 110.127 31.1672 111.077 31.68C112.028 32.1927 112.767 32.9242 113.294 33.8744C113.837 34.8245 114.109 35.933 114.109 37.1999ZM110.15 36.1819C110.15 35.5183 109.924 34.9904 109.471 34.5983C109.019 34.2062 108.453 34.0101 107.774 34.0101C107.126 34.0101 106.575 34.1986 106.123 34.5757C105.686 34.9527 105.414 35.4881 105.309 36.1819H110.15ZM123.841 30.956C125.319 30.956 126.496 31.4386 127.371 32.4039C128.26 33.354 128.705 34.6662 128.705 36.3403V43.7153H124.859V36.8606C124.859 36.016 124.641 35.3599 124.203 34.8924C123.766 34.4249 123.178 34.1911 122.439 34.1911C121.7 34.1911 121.112 34.4249 120.674 34.8924C120.237 35.3599 120.018 36.016 120.018 36.8606V43.7153H116.15V31.0918H120.018V32.7658C120.41 32.2078 120.938 31.7704 121.602 31.4537C122.265 31.1219 123.012 30.956 123.841 30.956ZM130.624 37.4035C130.624 36.0914 130.888 34.9452 131.416 33.9649C131.959 32.9845 132.706 32.2304 133.656 31.7026C134.621 31.1747 135.722 30.9108 136.959 30.9108C138.542 30.9108 139.862 31.3255 140.918 32.155C141.989 32.9845 142.69 34.1534 143.022 35.6616H138.904C138.557 34.6963 137.886 34.2137 136.891 34.2137C136.182 34.2137 135.616 34.4927 135.194 35.0508C134.772 35.5937 134.561 36.378 134.561 37.4035C134.561 38.4291 134.772 39.2209 135.194 39.7789C135.616 40.3219 136.182 40.5933 136.891 40.5933C137.886 40.5933 138.557 40.1107 138.904 39.1455H143.022C142.69 40.6235 141.989 41.7848 140.918 42.6294C139.847 43.474 138.527 43.8963 136.959 43.8963C135.722 43.8963 134.621 43.6324 133.656 43.1045C132.706 42.5766 131.959 41.8225 131.416 40.8422C130.888 39.8619 130.624 38.7157 130.624 37.4035ZM156.991 37.1999C156.991 37.5619 156.968 37.9389 156.923 38.3311H148.168C148.228 39.1153 148.477 39.7186 148.914 40.1409C149.367 40.5481 149.917 40.7517 150.566 40.7517C151.531 40.7517 152.202 40.3445 152.579 39.5301H156.696C156.485 40.3596 156.101 41.1061 155.543 41.7697C155 42.4333 154.314 42.9537 153.484 43.3307C152.655 43.7078 151.727 43.8963 150.701 43.8963C149.465 43.8963 148.364 43.6324 147.399 43.1045C146.433 42.5766 145.679 41.8225 145.136 40.8422C144.593 39.8619 144.322 38.7157 144.322 37.4035C144.322 36.0914 144.586 34.9452 145.114 33.9649C145.657 32.9845 146.411 32.2304 147.376 31.7026C148.341 31.1747 149.45 30.9108 150.701 30.9108C151.923 30.9108 153.009 31.1672 153.959 31.68C154.909 32.1927 155.648 32.9242 156.176 33.8744C156.719 34.8245 156.991 35.933 156.991 37.1999ZM153.032 36.1819C153.032 35.5183 152.805 34.9904 152.353 34.5983C151.9 34.2062 151.335 34.0101 150.656 34.0101C150.008 34.0101 149.457 34.1986 149.005 34.5757C148.567 34.9527 148.296 35.4881 148.19 36.1819H153.032ZM164.167 43.8963C163.066 43.8963 162.085 43.7078 161.226 43.3307C160.366 42.9537 159.687 42.4409 159.19 41.7924C158.692 41.1288 158.413 40.3897 158.353 39.5753H162.176C162.221 40.0127 162.425 40.3671 162.787 40.6386C163.149 40.9101 163.594 41.0458 164.122 41.0458C164.604 41.0458 164.974 40.9553 165.23 40.7743C165.502 40.5783 165.637 40.3294 165.637 40.0278C165.637 39.6658 165.449 39.4019 165.072 39.236C164.695 39.055 164.084 38.8589 163.239 38.6478C162.334 38.4366 161.58 38.218 160.977 37.9917C160.374 37.7504 159.853 37.3809 159.416 36.8832C158.979 36.3704 158.76 35.6842 158.76 34.8245C158.76 34.1006 158.956 33.4445 159.348 32.8563C159.755 32.2531 160.344 31.778 161.113 31.4311C161.897 31.0842 162.825 30.9108 163.895 30.9108C165.479 30.9108 166.723 31.3029 167.628 32.0872C168.548 32.8714 169.076 33.9121 169.212 35.2091H165.637C165.577 34.7717 165.381 34.4249 165.049 34.1685C164.732 33.9121 164.31 33.7839 163.782 33.7839C163.33 33.7839 162.983 33.8744 162.742 34.0553C162.5 34.2213 162.38 34.455 162.38 34.7567C162.38 35.1186 162.568 35.3901 162.945 35.5711C163.337 35.7521 163.941 35.933 164.755 36.114C165.69 36.3553 166.452 36.5966 167.04 36.838C167.628 37.0642 168.141 37.4412 168.578 37.9691C169.031 38.4819 169.264 39.1757 169.28 40.0504C169.28 40.7894 169.068 41.453 168.646 42.0412C168.239 42.6143 167.643 43.0668 166.859 43.3986C166.09 43.7304 165.192 43.8963 164.167 43.8963Z" fill="#80BDF2"/>
<path d="M217.242 40.3291C217.672 39.899 217.672 39.2016 217.242 38.7715L210.233 31.7624C209.803 31.3323 209.105 31.3323 208.675 31.7624C208.245 32.1925 208.245 32.8899 208.675 33.32L214.906 39.5503L208.675 45.7806C208.245 46.2107 208.245 46.9081 208.675 47.3382C209.105 47.7683 209.803 47.7683 210.233 47.3382L217.242 40.3291ZM182.197 39.5503V40.6517H216.463V39.5503V38.4489H182.197V39.5503Z" fill="#80BDF2"/>
</svg>
