<svg width="77" height="77" viewBox="0 0 77 77" fill="none" xmlns="http://www.w3.org/2000/svg">
<path fill-rule="evenodd" clip-rule="evenodd" d="M61.7123 7.54913C61.6397 7.18661 61.4846 6.8457 61.2589 6.55284C61.0333 6.25998 60.7432 6.02306 60.4111 5.86046C60.0791 5.69785 59.7141 5.61395 59.3444 5.61525C58.9746 5.61655 58.6102 5.70302 58.2793 5.86796L56.3704 6.82083C53.1231 8.44563 50.556 11.1678 49.1242 14.5047C47.6924 17.8416 47.4885 21.5776 48.5485 25.0506L36.7995 36.7995C36.5631 37.0198 36.3735 37.2854 36.242 37.5806C36.1105 37.8758 36.0398 38.1944 36.0341 38.5175C36.0284 38.8406 36.0878 39.1615 36.2088 39.4611C36.3298 39.7607 36.51 40.0329 36.7385 40.2614C36.967 40.4899 37.2391 40.67 37.5388 40.7911C37.8384 40.9121 38.1593 40.9715 38.4824 40.9658C38.8055 40.9601 39.1241 40.8894 39.4193 40.7579C39.7144 40.6264 39.9801 40.4367 40.2004 40.2003L51.9493 28.4514C55.4222 29.5114 59.1583 29.3074 62.4952 27.8757C65.8321 26.4439 68.5543 23.8768 70.179 20.6295L71.1319 18.7205C71.2969 18.3897 71.3833 18.0252 71.3846 17.6555C71.3859 17.2858 71.302 16.9208 71.1394 16.5888C70.9768 16.2567 70.7399 15.9666 70.447 15.741C70.1542 15.5153 69.8133 15.3602 69.4508 15.2876L63.002 13.9979L61.7123 7.54913ZM65.3698 19.3783C64.1203 21.3619 62.2461 22.8732 60.0426 23.6737C57.8392 24.4743 55.4319 24.5184 53.2006 23.7993C52.4822 21.5684 52.5268 19.1619 53.3273 16.9591C54.1278 14.7563 55.6386 12.8826 57.6216 11.6333L58.6002 16.5132C58.6935 16.9787 58.9223 17.4062 59.258 17.7418C59.5937 18.0775 60.0212 18.3064 60.4867 18.3997L65.3698 19.3783Z" fill="#80BDF2"/>
<path d="M40.1588 25.58C37.4708 25.2342 34.742 25.7353 32.3523 27.0136C29.9627 28.2919 28.0313 30.2838 26.8271 32.7116C25.623 35.1395 25.206 37.8825 25.6345 40.5585C26.0629 43.2345 27.3153 45.7102 29.2172 47.6408C31.1191 49.5714 33.5759 50.8607 36.2452 51.3291C38.9144 51.7975 41.6634 51.4217 44.109 50.254C46.5546 49.0863 48.5751 47.1849 49.889 44.8146C51.2029 42.4444 51.7449 39.7233 51.4393 37.0305C51.3811 36.4038 51.5708 35.7793 51.9677 35.2908C52.3646 34.8024 52.9371 34.4888 53.5625 34.4175C54.1878 34.3461 54.8162 34.5227 55.3129 34.9092C55.8096 35.2957 56.1352 35.8614 56.2197 36.4851C56.6386 40.1728 55.8968 43.8993 54.0977 47.1456C52.2986 50.3918 49.5318 52.996 46.1827 54.5954C42.8336 56.1948 39.0691 56.7098 35.4135 56.0686C31.7579 55.4274 28.3933 53.6619 25.7885 51.0182C23.1837 48.3744 21.4683 44.984 20.8814 41.3193C20.2946 37.6546 20.8653 33.898 22.5143 30.5731C24.1633 27.2481 26.8083 24.5202 30.0808 22.7695C33.3534 21.0188 37.0905 20.3324 40.7716 20.806C41.085 20.8462 41.3875 20.9478 41.6617 21.1049C41.9359 21.2621 42.1765 21.4717 42.3697 21.7218C42.5629 21.9719 42.7049 22.2576 42.7877 22.5626C42.8705 22.8676 42.8924 23.1859 42.8522 23.4994C42.8119 23.8129 42.7103 24.1153 42.5532 24.3895C42.3961 24.6637 42.1865 24.9043 41.9364 25.0975C41.6863 25.2907 41.4006 25.4328 41.0956 25.5155C40.7905 25.5983 40.4722 25.6202 40.1588 25.58Z" fill="#80BDF2"/>
<path d="M27.3253 14.5049C32.4857 12.1021 38.2833 11.4271 43.8578 12.5799C44.1675 12.6437 44.4867 12.6459 44.7972 12.5864C45.1078 12.5268 45.4035 12.4067 45.6676 12.2329C45.9317 12.0591 46.159 11.8349 46.3365 11.5732C46.514 11.3115 46.6382 11.0175 46.702 10.7078C46.7658 10.3981 46.768 10.0789 46.7085 9.76839C46.649 9.45787 46.5289 9.1621 46.355 8.898C46.1812 8.63389 45.957 8.40661 45.6954 8.22913C45.4337 8.05165 45.1396 7.92745 44.8299 7.86362C38.2424 6.50227 31.3914 7.30072 25.2935 10.1405C19.1956 12.9803 14.1755 17.7102 10.978 23.6284C7.78048 29.5466 6.57593 36.3379 7.54302 42.9948C8.51011 49.6517 11.5973 55.8195 16.3466 60.5832C21.096 65.347 27.2544 68.4529 33.9083 69.4401C40.5623 70.4274 47.3572 69.2434 53.2851 66.0638C59.2129 62.8843 63.958 57.8786 66.8162 51.7892C69.6745 45.6999 70.4937 38.8515 69.1523 32.2598C69.0891 31.9501 68.9655 31.6559 68.7886 31.394C68.6117 31.1321 68.385 30.9076 68.1213 30.7333C67.8577 30.559 67.5623 30.4384 67.252 30.3782C66.9417 30.3181 66.6226 30.3197 66.3129 30.3829C65.6875 30.5105 65.1384 30.8814 64.7864 31.4139C64.6122 31.6775 64.4915 31.973 64.4314 32.2832C64.3713 32.5935 64.3729 32.9126 64.4361 33.2223C65.4265 38.0929 65.0255 43.1439 63.2791 47.7972C61.5327 52.4505 58.5113 56.5181 54.5609 59.5343C50.6105 62.5506 45.8907 64.3936 40.9417 64.8524C35.9927 65.3113 31.0145 64.3674 26.5769 62.1288C22.1393 59.8903 18.4216 56.4475 15.8495 52.1946C13.2773 47.9417 11.9546 43.0504 12.0327 38.0808C12.1108 33.1112 13.5865 28.264 16.291 24.094C18.9956 19.9239 22.8195 16.6029 27.3253 14.5049Z" fill="#80BDF2"/>
</svg>
