<svg width="298" height="110" viewBox="0 0 298 110" fill="none" xmlns="http://www.w3.org/2000/svg">
<g filter="url(#filter0_d_79_44)">
<rect x="1.79999" y="2.79999" width="284" height="96" rx="9" fill="white"/>
</g>
<path d="M156.457 39.97H148.917V47.6833H141.897V39.97H134.357V33.34H141.897V25.5833H148.917V33.34H156.457V39.97ZM160.18 27.0567V20.1667H172.184V51.8H164.47V27.0567H160.18ZM177.513 29.0933C177.628 26.0022 178.639 23.6189 180.546 21.9433C182.453 20.2678 185.038 19.43 188.303 19.43C190.469 19.43 192.318 19.8055 193.849 20.5567C195.409 21.3078 196.579 22.3333 197.359 23.6333C198.168 24.9333 198.573 26.3922 198.573 28.01C198.573 29.9167 198.096 31.4767 197.143 32.69C196.189 33.8744 195.077 34.6833 193.806 35.1167V35.29C195.453 35.8389 196.753 36.7489 197.706 38.02C198.659 39.2911 199.136 40.9233 199.136 42.9167C199.136 44.7078 198.717 46.2967 197.879 47.6833C197.07 49.0411 195.871 50.11 194.283 50.89C192.723 51.67 190.859 52.06 188.693 52.06C185.226 52.06 182.453 51.2078 180.373 49.5033C178.321 47.7989 177.238 45.2278 177.123 41.79H184.316C184.345 43.0611 184.706 44.0722 185.399 44.8233C186.093 45.5455 187.104 45.9067 188.433 45.9067C189.559 45.9067 190.426 45.5889 191.033 44.9533C191.668 44.2889 191.986 43.4222 191.986 42.3533C191.986 40.9667 191.538 39.97 190.643 39.3633C189.776 38.7278 188.375 38.41 186.439 38.41H185.053V32.3867H186.439C187.913 32.3867 189.097 32.1411 189.993 31.65C190.917 31.13 191.379 30.22 191.379 28.92C191.379 27.88 191.09 27.0711 190.513 26.4933C189.935 25.9155 189.14 25.6267 188.129 25.6267C187.031 25.6267 186.208 25.9589 185.659 26.6233C185.139 27.2878 184.836 28.1111 184.749 29.0933H177.513Z" fill="#5B5A5F"/>
<path d="M118.522 68.0675C118.522 67.2255 118.687 66.4887 119.018 65.8572C119.359 65.2156 119.825 64.7244 120.416 64.3836C121.018 64.0327 121.694 63.8573 122.446 63.8573C123.228 63.8573 123.9 64.0378 124.461 64.3986C125.033 64.7595 125.444 65.2206 125.694 65.782V63.9776H126.747V72.1875H125.694V70.3681C125.433 70.9295 125.017 71.3956 124.446 71.7665C123.885 72.1274 123.213 72.3078 122.431 72.3078C121.689 72.3078 121.018 72.1324 120.416 71.7815C119.825 71.4307 119.359 70.9345 119.018 70.2929C118.687 69.6514 118.522 68.9096 118.522 68.0675ZM125.694 68.0826C125.694 67.421 125.559 66.8395 125.288 66.3383C125.017 65.8371 124.647 65.4512 124.175 65.1805C123.714 64.9099 123.203 64.7745 122.642 64.7745C122.06 64.7745 121.539 64.9049 121.078 65.1655C120.617 65.4261 120.251 65.807 119.98 66.3083C119.72 66.7994 119.589 67.3859 119.589 68.0675C119.589 68.7391 119.72 69.3306 119.98 69.8418C120.251 70.343 120.617 70.729 121.078 70.9996C121.539 71.2603 122.06 71.3906 122.642 71.3906C123.203 71.3906 123.714 71.2552 124.175 70.9846C124.647 70.7139 125.017 70.328 125.288 69.8268C125.559 69.3256 125.694 68.7442 125.694 68.0826ZM132.999 63.8272C133.981 63.8272 134.783 64.133 135.405 64.7445C136.026 65.3459 136.337 66.223 136.337 67.3758V72.1875H135.299V67.4961C135.299 66.604 135.074 65.9223 134.623 65.4512C134.182 64.98 133.575 64.7445 132.803 64.7445C132.011 64.7445 131.38 64.9951 130.909 65.4963C130.438 65.9975 130.202 66.7343 130.202 67.7066V72.1875H129.15V63.9776H130.202V65.376C130.463 64.8748 130.839 64.4939 131.33 64.2332C131.821 63.9626 132.377 63.8272 132.999 63.8272ZM141.492 72.3078C140.549 72.3078 139.777 72.0923 139.176 71.6612C138.585 71.2202 138.254 70.6237 138.184 69.8719H139.266C139.316 70.333 139.532 70.7089 139.913 70.9996C140.304 71.2803 140.825 71.4206 141.477 71.4206C142.048 71.4206 142.494 71.2853 142.815 71.0147C143.146 70.744 143.311 70.4082 143.311 70.0072C143.311 69.7265 143.221 69.496 143.04 69.3155C142.86 69.1351 142.629 68.9948 142.349 68.8945C142.078 68.7843 141.707 68.669 141.236 68.5487C140.625 68.3883 140.128 68.2279 139.747 68.0675C139.366 67.9071 139.041 67.6716 138.77 67.3608C138.509 67.04 138.379 66.614 138.379 66.0827C138.379 65.6817 138.499 65.3108 138.74 64.97C138.981 64.6292 139.321 64.3585 139.762 64.158C140.204 63.9576 140.705 63.8573 141.266 63.8573C142.148 63.8573 142.86 64.0829 143.401 64.534C143.943 64.975 144.233 65.5865 144.273 66.3684H143.221C143.191 65.8872 143 65.5013 142.649 65.2106C142.309 64.9099 141.837 64.7595 141.236 64.7595C140.705 64.7595 140.274 64.8848 139.943 65.1354C139.612 65.386 139.447 65.6968 139.447 66.0677C139.447 66.3884 139.542 66.6541 139.732 66.8646C139.933 67.0651 140.178 67.2255 140.469 67.3458C140.76 67.456 141.151 67.5813 141.642 67.7217C142.233 67.8821 142.705 68.0374 143.055 68.1878C143.406 68.3382 143.707 68.5587 143.958 68.8494C144.208 69.1401 144.339 69.5261 144.349 70.0072C144.349 70.4483 144.228 70.8442 143.988 71.1951C143.747 71.5359 143.411 71.8066 142.98 72.0071C142.549 72.2075 142.053 72.3078 141.492 72.3078ZM149.975 68.0675C149.975 67.2255 150.145 66.4887 150.486 65.8572C150.827 65.2156 151.293 64.7244 151.885 64.3836C152.486 64.0327 153.163 63.8573 153.914 63.8573C154.636 63.8573 155.288 64.0327 155.869 64.3836C156.451 64.7344 156.877 65.1905 157.147 65.7519V61.0605H158.2V72.1875H157.147V70.3531C156.897 70.9244 156.486 71.3956 155.914 71.7665C155.343 72.1274 154.671 72.3078 153.899 72.3078C153.148 72.3078 152.471 72.1324 151.869 71.7815C151.278 71.4307 150.812 70.9345 150.471 70.2929C150.14 69.6514 149.975 68.9096 149.975 68.0675ZM157.147 68.0826C157.147 67.421 157.012 66.8395 156.741 66.3383C156.471 65.8371 156.1 65.4512 155.629 65.1805C155.167 64.9099 154.656 64.7745 154.095 64.7745C153.513 64.7745 152.992 64.9049 152.531 65.1655C152.07 65.4261 151.704 65.807 151.433 66.3083C151.173 66.7994 151.042 67.3859 151.042 68.0675C151.042 68.7391 151.173 69.3306 151.433 69.8418C151.704 70.343 152.07 70.729 152.531 70.9996C152.992 71.2603 153.513 71.3906 154.095 71.3906C154.656 71.3906 155.167 71.2552 155.629 70.9846C156.1 70.7139 156.471 70.328 156.741 69.8268C157.012 69.3256 157.147 68.7442 157.147 68.0826ZM160.738 61.677H161.956L160.633 64.9249H159.866L160.738 61.677ZM170.997 67.6615C170.997 68.0224 170.987 68.2981 170.967 68.4885H164.155C164.185 69.11 164.336 69.6413 164.606 70.0824C164.877 70.5235 165.233 70.8593 165.674 71.0898C166.115 71.3104 166.596 71.4206 167.117 71.4206C167.799 71.4206 168.371 71.2552 168.832 70.9244C169.303 70.5936 169.614 70.1476 169.764 69.5862H170.877C170.676 70.3881 170.245 71.0447 169.583 71.556C168.932 72.0572 168.11 72.3078 167.117 72.3078C166.346 72.3078 165.654 72.1374 165.042 71.7966C164.431 71.4457 163.95 70.9545 163.599 70.323C163.258 69.6814 163.088 68.9346 163.088 68.0826C163.088 67.2305 163.258 66.4837 163.599 65.8421C163.94 65.2006 164.416 64.7094 165.027 64.3686C165.639 64.0277 166.336 63.8573 167.117 63.8573C167.899 63.8573 168.581 64.0277 169.162 64.3686C169.754 64.7094 170.205 65.1705 170.516 65.7519C170.836 66.3233 170.997 66.9598 170.997 67.6615ZM169.929 67.6315C169.939 67.02 169.814 66.4987 169.553 66.0677C169.303 65.6366 168.957 65.3108 168.516 65.0903C168.075 64.8698 167.594 64.7595 167.072 64.7595C166.29 64.7595 165.624 65.0101 165.073 65.5113C164.521 66.0125 164.215 66.7193 164.155 67.6315H169.929ZM177.223 72.1875L175.103 68.8795L173.058 72.1875H171.945L174.592 68.0826L171.975 63.9776H173.163L175.253 67.2405L177.283 63.9776H178.381L175.764 68.0374L178.411 72.1875H177.223ZM180.876 65.782C181.137 65.2306 181.548 64.7745 182.109 64.4137C182.681 64.0428 183.357 63.8573 184.139 63.8573C184.881 63.8573 185.548 64.0327 186.139 64.3836C186.74 64.7244 187.207 65.2156 187.537 65.8572C187.878 66.4887 188.049 67.2255 188.049 68.0675C188.049 68.9096 187.878 69.6514 187.537 70.2929C187.207 70.9345 186.74 71.4307 186.139 71.7815C185.548 72.1324 184.881 72.3078 184.139 72.3078C183.367 72.3078 182.696 72.1274 182.124 71.7665C181.553 71.3956 181.137 70.9345 180.876 70.3831V76.0669H179.839V63.9776H180.876V65.782ZM186.981 68.0675C186.981 67.3859 186.846 66.7994 186.575 66.3083C186.314 65.807 185.954 65.4261 185.492 65.1655C185.031 64.9049 184.51 64.7745 183.929 64.7745C183.367 64.7745 182.851 64.9099 182.38 65.1805C181.919 65.4512 181.553 65.8371 181.282 66.3383C181.012 66.8395 180.876 67.421 180.876 68.0826C180.876 68.7442 181.012 69.3256 181.282 69.8268C181.553 70.328 181.919 70.7139 182.38 70.9846C182.851 71.2552 183.367 71.3906 183.929 71.3906C184.51 71.3906 185.031 71.2603 185.492 70.9996C185.954 70.729 186.314 70.343 186.575 69.8418C186.846 69.3306 186.981 68.7391 186.981 68.0675ZM197.413 67.6615C197.413 68.0224 197.403 68.2981 197.383 68.4885H190.572C190.602 69.11 190.752 69.6413 191.023 70.0824C191.294 70.5235 191.649 70.8593 192.091 71.0898C192.532 71.3104 193.013 71.4206 193.534 71.4206C194.216 71.4206 194.787 71.2552 195.248 70.9244C195.719 70.5936 196.03 70.1476 196.18 69.5862H197.293C197.093 70.3881 196.662 71.0447 196 71.556C195.348 72.0572 194.526 72.3078 193.534 72.3078C192.762 72.3078 192.07 72.1374 191.459 71.7966C190.848 71.4457 190.366 70.9545 190.015 70.323C189.675 69.6814 189.504 68.9346 189.504 68.0826C189.504 67.2305 189.675 66.4837 190.015 65.8421C190.356 65.2006 190.832 64.7094 191.444 64.3686C192.055 64.0277 192.752 63.8573 193.534 63.8573C194.316 63.8573 194.998 64.0277 195.579 64.3686C196.17 64.7094 196.622 65.1705 196.932 65.7519C197.253 66.3233 197.413 66.9598 197.413 67.6615ZM196.346 67.6315C196.356 67.02 196.231 66.4987 195.97 66.0677C195.719 65.6366 195.373 65.3108 194.932 65.0903C194.491 64.8698 194.01 64.7595 193.489 64.7595C192.707 64.7595 192.04 65.0101 191.489 65.5113C190.938 66.0125 190.632 66.7193 190.572 67.6315H196.346ZM194.842 61.5567L191.76 63.3461V62.5341L194.842 60.6094V61.5567ZM200.392 65.4361C200.622 64.9249 200.973 64.5289 201.444 64.2483C201.925 63.9676 202.512 63.8272 203.204 63.8272V64.9249H202.918C202.156 64.9249 201.544 65.1304 201.083 65.5414C200.622 65.9524 200.392 66.6391 200.392 67.6014V72.1875H199.339V63.9776H200.392V65.4361ZM205.313 62.4289C205.103 62.4289 204.922 62.3537 204.772 62.2033C204.622 62.0529 204.546 61.8675 204.546 61.647C204.546 61.4264 204.622 61.246 204.772 61.1057C204.922 60.9553 205.103 60.8801 205.313 60.8801C205.524 60.8801 205.704 60.9553 205.855 61.1057C206.005 61.246 206.08 61.4264 206.08 61.647C206.08 61.8675 206.005 62.0529 205.855 62.2033C205.704 62.3537 205.524 62.4289 205.313 62.4289ZM205.839 63.9776V72.1875H204.787V63.9776H205.839ZM215.651 67.6615C215.651 68.0224 215.641 68.2981 215.621 68.4885H208.809C208.839 69.11 208.99 69.6413 209.26 70.0824C209.531 70.5235 209.887 70.8593 210.328 71.0898C210.769 71.3104 211.25 71.4206 211.772 71.4206C212.453 71.4206 213.025 71.2552 213.486 70.9244C213.957 70.5936 214.268 70.1476 214.418 69.5862H215.531C215.33 70.3881 214.899 71.0447 214.238 71.556C213.586 72.0572 212.764 72.3078 211.772 72.3078C211 72.3078 210.308 72.1374 209.697 71.7966C209.085 71.4457 208.604 70.9545 208.253 70.323C207.912 69.6814 207.742 68.9346 207.742 68.0826C207.742 67.2305 207.912 66.4837 208.253 65.8421C208.594 65.2006 209.07 64.7094 209.682 64.3686C210.293 64.0277 210.99 63.8573 211.772 63.8573C212.553 63.8573 213.235 64.0277 213.817 64.3686C214.408 64.7094 214.859 65.1705 215.17 65.7519C215.491 66.3233 215.651 66.9598 215.651 67.6615ZM214.583 67.6315C214.593 67.02 214.468 66.4987 214.207 66.0677C213.957 65.6366 213.611 65.3108 213.17 65.0903C212.729 64.8698 212.248 64.7595 211.726 64.7595C210.945 64.7595 210.278 65.0101 209.727 65.5113C209.175 66.0125 208.87 66.7193 208.809 67.6315H214.583ZM221.426 63.8272C222.408 63.8272 223.21 64.133 223.832 64.7445C224.453 65.3459 224.764 66.223 224.764 67.3758V72.1875H223.727V67.4961C223.727 66.604 223.501 65.9223 223.05 65.4512C222.609 64.98 222.002 64.7445 221.231 64.7445C220.439 64.7445 219.807 64.9951 219.336 65.4963C218.865 65.9975 218.629 66.7343 218.629 67.7066V72.1875H217.577V63.9776H218.629V65.376C218.89 64.8748 219.266 64.4939 219.757 64.2332C220.248 63.9626 220.805 63.8272 221.426 63.8272ZM226.611 68.0826C226.611 67.2305 226.781 66.4887 227.122 65.8572C227.463 65.2156 227.934 64.7244 228.535 64.3836C229.137 64.0327 229.824 63.8573 230.595 63.8573C231.608 63.8573 232.44 64.1079 233.091 64.6091C233.753 65.1104 234.179 65.792 234.37 66.6541H233.242C233.101 66.0627 232.796 65.6015 232.325 65.2707C231.863 64.9299 231.287 64.7595 230.595 64.7595C230.044 64.7595 229.548 64.8848 229.107 65.1354C228.666 65.386 228.315 65.7619 228.054 66.2631C227.804 66.7543 227.678 67.3608 227.678 68.0826C227.678 68.8043 227.804 69.4158 228.054 69.917C228.315 70.4182 228.666 70.7941 229.107 71.0447C229.548 71.2953 230.044 71.4206 230.595 71.4206C231.287 71.4206 231.863 71.2552 232.325 70.9244C232.796 70.5836 233.101 70.1125 233.242 69.511H234.37C234.179 70.3531 233.753 71.0297 233.091 71.5409C232.43 72.0522 231.598 72.3078 230.595 72.3078C229.824 72.3078 229.137 72.1374 228.535 71.7966C227.934 71.4457 227.463 70.9545 227.122 70.323C226.781 69.6814 226.611 68.9346 226.611 68.0826ZM243.741 67.6615C243.741 68.0224 243.731 68.2981 243.711 68.4885H236.9C236.93 69.11 237.08 69.6413 237.351 70.0824C237.622 70.5235 237.978 70.8593 238.419 71.0898C238.86 71.3104 239.341 71.4206 239.862 71.4206C240.544 71.4206 241.115 71.2552 241.576 70.9244C242.047 70.5936 242.358 70.1476 242.508 69.5862H243.621C243.421 70.3881 242.99 71.0447 242.328 71.556C241.676 72.0572 240.854 72.3078 239.862 72.3078C239.09 72.3078 238.399 72.1374 237.787 71.7966C237.176 71.4457 236.694 70.9545 236.344 70.323C236.003 69.6814 235.832 68.9346 235.832 68.0826C235.832 67.2305 236.003 66.4837 236.344 65.8421C236.684 65.2006 237.161 64.7094 237.772 64.3686C238.384 64.0277 239.08 63.8573 239.862 63.8573C240.644 63.8573 241.326 64.0277 241.907 64.3686C242.498 64.7094 242.95 65.1705 243.26 65.7519C243.581 66.3233 243.741 66.9598 243.741 67.6615ZM242.674 67.6315C242.684 67.02 242.559 66.4987 242.298 66.0677C242.047 65.6366 241.702 65.3108 241.26 65.0903C240.819 64.8698 240.338 64.7595 239.817 64.7595C239.035 64.7595 238.368 65.0101 237.817 65.5113C237.266 66.0125 236.96 66.7193 236.9 67.6315H242.674Z" fill="#969696"/>
<defs>
<filter id="filter0_d_79_44" x="-1.23978e-05" y="-1.23978e-05" width="297.6" height="109.6" filterUnits="userSpaceOnUse" color-interpolation-filters="sRGB">
<feFlood flood-opacity="0" result="BackgroundImageFix"/>
<feColorMatrix in="SourceAlpha" type="matrix" values="0 0 0 0 0 0 0 0 0 0 0 0 0 0 0 0 0 0 127 0" result="hardAlpha"/>
<feMorphology radius="2" operator="erode" in="SourceAlpha" result="effect1_dropShadow_79_44"/>
<feOffset dx="5" dy="4"/>
<feGaussianBlur stdDeviation="4.4"/>
<feComposite in2="hardAlpha" operator="out"/>
<feColorMatrix type="matrix" values="0 0 0 0 0 0 0 0 0 0 0 0 0 0 0 0 0 0 0.25 0"/>
<feBlend mode="normal" in2="BackgroundImageFix" result="effect1_dropShadow_79_44"/>
<feBlend mode="normal" in="SourceGraphic" in2="effect1_dropShadow_79_44" result="shape"/>
</filter>
</defs>
</svg>
