<svg width="50" height="50" viewBox="0 0 50 50" fill="none" xmlns="http://www.w3.org/2000/svg">
<path d="M35 6C35 3.243 32.757 1 30 1H20C17.243 1 15 3.243 15 6V9H1V26H3V49H47V26H49V9H35V6ZM17 6C17 4.346 18.346 3 20 3H30C31.654 3 33 4.346 33 6V9H17V6ZM5 42.09C6.22603 42.2994 7.35684 42.8842 8.23632 43.7637C9.11581 44.6432 9.70061 45.774 9.91 47H5V42.09ZM40.09 47C40.2994 45.774 40.8842 44.6432 41.7637 43.7637C42.6432 42.8842 43.774 42.2994 45 42.09V47H40.09ZM45 40.069C43.2401 40.2932 41.6045 41.0955 40.35 42.35C39.0955 43.6045 38.2932 45.2401 38.069 47H11.931C11.7066 45.2402 10.9043 43.6047 9.6498 42.3502C8.39534 41.0957 6.75983 40.2934 5 40.069V26H19V32H24V34H26V32H31V26H45V40.069ZM24 28V30H21V26H29V30H26V28H24ZM47 24H3V11H47V24Z" fill="white"/>
</svg>
