<svg width="345" height="71" viewBox="0 0 345 71" fill="none" xmlns="http://www.w3.org/2000/svg">
<rect width="345" height="70.2778" rx="35.1389" fill="#80BDF2"/>
<path d="M40.0865 26.74V29.7364H36.0184V42.0941H32.2783V29.7364H28.2101V26.74H40.0865ZM45.7037 31.9236C46.1411 31.2529 46.6879 30.728 47.3441 30.3489C48.0002 29.9552 48.7293 29.7583 49.5313 29.7583V33.7171H48.5033C47.5701 33.7171 46.8702 33.9213 46.4036 34.3295C45.937 34.7232 45.7037 35.4231 45.7037 36.4292V42.0941H41.9636V29.8896H45.7037V31.9236ZM50.5753 35.9699C50.5753 34.7159 50.8086 33.6151 51.2752 32.6673C51.7564 31.7195 52.4052 30.9904 53.2218 30.4801C54.0383 29.9697 54.9497 29.7146 55.9558 29.7146C56.8161 29.7146 57.567 29.8895 58.2086 30.2395C58.8647 30.5895 59.3678 31.0488 59.7177 31.6174V29.8896H63.4578V42.0941H59.7177V40.3662C59.3532 40.9348 58.8429 41.3942 58.1867 41.7441C57.5451 42.0941 56.7942 42.269 55.9339 42.269C54.9424 42.269 54.0383 42.0139 53.2218 41.5035C52.4052 40.9786 51.7564 40.2422 51.2752 39.2945C50.8086 38.3321 50.5753 37.2239 50.5753 35.9699ZM59.7177 35.9918C59.7177 35.0586 59.4553 34.3222 58.9303 33.7827C58.42 33.2432 57.793 32.9735 57.0494 32.9735C56.3057 32.9735 55.6714 33.2432 55.1465 33.7827C54.6362 34.3077 54.381 35.0367 54.381 35.9699C54.381 36.9031 54.6362 37.6468 55.1465 38.2009C55.6714 38.7404 56.3057 39.0101 57.0494 39.0101C57.793 39.0101 58.42 38.7404 58.9303 38.2009C59.4553 37.6614 59.7177 36.925 59.7177 35.9918ZM71.6535 38.5946L74.2999 29.8896H78.2806L73.95 42.0941H69.335L65.0044 29.8896H69.007L71.6535 38.5946ZM79.1112 35.9699C79.1112 34.7159 79.3445 33.6151 79.8111 32.6673C80.2923 31.7195 80.9412 30.9904 81.7577 30.4801C82.5743 29.9697 83.4856 29.7146 84.4917 29.7146C85.352 29.7146 86.103 29.8895 86.7445 30.2395C87.4007 30.5895 87.9037 31.0488 88.2537 31.6174V29.8896H91.9938V42.0941H88.2537V40.3662C87.8892 40.9348 87.3788 41.3942 86.7227 41.7441C86.0811 42.0941 85.3302 42.269 84.4699 42.269C83.4783 42.269 82.5743 42.0139 81.7577 41.5035C80.9412 40.9786 80.2923 40.2422 79.8111 39.2945C79.3445 38.3321 79.1112 37.2239 79.1112 35.9699ZM88.2537 35.9918C88.2537 35.0586 87.9912 34.3222 87.4663 33.7827C86.956 33.2432 86.329 32.9735 85.5853 32.9735C84.8417 32.9735 84.2074 33.2432 83.6825 33.7827C83.1721 34.3077 82.917 35.0367 82.917 35.9699C82.917 36.9031 83.1721 37.6468 83.6825 38.2009C84.2074 38.7404 84.8417 39.0101 85.5853 39.0101C86.329 39.0101 86.956 38.7404 87.4663 38.2009C87.9912 37.6614 88.2537 36.925 88.2537 35.9918ZM96.5806 28.621C95.9244 28.621 95.3849 28.4314 94.962 28.0523C94.5538 27.6586 94.3496 27.1774 94.3496 26.6088C94.3496 26.0255 94.5538 25.5443 94.962 25.1652C95.3849 24.7715 95.9244 24.5747 96.5806 24.5747C97.2221 24.5747 97.7471 24.7715 98.1553 25.1652C98.5782 25.5443 98.7896 26.0255 98.7896 26.6088C98.7896 27.1774 98.5782 27.6586 98.1553 28.0523C97.7471 28.4314 97.2221 28.621 96.5806 28.621ZM98.4397 29.8896V42.0941H94.6996V29.8896H98.4397ZM104.89 25.9089V42.0941H101.15V25.9089H104.89ZM111.341 25.9089V42.0941H107.601V25.9089H111.341ZM119.607 42.269C118.411 42.269 117.332 42.0139 116.369 41.5035C115.422 40.9932 114.671 40.2641 114.117 39.3163C113.577 38.3685 113.307 37.2604 113.307 35.9918C113.307 34.7378 113.584 33.6369 114.139 32.6892C114.693 31.7268 115.451 30.9904 116.413 30.4801C117.376 29.9697 118.455 29.7146 119.65 29.7146C120.846 29.7146 121.925 29.9697 122.887 30.4801C123.85 30.9904 124.608 31.7268 125.162 32.6892C125.716 33.6369 125.993 34.7378 125.993 35.9918C125.993 37.2458 125.709 38.354 125.14 39.3163C124.586 40.2641 123.82 40.9932 122.844 41.5035C121.881 42.0139 120.802 42.269 119.607 42.269ZM119.607 39.032C120.321 39.032 120.926 38.7695 121.422 38.2446C121.932 37.7197 122.187 36.9687 122.187 35.9918C122.187 35.0149 121.94 34.2639 121.444 33.739C120.963 33.2141 120.365 32.9516 119.65 32.9516C118.921 32.9516 118.316 33.2141 117.835 33.739C117.354 34.2493 117.113 35.0003 117.113 35.9918C117.113 36.9687 117.346 37.7197 117.813 38.2446C118.294 38.7695 118.892 39.032 119.607 39.032ZM135.414 29.7583C136.843 29.7583 137.98 30.2249 138.826 31.1581C139.686 32.0767 140.116 33.3453 140.116 34.9638V42.0941H136.398V35.4669C136.398 34.6503 136.187 34.016 135.764 33.564C135.341 33.112 134.772 32.886 134.058 32.886C133.343 32.886 132.775 33.112 132.352 33.564C131.929 34.016 131.717 34.6503 131.717 35.4669V42.0941H127.977V29.8896H131.717V31.5081C132.096 30.9686 132.607 30.5457 133.248 30.2395C133.89 29.9187 134.612 29.7583 135.414 29.7583ZM147.68 42.269C146.616 42.269 145.668 42.0868 144.837 41.7222C144.006 41.3577 143.349 40.8619 142.868 40.2349C142.387 39.5934 142.117 38.8789 142.059 38.0915H145.755C145.799 38.5144 145.996 38.857 146.346 39.1195C146.696 39.3819 147.126 39.5132 147.636 39.5132C148.103 39.5132 148.46 39.4257 148.708 39.2507C148.971 39.0612 149.102 38.8206 149.102 38.5289C149.102 38.179 148.919 37.9238 148.555 37.7634C148.19 37.5884 147.6 37.3989 146.783 37.1948C145.908 36.9906 145.179 36.7792 144.596 36.5605C144.013 36.3272 143.51 35.9699 143.087 35.4887C142.664 34.993 142.453 34.3295 142.453 33.4984C142.453 32.7985 142.642 32.1642 143.021 31.5956C143.415 31.0123 143.984 30.553 144.727 30.2176C145.486 29.8823 146.382 29.7146 147.418 29.7146C148.949 29.7146 150.152 30.0937 151.026 30.8519C151.916 31.6101 152.426 32.6162 152.558 33.8702H149.102C149.043 33.4474 148.854 33.112 148.533 32.8641C148.227 32.6162 147.819 32.4923 147.308 32.4923C146.871 32.4923 146.535 32.5798 146.302 32.7548C146.069 32.9152 145.952 33.1412 145.952 33.4328C145.952 33.7827 146.134 34.0452 146.499 34.2202C146.878 34.3952 147.461 34.5701 148.249 34.7451C149.153 34.9784 149.889 35.2117 150.458 35.445C151.026 35.6637 151.522 36.0283 151.945 36.5386C152.383 37.0344 152.609 37.7051 152.623 38.5508C152.623 39.2653 152.419 39.9069 152.011 40.4755C151.617 41.0296 151.041 41.4671 150.283 41.7878C149.539 42.1086 148.672 42.269 147.68 42.269ZM171.051 35.795C171.051 36.1449 171.029 36.5094 170.985 36.8885H162.521C162.579 37.6468 162.82 38.23 163.243 38.6383C163.68 39.032 164.212 39.2288 164.839 39.2288C165.772 39.2288 166.421 38.8351 166.786 38.0478H170.767C170.562 38.8497 170.191 39.5715 169.651 40.2131C169.126 40.8546 168.463 41.3577 167.661 41.7222C166.859 42.0868 165.962 42.269 164.97 42.269C163.775 42.269 162.71 42.0139 161.777 41.5035C160.844 40.9932 160.115 40.2641 159.59 39.3163C159.065 38.3685 158.803 37.2604 158.803 35.9918C158.803 34.7232 159.058 33.6151 159.568 32.6673C160.093 31.7195 160.822 30.9904 161.755 30.4801C162.689 29.9697 163.76 29.7146 164.97 29.7146C166.152 29.7146 167.201 29.9625 168.12 30.4582C169.039 30.954 169.753 31.6612 170.263 32.5798C170.788 33.4984 171.051 34.5701 171.051 35.795ZM167.223 34.8107C167.223 34.1691 167.005 33.6588 166.567 33.2797C166.13 32.9006 165.583 32.711 164.927 32.711C164.3 32.711 163.768 32.8933 163.33 33.2578C162.907 33.6223 162.645 34.14 162.543 34.8107H167.223ZM180.46 29.7583C181.889 29.7583 183.027 30.2249 183.872 31.1581C184.733 32.0767 185.163 33.3453 185.163 34.9638V42.0941H181.445V35.4669C181.445 34.6503 181.233 34.016 180.81 33.564C180.387 33.112 179.819 32.886 179.104 32.886C178.39 32.886 177.821 33.112 177.398 33.564C176.975 34.016 176.764 34.6503 176.764 35.4669V42.0941H173.024V29.8896H176.764V31.5081C177.143 30.9686 177.653 30.5457 178.295 30.2395C178.937 29.9187 179.658 29.7583 180.46 29.7583ZM192.727 42.269C191.662 42.269 190.715 42.0868 189.883 41.7222C189.052 41.3577 188.396 40.8619 187.915 40.2349C187.434 39.5934 187.164 38.8789 187.106 38.0915H190.802C190.846 38.5144 191.043 38.857 191.393 39.1195C191.742 39.3819 192.173 39.5132 192.683 39.5132C193.15 39.5132 193.507 39.4257 193.755 39.2507C194.017 39.0612 194.148 38.8206 194.148 38.5289C194.148 38.179 193.966 37.9238 193.602 37.7634C193.237 37.5884 192.647 37.3989 191.83 37.1948C190.955 36.9906 190.226 36.7792 189.643 36.5605C189.06 36.3272 188.556 35.9699 188.134 35.4887C187.711 34.993 187.499 34.3295 187.499 33.4984C187.499 32.7985 187.689 32.1642 188.068 31.5956C188.462 31.0123 189.03 30.553 189.774 30.2176C190.532 29.8823 191.429 29.7146 192.464 29.7146C193.995 29.7146 195.198 30.0937 196.073 30.8519C196.963 31.6101 197.473 32.6162 197.604 33.8702H194.148C194.09 33.4474 193.901 33.112 193.58 32.8641C193.274 32.6162 192.865 32.4923 192.355 32.4923C191.917 32.4923 191.582 32.5798 191.349 32.7548C191.116 32.9152 190.999 33.1412 190.999 33.4328C190.999 33.7827 191.181 34.0452 191.546 34.2202C191.925 34.3952 192.508 34.5701 193.295 34.7451C194.199 34.9784 194.936 35.2117 195.504 35.445C196.073 35.6637 196.569 36.0283 196.992 36.5386C197.429 37.0344 197.655 37.7051 197.67 38.5508C197.67 39.2653 197.466 39.9069 197.057 40.4755C196.664 41.0296 196.088 41.4671 195.329 41.7878C194.586 42.1086 193.718 42.269 192.727 42.269ZM211.463 35.795C211.463 36.1449 211.441 36.5094 211.397 36.8885H202.933C202.991 37.6468 203.231 38.23 203.654 38.6383C204.092 39.032 204.624 39.2288 205.251 39.2288C206.184 39.2288 206.833 38.8351 207.198 38.0478H211.178C210.974 38.8497 210.602 39.5715 210.063 40.2131C209.538 40.8546 208.874 41.3577 208.072 41.7222C207.27 42.0868 206.374 42.269 205.382 42.269C204.187 42.269 203.122 42.0139 202.189 41.5035C201.256 40.9932 200.527 40.2641 200.002 39.3163C199.477 38.3685 199.214 37.2604 199.214 35.9918C199.214 34.7232 199.469 33.6151 199.98 32.6673C200.505 31.7195 201.234 30.9904 202.167 30.4801C203.1 29.9697 204.172 29.7146 205.382 29.7146C206.563 29.7146 207.613 29.9625 208.532 30.4582C209.45 30.954 210.165 31.6612 210.675 32.5798C211.2 33.4984 211.463 34.5701 211.463 35.795ZM207.635 34.8107C207.635 34.1691 207.416 33.6588 206.979 33.2797C206.541 32.9006 205.995 32.711 205.338 32.711C204.711 32.711 204.179 32.8933 203.742 33.2578C203.319 33.6223 203.056 34.14 202.954 34.8107H207.635ZM229.008 29.7583C230.525 29.7583 231.728 30.2176 232.617 31.1362C233.521 32.0549 233.973 33.3307 233.973 34.9638V42.0941H230.255V35.4669C230.255 34.6795 230.044 34.0744 229.621 33.6515C229.213 33.2141 228.644 32.9954 227.915 32.9954C227.186 32.9954 226.61 33.2141 226.187 33.6515C225.779 34.0744 225.575 34.6795 225.575 35.4669V42.0941H221.856V35.4669C221.856 34.6795 221.645 34.0744 221.222 33.6515C220.814 33.2141 220.245 32.9954 219.516 32.9954C218.787 32.9954 218.211 33.2141 217.788 33.6515C217.38 34.0744 217.176 34.6795 217.176 35.4669V42.0941H213.436V29.8896H217.176V31.4206C217.555 30.9102 218.051 30.5093 218.663 30.2176C219.275 29.9114 219.968 29.7583 220.741 29.7583C221.659 29.7583 222.476 29.9552 223.191 30.3489C223.92 30.7426 224.488 31.3039 224.897 32.033C225.319 31.3623 225.895 30.8155 226.624 30.3926C227.353 29.9697 228.148 29.7583 229.008 29.7583ZM240.329 31.6174C240.679 31.0488 241.182 30.5895 241.838 30.2395C242.494 29.8895 243.245 29.7146 244.091 29.7146C245.097 29.7146 246.009 29.9697 246.825 30.4801C247.642 30.9904 248.283 31.7195 248.75 32.6673C249.231 33.6151 249.472 34.7159 249.472 35.9699C249.472 37.2239 249.231 38.3321 248.75 39.2945C248.283 40.2422 247.642 40.9786 246.825 41.5035C246.009 42.0139 245.097 42.269 244.091 42.269C243.231 42.269 242.48 42.1013 241.838 41.766C241.197 41.416 240.694 40.9567 240.329 40.388V42.0941H236.589V25.9089H240.329V31.6174ZM245.666 35.9699C245.666 35.0367 245.403 34.3077 244.879 33.7827C244.368 33.2432 243.734 32.9735 242.976 32.9735C242.232 32.9735 241.598 33.2432 241.073 33.7827C240.562 34.3222 240.307 35.0586 240.307 35.9918C240.307 36.925 240.562 37.6614 241.073 38.2009C241.598 38.7404 242.232 39.0101 242.976 39.0101C243.719 39.0101 244.354 38.7404 244.879 38.2009C245.403 37.6468 245.666 36.9031 245.666 35.9699ZM255.174 25.9089V42.0941H251.434V25.9089H255.174ZM269.389 35.795C269.389 36.1449 269.367 36.5094 269.323 36.8885H260.859C260.917 37.6468 261.158 38.23 261.581 38.6383C262.018 39.032 262.55 39.2288 263.177 39.2288C264.11 39.2288 264.759 38.8351 265.124 38.0478H269.105C268.9 38.8497 268.529 39.5715 267.989 40.2131C267.464 40.8546 266.801 41.3577 265.999 41.7222C265.197 42.0868 264.3 42.269 263.308 42.269C262.113 42.269 261.048 42.0139 260.115 41.5035C259.182 40.9932 258.453 40.2641 257.928 39.3163C257.403 38.3685 257.141 37.2604 257.141 35.9918C257.141 34.7232 257.396 33.6151 257.906 32.6673C258.431 31.7195 259.16 30.9904 260.093 30.4801C261.026 29.9697 262.098 29.7146 263.308 29.7146C264.49 29.7146 265.539 29.9625 266.458 30.4582C267.377 30.954 268.091 31.6612 268.601 32.5798C269.126 33.4984 269.389 34.5701 269.389 35.795ZM265.561 34.8107C265.561 34.1691 265.343 33.6588 264.905 33.2797C264.468 32.9006 263.921 32.711 263.265 32.711C262.638 32.711 262.106 32.8933 261.668 33.2578C261.245 33.6223 260.983 34.14 260.881 34.8107H265.561Z" fill="white"/>
<path d="M310.489 26.5245C310.489 25.9364 310.013 25.4596 309.425 25.4596L299.841 25.4596C299.253 25.4596 298.776 25.9364 298.776 26.5245C298.776 27.1125 299.253 27.5893 299.841 27.5893H308.36V36.1078C308.36 36.6959 308.837 37.1726 309.425 37.1726C310.013 37.1726 310.489 36.6959 310.489 36.1078L310.489 26.5245ZM285.999 49.9504L286.752 50.7033L310.178 27.2774L309.425 26.5245L308.672 25.7715L285.246 49.1974L285.999 49.9504Z" fill="white"/>
</svg>
