<svg width="233" height="70" viewBox="0 0 233 70" fill="none" xmlns="http://www.w3.org/2000/svg">
<rect width="233" height="70" rx="35" fill="#80BDF2"/>
<path d="M48.1862 42.0941L44.9929 36.298H44.0961V42.0941H40.3561V26.74H46.6333C47.8435 26.74 48.8715 26.9514 49.7172 27.3743C50.5775 27.7971 51.2191 28.3804 51.6419 29.124C52.0648 29.8531 52.2762 30.6696 52.2762 31.5737C52.2762 32.5944 51.9846 33.5057 51.4014 34.3077C50.8327 35.1096 49.987 35.6783 48.8642 36.0137L52.4075 42.0941H48.1862ZM44.0961 33.6515H46.4146C47.0999 33.6515 47.6102 33.4838 47.9456 33.1485C48.2955 32.8131 48.4705 32.3392 48.4705 31.7268C48.4705 31.1435 48.2955 30.6842 47.9456 30.3489C47.6102 30.0135 47.0999 29.8458 46.4146 29.8458H44.0961V33.6515ZM66.1286 35.795C66.1286 36.1449 66.1068 36.5094 66.063 36.8885H57.5986C57.6569 37.6468 57.8975 38.23 58.3204 38.6383C58.7578 39.032 59.29 39.2288 59.917 39.2288C60.8502 39.2288 61.4991 38.8351 61.8636 38.0478H65.8443C65.6402 38.8497 65.2683 39.5715 64.7288 40.2131C64.2039 40.8546 63.5405 41.3577 62.7385 41.7222C61.9365 42.0868 61.0398 42.269 60.0483 42.269C58.8526 42.269 57.7882 42.0139 56.855 41.5035C55.9218 40.9932 55.1927 40.2641 54.6678 39.3163C54.1429 38.3685 53.8804 37.2604 53.8804 35.9918C53.8804 34.7232 54.1356 33.6151 54.6459 32.6673C55.1708 31.7195 55.8999 30.9904 56.8331 30.4801C57.7663 29.9697 58.838 29.7146 60.0483 29.7146C61.2293 29.7146 62.2792 29.9625 63.1978 30.4582C64.1164 30.954 64.8309 31.6612 65.3413 32.5798C65.8662 33.4984 66.1286 34.5701 66.1286 35.795ZM62.3011 34.8107C62.3011 34.1691 62.0823 33.6588 61.6449 33.2797C61.2075 32.9006 60.6607 32.711 60.0045 32.711C59.3775 32.711 58.8453 32.8933 58.4079 33.2578C57.985 33.6223 57.7226 34.14 57.6205 34.8107H62.3011ZM62.5635 26.7619L57.2924 28.9709V26.39L62.5635 23.8529V26.7619ZM74.2258 32.9954H72.2136V42.0941H68.4735V32.9954H67.1175V29.8896H68.4735V29.5396C68.4735 28.0377 68.9037 26.9004 69.764 26.1276C70.6243 25.3402 71.8856 24.9465 73.5478 24.9465C73.8249 24.9465 74.029 24.9538 74.1602 24.9684V28.1398C73.4458 28.0961 72.9427 28.1981 72.6511 28.446C72.3594 28.6939 72.2136 29.1386 72.2136 29.7802V29.8896H74.2258V32.9954ZM87.4879 35.795C87.4879 36.1449 87.466 36.5094 87.4223 36.8885H78.9579C79.0162 37.6468 79.2568 38.23 79.6796 38.6383C80.1171 39.032 80.6493 39.2288 81.2763 39.2288C82.2095 39.2288 82.8583 38.8351 83.2229 38.0478H87.2036C86.9994 38.8497 86.6276 39.5715 86.0881 40.2131C85.5632 40.8546 84.8997 41.3577 84.0977 41.7222C83.2958 42.0868 82.399 42.269 81.4075 42.269C80.2118 42.269 79.1474 42.0139 78.2142 41.5035C77.281 40.9932 76.552 40.2641 76.027 39.3163C75.5021 38.3685 75.2396 37.2604 75.2396 35.9918C75.2396 34.7232 75.4948 33.6151 76.0052 32.6673C76.5301 31.7195 77.2591 30.9904 78.1923 30.4801C79.1255 29.9697 80.1973 29.7146 81.4075 29.7146C82.5886 29.7146 83.6384 29.9625 84.5571 30.4582C85.4757 30.954 86.1902 31.6612 86.7005 32.5798C87.2254 33.4984 87.4879 34.5701 87.4879 35.795ZM83.6603 34.8107C83.6603 34.1691 83.4416 33.6588 83.0042 33.2797C82.5667 32.9006 82.0199 32.711 81.3638 32.711C80.7368 32.711 80.2046 32.8933 79.7671 33.2578C79.3443 33.6223 79.0818 34.14 78.9797 34.8107H83.6603ZM83.9228 26.7619L78.6517 28.9709V26.39L83.9228 23.8529V26.7619ZM93.2011 31.9236C93.6385 31.2529 94.1853 30.728 94.8415 30.3489C95.4976 29.9552 96.2267 29.7583 97.0286 29.7583V33.7171H96.0007C95.0675 33.7171 94.3676 33.9213 93.901 34.3295C93.4344 34.7232 93.2011 35.4231 93.2011 36.4292V42.0941H89.461V29.8896H93.2011V31.9236ZM110.321 35.795C110.321 36.1449 110.299 36.5094 110.255 36.8885H101.791C101.849 37.6468 102.09 38.23 102.513 38.6383C102.95 39.032 103.482 39.2288 104.109 39.2288C105.043 39.2288 105.691 38.8351 106.056 38.0478H110.037C109.832 38.8497 109.461 39.5715 108.921 40.2131C108.396 40.8546 107.733 41.3577 106.931 41.7222C106.129 42.0868 105.232 42.269 104.241 42.269C103.045 42.269 101.98 42.0139 101.047 41.5035C100.114 40.9932 99.385 40.2641 98.8601 39.3163C98.3351 38.3685 98.0727 37.2604 98.0727 35.9918C98.0727 34.7232 98.3279 33.6151 98.8382 32.6673C99.3631 31.7195 100.092 30.9904 101.025 30.4801C101.959 29.9697 103.03 29.7146 104.241 29.7146C105.422 29.7146 106.471 29.9625 107.39 30.4582C108.309 30.954 109.023 31.6612 109.534 32.5798C110.058 33.4984 110.321 34.5701 110.321 35.795ZM106.493 34.8107C106.493 34.1691 106.275 33.6588 105.837 33.2797C105.4 32.9006 104.853 32.711 104.197 32.711C103.57 32.711 103.038 32.8933 102.6 33.2578C102.177 33.6223 101.915 34.14 101.813 34.8107H106.493ZM119.73 29.7583C121.159 29.7583 122.297 30.2249 123.142 31.1581C124.003 32.0767 124.433 33.3453 124.433 34.9638V42.0941H120.715V35.4669C120.715 34.6503 120.503 34.016 120.08 33.564C119.658 33.112 119.089 32.886 118.374 32.886C117.66 32.886 117.091 33.112 116.668 33.564C116.246 34.016 116.034 34.6503 116.034 35.4669V42.0941H112.294V29.8896H116.034V31.5081C116.413 30.9686 116.924 30.5457 117.565 30.2395C118.207 29.9187 118.928 29.7583 119.73 29.7583ZM126.288 35.9918C126.288 34.7232 126.543 33.6151 127.054 32.6673C127.579 31.7195 128.3 30.9904 129.219 30.4801C130.152 29.9697 131.217 29.7146 132.412 29.7146C133.943 29.7146 135.219 30.1156 136.24 30.9175C137.275 31.7195 137.953 32.8495 138.274 34.3077H134.293C133.958 33.3745 133.309 32.9079 132.347 32.9079C131.661 32.9079 131.115 33.1776 130.706 33.7171C130.298 34.2421 130.094 35.0003 130.094 35.9918C130.094 36.9833 130.298 37.7488 130.706 38.2883C131.115 38.8133 131.661 39.0757 132.347 39.0757C133.309 39.0757 133.958 38.6091 134.293 37.6759H138.274C137.953 39.1049 137.275 40.2277 136.24 41.0442C135.205 41.8608 133.929 42.269 132.412 42.269C131.217 42.269 130.152 42.0139 129.219 41.5035C128.3 40.9932 127.579 40.2641 127.054 39.3163C126.543 38.3685 126.288 37.2604 126.288 35.9918ZM151.779 35.795C151.779 36.1449 151.757 36.5094 151.714 36.8885H143.249C143.308 37.6468 143.548 38.23 143.971 38.6383C144.408 39.032 144.941 39.2288 145.568 39.2288C146.501 39.2288 147.15 38.8351 147.514 38.0478H151.495C151.291 38.8497 150.919 39.5715 150.379 40.2131C149.855 40.8546 149.191 41.3577 148.389 41.7222C147.587 42.0868 146.69 42.269 145.699 42.269C144.503 42.269 143.439 42.0139 142.506 41.5035C141.572 40.9932 140.843 40.2641 140.318 39.3163C139.793 38.3685 139.531 37.2604 139.531 35.9918C139.531 34.7232 139.786 33.6151 140.296 32.6673C140.821 31.7195 141.55 30.9904 142.484 30.4801C143.417 29.9697 144.489 29.7146 145.699 29.7146C146.88 29.7146 147.93 29.9625 148.848 30.4582C149.767 30.954 150.482 31.6612 150.992 32.5798C151.517 33.4984 151.779 34.5701 151.779 35.795ZM147.952 34.8107C147.952 34.1691 147.733 33.6588 147.295 33.2797C146.858 32.9006 146.311 32.711 145.655 32.711C145.028 32.711 144.496 32.8933 144.058 33.2578C143.636 33.6223 143.373 34.14 143.271 34.8107H147.952ZM158.717 42.269C157.653 42.269 156.705 42.0868 155.874 41.7222C155.043 41.3577 154.387 40.8619 153.905 40.2349C153.424 39.5934 153.154 38.8789 153.096 38.0915H156.793C156.836 38.5144 157.033 38.857 157.383 39.1195C157.733 39.3819 158.163 39.5132 158.673 39.5132C159.14 39.5132 159.497 39.4257 159.745 39.2507C160.008 39.0612 160.139 38.8206 160.139 38.5289C160.139 38.179 159.957 37.9238 159.592 37.7634C159.228 37.5884 158.637 37.3989 157.82 37.1948C156.946 36.9906 156.217 36.7792 155.633 36.5605C155.05 36.3272 154.547 35.9699 154.124 35.4887C153.701 34.993 153.49 34.3295 153.49 33.4984C153.49 32.7985 153.679 32.1642 154.059 31.5956C154.452 31.0123 155.021 30.553 155.765 30.2176C156.523 29.8823 157.419 29.7146 158.455 29.7146C159.986 29.7146 161.189 30.0937 162.064 30.8519C162.953 31.6101 163.463 32.6162 163.595 33.8702H160.139C160.081 33.4474 159.891 33.112 159.57 32.8641C159.264 32.6162 158.856 32.4923 158.345 32.4923C157.908 32.4923 157.573 32.5798 157.339 32.7548C157.106 32.9152 156.989 33.1412 156.989 33.4328C156.989 33.7827 157.172 34.0452 157.536 34.2202C157.915 34.3952 158.499 34.5701 159.286 34.7451C160.19 34.9784 160.926 35.2117 161.495 35.445C162.064 35.6637 162.559 36.0283 162.982 36.5386C163.42 37.0344 163.646 37.7051 163.66 38.5508C163.66 39.2653 163.456 39.9069 163.048 40.4755C162.654 41.0296 162.078 41.4671 161.32 41.7878C160.576 42.1086 159.709 42.269 158.717 42.269Z" fill="white"/>
<path d="M205.491 26.5245C205.491 25.9364 205.014 25.4596 204.426 25.4596L194.843 25.4596C194.255 25.4596 193.778 25.9364 193.778 26.5245C193.778 27.1125 194.255 27.5893 194.843 27.5893H203.361V36.1078C203.361 36.6959 203.838 37.1726 204.426 37.1726C205.014 37.1726 205.491 36.6959 205.491 36.1078L205.491 26.5245ZM181 49.9504L181.753 50.7033L205.179 27.2774L204.426 26.5245L203.673 25.7715L180.247 49.1974L181 49.9504Z" fill="white"/>
</svg>
