<svg width="359" height="74" viewBox="0 0 359 74" fill="none" xmlns="http://www.w3.org/2000/svg">
<rect x="1.5" y="1.5" width="356" height="70.1296" rx="35.0648" stroke="#80BDF2" stroke-width="3"/>
<path d="M41.7133 27.8512V30.9692H37.48V43.8283H33.5881V30.9692H29.3549V27.8512H41.7133ZM47.5583 33.2452C48.0135 32.5472 48.5825 32.001 49.2653 31.6065C49.9481 31.1968 50.7067 30.992 51.5412 30.992V35.1114H50.4715C49.5005 35.1114 48.7722 35.3239 48.2866 35.7487C47.8011 36.1584 47.5583 36.8867 47.5583 37.9336V43.8283H43.6665V31.1285H47.5583V33.2452ZM52.6276 37.4557C52.6276 36.1508 52.8704 35.0052 53.3559 34.019C53.8566 33.0328 54.5318 32.2741 55.3815 31.7431C56.2312 31.212 57.1795 30.9465 58.2265 30.9465C59.1217 30.9465 59.9031 31.1285 60.5707 31.4927C61.2535 31.8568 61.7769 32.3348 62.1411 32.9265V31.1285H66.0329V43.8283H62.1411V42.0303C61.7618 42.6221 61.2307 43.1 60.5479 43.4642C59.8803 43.8283 59.0989 44.0104 58.2037 44.0104C57.1719 44.0104 56.2312 43.7449 55.3815 43.2138C54.5318 42.6676 53.8566 41.9013 53.3559 40.9151C52.8704 39.9137 52.6276 38.7605 52.6276 37.4557ZM62.1411 37.4784C62.1411 36.5074 61.868 35.7411 61.3217 35.1797C60.7907 34.6183 60.1383 34.3376 59.3644 34.3376C58.5906 34.3376 57.9306 34.6183 57.3844 35.1797C56.8533 35.726 56.5878 36.4846 56.5878 37.4557C56.5878 38.4267 56.8533 39.2006 57.3844 39.7771C57.9306 40.3385 58.5906 40.6192 59.3644 40.6192C60.1383 40.6192 60.7907 40.3385 61.3217 39.7771C61.868 39.2157 62.1411 38.4495 62.1411 37.4784ZM74.5611 40.1868L77.315 31.1285H81.4573L76.9509 43.8283H72.1486L67.6423 31.1285H71.8073L74.5611 40.1868ZM82.3216 37.4557C82.3216 36.1508 82.5643 35.0052 83.0499 34.019C83.5506 33.0328 84.2258 32.2741 85.0755 31.7431C85.9252 31.212 86.8735 30.9465 87.9204 30.9465C88.8156 30.9465 89.597 31.1285 90.2646 31.4927C90.9474 31.8568 91.4709 32.3348 91.835 32.9265V31.1285H95.7269V43.8283H91.835V42.0303C91.4557 42.6221 90.9246 43.1 90.2419 43.4642C89.5742 43.8283 88.7928 44.0104 87.8976 44.0104C86.8659 44.0104 85.9252 43.7449 85.0755 43.2138C84.2258 42.6676 83.5506 41.9013 83.0499 40.9151C82.5643 39.9137 82.3216 38.7605 82.3216 37.4557ZM91.835 37.4784C91.835 36.5074 91.5619 35.7411 91.0157 35.1797C90.4846 34.6183 89.8322 34.3376 89.0584 34.3376C88.2845 34.3376 87.6245 34.6183 87.0783 35.1797C86.5472 35.726 86.2817 36.4846 86.2817 37.4557C86.2817 38.4267 86.5472 39.2006 87.0783 39.7771C87.6245 40.3385 88.2845 40.6192 89.0584 40.6192C89.8322 40.6192 90.4846 40.3385 91.0157 39.7771C91.5619 39.2157 91.835 38.4495 91.835 37.4784ZM100.5 29.8085C99.817 29.8085 99.2556 29.6113 98.8156 29.2168C98.3907 28.8071 98.1783 28.3064 98.1783 27.7146C98.1783 27.1077 98.3907 26.607 98.8156 26.2125C99.2556 25.8028 99.817 25.598 100.5 25.598C101.167 25.598 101.714 25.8028 102.138 26.2125C102.578 26.607 102.798 27.1077 102.798 27.7146C102.798 28.3064 102.578 28.8071 102.138 29.2168C101.714 29.6113 101.167 29.8085 100.5 29.8085ZM102.434 31.1285V43.8283H98.5425V31.1285H102.434ZM109.147 26.9863V43.8283H105.255V26.9863H109.147ZM115.859 26.9863V43.8283H111.967V26.9863H115.859ZM124.46 44.0104C123.216 44.0104 122.093 43.7449 121.092 43.2138C120.105 42.6828 119.324 41.9241 118.748 40.9379C118.186 39.9516 117.905 38.7985 117.905 37.4784C117.905 36.1736 118.194 35.028 118.77 34.0418C119.347 33.0403 120.136 32.2741 121.137 31.7431C122.139 31.212 123.261 30.9465 124.506 30.9465C125.75 30.9465 126.873 31.212 127.874 31.7431C128.875 32.2741 129.664 33.0403 130.241 34.0418C130.818 35.028 131.106 36.1736 131.106 37.4784C131.106 38.7833 130.81 39.9364 130.218 40.9379C129.642 41.9241 128.845 42.6828 127.829 43.2138C126.827 43.7449 125.704 44.0104 124.46 44.0104ZM124.46 40.642C125.204 40.642 125.833 40.3689 126.349 39.8226C126.88 39.2764 127.146 38.495 127.146 37.4784C127.146 36.4618 126.888 35.6804 126.372 35.1342C125.871 34.588 125.249 34.3149 124.506 34.3149C123.747 34.3149 123.117 34.588 122.617 35.1342C122.116 35.6653 121.866 36.4467 121.866 37.4784C121.866 38.495 122.108 39.2764 122.594 39.8226C123.095 40.3689 123.717 40.642 124.46 40.642ZM140.909 30.992C142.396 30.992 143.579 31.4775 144.459 32.4486C145.354 33.4045 145.802 34.7245 145.802 36.4087V43.8283H141.933V36.9322C141.933 36.0825 141.713 35.4225 141.273 34.9521C140.833 34.4818 140.241 34.2466 139.498 34.2466C138.754 34.2466 138.162 34.4818 137.722 34.9521C137.282 35.4225 137.062 36.0825 137.062 36.9322V43.8283H133.171V31.1285H137.062V32.8127C137.457 32.2513 137.988 31.8113 138.656 31.4927C139.323 31.1589 140.074 30.992 140.909 30.992ZM153.673 44.0104C152.565 44.0104 151.579 43.8207 150.714 43.4414C149.849 43.0621 149.167 42.5462 148.666 41.8938C148.165 41.2261 147.884 40.4827 147.824 39.6633H151.67C151.716 40.1033 151.92 40.4599 152.285 40.733C152.649 41.0061 153.096 41.1427 153.627 41.1427C154.113 41.1427 154.485 41.0517 154.743 40.8696C155.016 40.6723 155.152 40.422 155.152 40.1185C155.152 39.7544 154.963 39.4888 154.583 39.3219C154.204 39.1399 153.589 38.9426 152.74 38.7302C151.829 38.5178 151.071 38.2978 150.464 38.0702C149.857 37.8274 149.333 37.4557 148.893 36.955C148.453 36.4391 148.233 35.7487 148.233 34.8839C148.233 34.1556 148.431 33.4955 148.825 32.9038C149.235 32.2969 149.827 31.8189 150.6 31.4699C151.389 31.121 152.323 30.9465 153.4 30.9465C154.993 30.9465 156.245 31.341 157.155 32.13C158.081 32.919 158.612 33.9659 158.748 35.2708H155.152C155.092 34.8307 154.894 34.4818 154.561 34.2238C154.242 33.9659 153.817 33.8369 153.286 33.8369C152.831 33.8369 152.482 33.928 152.239 34.11C151.996 34.2769 151.875 34.5121 151.875 34.8156C151.875 35.1797 152.065 35.4528 152.444 35.6349C152.838 35.817 153.445 35.9991 154.265 36.1811C155.205 36.4239 155.972 36.6667 156.563 36.9094C157.155 37.137 157.671 37.5164 158.111 38.0474C158.566 38.5633 158.801 39.2612 158.817 40.1413C158.817 40.8848 158.604 41.5524 158.179 42.1441C157.77 42.7207 157.17 43.1759 156.381 43.5097C155.607 43.8435 154.705 44.0104 153.673 44.0104ZM177.992 37.2736C177.992 37.6377 177.969 38.0171 177.924 38.4116H169.116C169.177 39.2006 169.427 39.8075 169.867 40.2323C170.322 40.642 170.876 40.8468 171.528 40.8468C172.499 40.8468 173.175 40.4372 173.554 39.6178H177.696C177.484 40.4523 177.097 41.2034 176.535 41.871C175.989 42.5386 175.299 43.0621 174.464 43.4414C173.63 43.8207 172.697 44.0104 171.665 44.0104C170.421 44.0104 169.313 43.7449 168.342 43.2138C167.371 42.6828 166.612 41.9241 166.066 40.9379C165.52 39.9516 165.247 38.7985 165.247 37.4784C165.247 36.1584 165.512 35.0052 166.043 34.019C166.59 33.0328 167.348 32.2741 168.319 31.7431C169.29 31.212 170.406 30.9465 171.665 30.9465C172.894 30.9465 173.986 31.2044 174.942 31.7203C175.898 32.2362 176.642 32.9721 177.173 33.928C177.719 34.8839 177.992 35.9991 177.992 37.2736ZM174.009 36.2494C174.009 35.5818 173.782 35.0508 173.326 34.6563C172.871 34.2618 172.302 34.0645 171.619 34.0645C170.967 34.0645 170.413 34.2542 169.958 34.6335C169.518 35.0128 169.245 35.5515 169.139 36.2494H174.009ZM187.783 30.992C189.27 30.992 190.454 31.4775 191.334 32.4486C192.229 33.4045 192.677 34.7245 192.677 36.4087V43.8283H188.808V36.9322C188.808 36.0825 188.588 35.4225 188.148 34.9521C187.708 34.4818 187.116 34.2466 186.372 34.2466C185.629 34.2466 185.037 34.4818 184.597 34.9521C184.157 35.4225 183.937 36.0825 183.937 36.9322V43.8283H180.045V31.1285H183.937V32.8127C184.332 32.2513 184.863 31.8113 185.53 31.4927C186.198 31.1589 186.949 30.992 187.783 30.992ZM200.548 44.0104C199.44 44.0104 198.454 43.8207 197.589 43.4414C196.724 43.0621 196.041 42.5462 195.54 41.8938C195.04 41.2261 194.759 40.4827 194.698 39.6633H198.545C198.59 40.1033 198.795 40.4599 199.159 40.733C199.523 41.0061 199.971 41.1427 200.502 41.1427C200.988 41.1427 201.359 41.0517 201.617 40.8696C201.89 40.6723 202.027 40.422 202.027 40.1185C202.027 39.7544 201.837 39.4888 201.458 39.3219C201.079 39.1399 200.464 38.9426 199.614 38.7302C198.704 38.5178 197.945 38.2978 197.338 38.0702C196.732 37.8274 196.208 37.4557 195.768 36.955C195.328 36.4391 195.108 35.7487 195.108 34.8839C195.108 34.1556 195.305 33.4955 195.7 32.9038C196.109 32.2969 196.701 31.8189 197.475 31.4699C198.264 31.121 199.197 30.9465 200.274 30.9465C201.868 30.9465 203.119 31.341 204.03 32.13C204.955 32.919 205.486 33.9659 205.623 35.2708H202.027C201.966 34.8307 201.769 34.4818 201.435 34.2238C201.117 33.9659 200.692 33.8369 200.161 33.8369C199.705 33.8369 199.356 33.928 199.114 34.11C198.871 34.2769 198.75 34.5121 198.75 34.8156C198.75 35.1797 198.939 35.4528 199.319 35.6349C199.713 35.817 200.32 35.9991 201.139 36.1811C202.08 36.4239 202.846 36.6667 203.438 36.9094C204.03 37.137 204.546 37.5164 204.986 38.0474C205.441 38.5633 205.676 39.2612 205.691 40.1413C205.691 40.8848 205.479 41.5524 205.054 42.1441C204.644 42.7207 204.045 43.1759 203.256 43.5097C202.482 43.8435 201.579 44.0104 200.548 44.0104ZM220.044 37.2736C220.044 37.6377 220.021 38.0171 219.975 38.4116H211.167C211.228 39.2006 211.479 39.8075 211.919 40.2323C212.374 40.642 212.928 40.8468 213.58 40.8468C214.551 40.8468 215.226 40.4372 215.606 39.6178H219.748C219.535 40.4523 219.148 41.2034 218.587 41.871C218.041 42.5386 217.35 43.0621 216.516 43.4414C215.681 43.8207 214.748 44.0104 213.717 44.0104C212.472 44.0104 211.365 43.7449 210.394 43.2138C209.423 42.6828 208.664 41.9241 208.118 40.9379C207.571 39.9516 207.298 38.7985 207.298 37.4784C207.298 36.1584 207.564 35.0052 208.095 34.019C208.641 33.0328 209.4 32.2741 210.371 31.7431C211.342 31.212 212.457 30.9465 213.717 30.9465C214.946 30.9465 216.038 31.2044 216.994 31.7203C217.95 32.2362 218.693 32.9721 219.224 33.928C219.771 34.8839 220.044 35.9991 220.044 37.2736ZM216.061 36.2494C216.061 35.5818 215.833 35.0508 215.378 34.6563C214.923 34.2618 214.354 34.0645 213.671 34.0645C213.019 34.0645 212.465 34.2542 212.01 34.6335C211.57 35.0128 211.296 35.5515 211.19 36.2494H216.061ZM238.302 30.992C239.88 30.992 241.131 31.4699 242.057 32.4258C242.998 33.3817 243.468 34.7094 243.468 36.4087V43.8283H239.599V36.9322C239.599 36.1129 239.379 35.4832 238.939 35.0432C238.514 34.588 237.922 34.3604 237.164 34.3604C236.405 34.3604 235.806 34.588 235.366 35.0432C234.941 35.4832 234.728 36.1129 234.728 36.9322V43.8283H230.859V36.9322C230.859 36.1129 230.639 35.4832 230.199 35.0432C229.774 34.588 229.183 34.3604 228.424 34.3604C227.665 34.3604 227.066 34.588 226.626 35.0432C226.201 35.4832 225.989 36.1129 225.989 36.9322V43.8283H222.097V31.1285H225.989V32.7217C226.383 32.1907 226.899 31.7734 227.536 31.4699C228.174 31.1513 228.894 30.992 229.698 30.992C230.654 30.992 231.504 31.1968 232.248 31.6065C233.006 32.0162 233.598 32.6003 234.023 33.359C234.463 32.661 235.062 32.092 235.821 31.652C236.579 31.212 237.406 30.992 238.302 30.992ZM250.082 32.9265C250.446 32.3348 250.969 31.8568 251.652 31.4927C252.335 31.1285 253.116 30.9465 253.996 30.9465C255.043 30.9465 255.992 31.212 256.841 31.7431C257.691 32.2741 258.359 33.0328 258.844 34.019C259.345 35.0052 259.595 36.1508 259.595 37.4557C259.595 38.7605 259.345 39.9137 258.844 40.9151C258.359 41.9013 257.691 42.6676 256.841 43.2138C255.992 43.7449 255.043 44.0104 253.996 44.0104C253.101 44.0104 252.32 43.8359 251.652 43.4869C250.984 43.1228 250.461 42.6448 250.082 42.0531V43.8283H246.19V26.9863H250.082V32.9265ZM255.635 37.4557C255.635 36.4846 255.362 35.726 254.816 35.1797C254.285 34.6183 253.625 34.3376 252.836 34.3376C252.062 34.3376 251.402 34.6183 250.855 35.1797C250.324 35.7411 250.059 36.5074 250.059 37.4784C250.059 38.4495 250.324 39.2157 250.855 39.7771C251.402 40.3385 252.062 40.6192 252.836 40.6192C253.609 40.6192 254.269 40.3385 254.816 39.7771C255.362 39.2006 255.635 38.4267 255.635 37.4557ZM265.529 26.9863V43.8283H261.637V26.9863H265.529ZM280.321 37.2736C280.321 37.6377 280.298 38.0171 280.252 38.4116H271.444C271.505 39.2006 271.755 39.8075 272.195 40.2323C272.651 40.642 273.204 40.8468 273.857 40.8468C274.828 40.8468 275.503 40.4372 275.882 39.6178H280.025C279.812 40.4523 279.425 41.2034 278.864 41.871C278.318 42.5386 277.627 43.0621 276.793 43.4414C275.958 43.8207 275.025 44.0104 273.993 44.0104C272.749 44.0104 271.642 43.7449 270.671 43.2138C269.7 42.6828 268.941 41.9241 268.395 40.9379C267.848 39.9516 267.575 38.7985 267.575 37.4784C267.575 36.1584 267.841 35.0052 268.372 34.019C268.918 33.0328 269.677 32.2741 270.648 31.7431C271.619 31.212 272.734 30.9465 273.993 30.9465C275.222 30.9465 276.315 31.2044 277.271 31.7203C278.227 32.2362 278.97 32.9721 279.501 33.928C280.047 34.8839 280.321 35.9991 280.321 37.2736ZM276.338 36.2494C276.338 35.5818 276.11 35.0508 275.655 34.6563C275.2 34.2618 274.631 34.0645 273.948 34.0645C273.296 34.0645 272.742 34.2542 272.286 34.6335C271.846 35.0128 271.573 35.5515 271.467 36.2494H276.338Z" fill="#80BDF2"/>
<path d="M327.813 40.5726C328.246 40.1398 328.246 39.4383 327.813 39.0056L320.762 31.9541C320.329 31.5214 319.627 31.5214 319.195 31.9541C318.762 32.3869 318.762 33.0884 319.195 33.5211L325.463 39.7891L319.195 46.057C318.762 46.4897 318.762 47.1913 319.195 47.624C319.627 48.0567 320.329 48.0567 320.762 47.624L327.813 40.5726ZM292.556 39.7891V40.8971H327.03V39.7891V38.681H292.556V39.7891Z" fill="#80BDF2"/>
</svg>
