<svg width="58" height="58" viewBox="0 0 58 58" fill="none" xmlns="http://www.w3.org/2000/svg">
<g clip-path="url(#clip0_449_144)">
<path d="M51.4025 38.1229C50.7983 37.845 50.0854 38.1108 49.7954 38.715C46.0496 46.7625 37.8812 51.9583 29 51.9583C16.3391 51.9583 6.04649 41.6682 6.04166 29.0085L8.01245 30.9635C8.48733 31.4336 9.25099 31.4324 9.72104 30.9563C10.1911 30.4826 10.1887 29.7178 9.71378 29.2477L5.85437 25.4209C5.3807 24.9521 4.61703 24.9533 4.14579 25.4282L0.349202 29.255C-0.120839 29.7286 -0.118423 30.4935 0.356452 30.9635C0.592077 31.1968 0.898994 31.314 1.20712 31.314C1.51766 31.314 1.82941 31.1943 2.06504 30.9563L3.64191 29.3661C3.84008 43.1883 15.1295 54.375 28.9988 54.375C38.8104 54.375 47.8367 48.6233 51.9934 39.73C52.2713 39.1258 52.0067 38.4129 51.4025 38.1229ZM57.6423 27.0365C57.1687 26.5676 56.405 26.5688 55.9337 27.0437L54.3569 28.6339C54.1587 14.8105 42.8692 3.625 29 3.625C19.1883 3.625 10.1621 9.37667 6.00541 18.27C5.72749 18.8742 5.99333 19.5871 6.59749 19.8771C7.20166 20.155 7.91458 19.8892 8.20458 19.285C11.9504 11.2375 20.1187 6.04167 29 6.04167C41.6609 6.04167 51.9535 16.3318 51.9583 28.9915L49.9875 27.0365C49.5139 26.5676 48.7502 26.5688 48.279 27.0437C47.8089 27.5174 47.8113 28.2823 48.2862 28.7523L52.1456 32.5791C52.3812 32.8123 52.6882 32.9295 52.9963 32.9295C53.3068 32.9295 53.6186 32.8099 53.8542 32.5718L57.6508 28.745C58.1208 28.2714 58.1184 27.5065 57.6435 27.0365H57.6423Z" fill="white"/>
<path d="M30.9176 44.7084H27.0824C25.8245 44.7084 24.7902 43.7635 24.6754 42.5105L24.5267 40.8671C23.229 40.3766 22.0521 39.6938 20.9948 38.8287L19.4602 39.5005C18.3232 40.0298 16.9819 39.6056 16.3536 38.5133L14.4372 35.194C13.8076 34.1053 14.1097 32.7363 15.1356 32.0113L16.4901 31.0567C16.3681 30.345 16.3125 29.6647 16.3125 29.0001C16.3125 28.3355 16.3693 27.6552 16.4817 26.9773L15.138 25.9901C14.1097 25.2627 13.81 23.8949 14.4384 22.8062L16.356 19.4857C16.9831 18.3958 18.3183 17.9716 19.4626 18.5009L20.9682 19.1969C22.0521 18.3063 23.229 17.6236 24.4917 17.1427L24.6754 15.4909C24.7902 14.2379 25.8245 13.293 27.0824 13.293H30.9176C32.1755 13.293 33.2098 14.2379 33.3246 15.4909L33.4732 17.1343C34.771 17.6248 35.9479 18.3076 37.0052 19.1739L38.5398 18.5021C39.6792 17.9753 41.0193 18.397 41.6464 19.4893L43.5628 22.8086C44.1912 23.8973 43.8903 25.2651 42.8644 25.9913L41.5099 26.9471C41.6319 27.6588 41.6875 28.3391 41.6875 29.0037C41.6875 29.6683 41.6307 30.3486 41.5183 31.0265L42.862 32.0137C43.8903 32.7399 44.1912 34.1077 43.5616 35.1976L41.644 38.5181C41.0157 39.6068 39.6804 40.031 38.5374 39.5029L37.0318 38.8069C35.9479 39.6975 34.771 40.3802 33.5083 40.8611L33.3246 42.5129C33.2098 43.7659 32.1755 44.7108 30.9176 44.7108V44.7084ZM20.9573 36.389C21.5132 36.389 22.0654 36.5836 22.5245 36.9582C23.3824 37.659 24.3334 38.2124 25.3532 38.6015C26.2438 38.9423 26.8492 39.7265 26.9349 40.6472L27.0836 42.2918H30.9188L31.0674 40.6484C31.152 39.7253 31.7574 38.9411 32.6479 38.6003C33.669 38.2112 34.6199 37.6578 35.4779 36.9582C36.2174 36.354 37.2009 36.2211 38.0468 36.6102L39.5536 37.3062L41.4712 33.9857L40.1191 33.0311C39.3566 32.4922 38.9808 31.5714 39.1379 30.6277C39.2273 30.0803 39.2732 29.5318 39.2732 28.9989C39.2732 28.466 39.2273 27.9174 39.1379 27.3688C38.9808 26.4263 39.3578 25.5056 40.1191 24.9679L41.4736 24.0133L39.5548 20.6928L38.048 21.3888C37.2022 21.7779 36.2186 21.6438 35.4791 21.0408C34.6212 20.34 33.6702 19.7866 32.6504 19.3975C31.7598 19.0567 31.1557 18.2725 31.0687 17.3506L30.92 15.706H27.0848L26.9362 17.3481C26.8504 18.2725 26.2462 19.0567 25.3557 19.3963C24.3346 19.7853 23.3837 20.3388 22.5257 21.0384C21.7862 21.6438 20.8027 21.7767 19.9568 21.3864L18.45 20.6904L16.5324 24.0109L17.8845 24.9655C18.647 25.5044 19.0228 26.4251 18.8657 27.3688C18.7763 27.9162 18.7304 28.4648 18.7304 28.9977C18.7304 29.5306 18.7763 30.0791 18.8657 30.6277C19.0228 31.5702 18.6458 32.491 17.8845 33.0287L16.53 33.9833L18.4488 37.3038L19.9556 36.6078C20.277 36.4591 20.6178 36.3866 20.9573 36.3866V36.389Z" fill="white"/>
<path d="M29 35.0416C25.6686 35.0416 22.9583 32.3313 22.9583 28.9999C22.9583 25.6685 25.6686 22.9583 29 22.9583C32.3314 22.9583 35.0417 25.6685 35.0417 28.9999C35.0417 32.3313 32.3314 35.0416 29 35.0416ZM29 25.3749C27.0014 25.3749 25.375 27.0013 25.375 28.9999C25.375 30.9985 27.0014 32.6249 29 32.6249C30.9986 32.6249 32.625 30.9985 32.625 28.9999C32.625 27.0013 30.9986 25.3749 29 25.3749Z" fill="white"/>
</g>
<defs>
<clipPath id="clip0_449_144">
<rect width="58" height="58" fill="white"/>
</clipPath>
</defs>
</svg>
