<svg width="27" height="27" viewBox="0 0 27 27" fill="none" xmlns="http://www.w3.org/2000/svg">
<path d="M26.2108 8.10955C26.2108 6.62087 24.9994 5.40955 23.5107 5.40955H3.48906C2.00039 5.40955 0.789062 6.62087 0.789062 8.10955V18.8905C0.789062 20.3793 2.00039 21.5905 3.48906 21.5905H23.5107C24.9994 21.5905 26.2108 20.3793 26.2108 18.8905V8.10955ZM25.1308 18.8905C25.1308 19.7839 24.4041 20.5105 23.5107 20.5105H3.48906C2.59574 20.5105 1.86906 19.7839 1.86906 18.8905V8.10955C1.86906 7.21622 2.59574 6.48955 3.48906 6.48955H23.5107C24.4041 6.48955 25.1308 7.21622 25.1308 8.10955V18.8905Z" fill="#969696"/>
<path d="M9.42198 7.75981C8.90844 7.75981 8.42287 7.87721 7.98564 8.08138C7.53727 7.87348 7.04863 7.75879 6.55161 7.75879C4.67322 7.75879 3.14551 9.29018 3.14551 11.1723C3.14551 13.0507 4.67322 14.5784 6.55161 14.5784C7.04825 14.5784 7.53576 14.4642 7.98299 14.2571C8.42088 14.4621 8.90736 14.58 9.42198 14.58C11.3019 14.58 12.8318 13.0501 12.8318 11.1702C12.8318 9.28964 11.3019 7.75981 9.42198 7.75981ZM4.22551 11.1723C4.22551 9.88553 5.26911 8.83879 6.55161 8.83879C6.67425 8.83879 6.79402 8.85078 6.91233 8.86898C6.355 9.47631 6.01161 10.2829 6.01161 11.1702C6.01161 12.0561 6.35424 12.8617 6.91033 13.4686C6.79272 13.4866 6.67354 13.4984 6.55161 13.4984C5.26911 13.4984 4.22551 12.4548 4.22551 11.1723ZM9.42198 13.5C8.13684 13.5 7.09161 12.4548 7.09161 11.1702C7.09161 9.88504 8.13684 8.83981 9.42198 8.83981C10.7066 8.83981 11.7518 9.88504 11.7518 11.1702C11.7518 12.4548 10.7066 13.5 9.42198 13.5ZM12.2918 17.1133H3.94919C3.65073 17.1133 3.40919 17.3549 3.40919 17.6533C3.40919 17.9518 3.65073 18.1933 3.94919 18.1933H12.2918C12.5902 18.1933 12.8318 17.9518 12.8318 17.6533C12.8318 17.3549 12.5902 17.1133 12.2918 17.1133ZM22.219 14.4581H16.9092C16.6107 14.4581 16.3692 14.6997 16.3692 14.9981C16.3692 15.2966 16.6107 15.5381 16.9092 15.5381H22.219C22.5175 15.5381 22.759 15.2966 22.759 14.9981C22.759 14.6997 22.5175 14.4581 22.219 14.4581ZM22.219 17.1133H16.9092C16.6107 17.1133 16.3692 17.3549 16.3692 17.6533C16.3692 17.9518 16.6107 18.1933 16.9092 18.1933H22.219C22.5175 18.1933 22.759 17.9518 22.759 17.6533C22.759 17.3549 22.5175 17.1133 22.219 17.1133Z" fill="#969696"/>
</svg>
