<svg width="54" height="104" viewBox="0 0 54 104" fill="none" xmlns="http://www.w3.org/2000/svg">
<path d="M27 23.4884L16.194 12.4825H11.2651V75.4915C11.2651 84.3443 18.3081 91.5175 27 91.5175C31.343 91.5175 35.2812 89.7273 38.1262 86.8235C40.9711 83.9259 42.7349 79.9148 42.7349 75.4915V59.4655H34.3329V75.4915C34.3329 79.6134 31.053 82.9601 27 82.9601C24.9765 82.9601 23.1403 82.1234 21.8174 80.7761C20.4886 79.4227 19.6732 77.5586 19.6732 75.4915V28.1271L27 35.5956L34.3329 28.1271V44.5345H42.7349V12.4825H37.806L27 23.4884Z" fill="#80BDF2"/>
<path d="M27 0C12.1107 0 0 12.3348 0 27.4996V76.5004C0 91.6652 12.1107 104 27 104C41.8893 104 54 91.6652 54 76.5004V27.4996C54 12.3348 41.8893 0 27 0ZM52.2846 76.5004C52.2846 90.6993 40.9409 102.253 27 102.253C13.0591 102.253 1.71544 90.6993 1.71544 76.5004V27.4996C1.71544 13.3007 13.0591 1.74718 27 1.74718C40.9409 1.74718 52.2846 13.3007 52.2846 27.4996V76.5004Z" fill="#80BDF2"/>
</svg>
