<svg width="394" height="85" viewBox="0 0 394 85" fill="none" xmlns="http://www.w3.org/2000/svg">
<rect width="394" height="85" fill="#80BDF2"/>
<path d="M61.2263 23.589C61.2263 24.4784 61.0221 25.295 60.6138 26.0386C60.2056 26.7677 59.5786 27.3582 58.7329 27.8103C57.8871 28.2623 56.8373 28.4883 55.5833 28.4883H53.2649V34H49.5248V18.6459H55.5833C56.8081 18.6459 57.8434 18.8574 58.6891 19.2802C59.5348 19.7031 60.1691 20.2863 60.592 21.03C61.0148 21.7736 61.2263 22.6266 61.2263 23.589ZM55.299 25.5137C56.0135 25.5137 56.5457 25.346 56.8956 25.0107C57.2456 24.6753 57.4205 24.2014 57.4205 23.589C57.4205 22.9766 57.2456 22.5027 56.8956 22.1673C56.5457 21.8319 56.0135 21.6643 55.299 21.6643H53.2649V25.5137H55.299ZM62.4297 27.8759C62.4297 26.6219 62.663 25.521 63.1296 24.5732C63.6108 23.6254 64.2597 22.8964 65.0762 22.386C65.8928 21.8757 66.8041 21.6205 67.8102 21.6205C68.6705 21.6205 69.4214 21.7955 70.063 22.1454C70.7192 22.4954 71.2222 22.9547 71.5722 23.5234V21.7955H75.3123V34H71.5722V32.2721C71.2076 32.8408 70.6973 33.3001 70.0411 33.6501C69.3996 34 68.6486 34.175 67.7883 34.175C66.7968 34.175 65.8928 33.9198 65.0762 33.4095C64.2597 32.8845 63.6108 32.1482 63.1296 31.2004C62.663 30.238 62.4297 29.1299 62.4297 27.8759ZM71.5722 27.8977C71.5722 26.9645 71.3097 26.2282 70.7848 25.6887C70.2744 25.1492 69.6474 24.8794 68.9038 24.8794C68.1602 24.8794 67.5259 25.1492 67.0009 25.6887C66.4906 26.2136 66.2354 26.9427 66.2354 27.8759C66.2354 28.8091 66.4906 29.5527 67.0009 30.1068C67.5259 30.6463 68.1602 30.9161 68.9038 30.9161C69.6474 30.9161 70.2744 30.6463 70.7848 30.1068C71.3097 29.5673 71.5722 28.8309 71.5722 27.8977ZM77.2744 27.8977C77.2744 26.6292 77.5296 25.521 78.0399 24.5732C78.5648 23.6254 79.2866 22.8964 80.2052 22.386C81.1384 21.8757 82.2029 21.6205 83.3985 21.6205C84.9296 21.6205 86.2054 22.0215 87.2261 22.8235C88.2614 23.6254 88.9394 24.7555 89.2602 26.2136H85.2795C84.9441 25.2804 84.2953 24.8138 83.3329 24.8138C82.6476 24.8138 82.1008 25.0836 81.6925 25.6231C81.2842 26.148 81.0801 26.9062 81.0801 27.8977C81.0801 28.8893 81.2842 29.6548 81.6925 30.1943C82.1008 30.7192 82.6476 30.9817 83.3329 30.9817C84.2953 30.9817 84.9441 30.5151 85.2795 29.5819H89.2602C88.9394 31.0108 88.2614 32.1336 87.2261 32.9502C86.1908 33.7667 84.915 34.175 83.3985 34.175C82.2029 34.175 81.1384 33.9198 80.2052 33.4095C79.2866 32.8991 78.5648 32.1701 78.0399 31.2223C77.5296 30.2745 77.2744 29.1663 77.2744 27.8977ZM98.7191 34L95.0009 28.882V34H91.2608V17.8148H95.0009V26.7604L98.6972 21.7955H103.312L98.2379 27.9196L103.356 34H98.7191ZM108.672 27.8759C108.672 26.6219 108.906 25.521 109.372 24.5732C109.854 23.6254 110.502 22.8964 111.319 22.386C112.136 21.8757 113.047 21.6205 114.053 21.6205C114.855 21.6205 115.584 21.7882 116.24 22.1236C116.911 22.4589 117.436 22.911 117.815 23.4796V17.8148H121.555V34H117.815V32.2503C117.465 32.8335 116.962 33.3001 116.306 33.6501C115.664 34 114.913 34.175 114.053 34.175C113.047 34.175 112.136 33.9198 111.319 33.4095C110.502 32.8845 109.854 32.1482 109.372 31.2004C108.906 30.238 108.672 29.1299 108.672 27.8759ZM117.815 27.8977C117.815 26.9645 117.552 26.2282 117.028 25.6887C116.517 25.1492 115.89 24.8794 115.147 24.8794C114.403 24.8794 113.769 25.1492 113.244 25.6887C112.733 26.2136 112.478 26.9427 112.478 27.8759C112.478 28.8091 112.733 29.5527 113.244 30.1068C113.769 30.6463 114.403 30.9161 115.147 30.9161C115.89 30.9161 116.517 30.6463 117.028 30.1068C117.552 29.5673 117.815 28.8309 117.815 27.8977ZM125.114 18.6459H128.941L126.492 24.5076H123.976L125.114 18.6459ZM130.395 27.8759C130.395 26.6219 130.628 25.521 131.095 24.5732C131.576 23.6254 132.225 22.8964 133.041 22.386C133.858 21.8757 134.769 21.6205 135.775 21.6205C136.636 21.6205 137.387 21.7955 138.028 22.1454C138.684 22.4954 139.187 22.9547 139.537 23.5234V21.7955H143.277V34H139.537V32.2721C139.173 32.8408 138.662 33.3001 138.006 33.6501C137.365 34 136.614 34.175 135.753 34.175C134.762 34.175 133.858 33.9198 133.041 33.4095C132.225 32.8845 131.576 32.1482 131.095 31.2004C130.628 30.238 130.395 29.1299 130.395 27.8759ZM139.537 27.8977C139.537 26.9645 139.275 26.2282 138.75 25.6887C138.24 25.1492 137.613 24.8794 136.869 24.8794C136.125 24.8794 135.491 25.1492 134.966 25.6887C134.456 26.2136 134.201 26.9427 134.201 27.8759C134.201 28.8091 134.456 29.5527 134.966 30.1068C135.491 30.6463 136.125 30.9161 136.869 30.9161C137.613 30.9161 138.24 30.6463 138.75 30.1068C139.275 29.5673 139.537 28.8309 139.537 27.8977ZM145.24 27.8977C145.24 26.6292 145.495 25.521 146.005 24.5732C146.53 23.6254 147.252 22.8964 148.17 22.386C149.104 21.8757 150.168 21.6205 151.364 21.6205C152.895 21.6205 154.171 22.0215 155.191 22.8235C156.227 23.6254 156.905 24.7555 157.225 26.2136H153.245C152.909 25.2804 152.26 24.8138 151.298 24.8138C150.613 24.8138 150.066 25.0836 149.658 25.6231C149.249 26.148 149.045 26.9062 149.045 27.8977C149.045 28.8893 149.249 29.6548 149.658 30.1943C150.066 30.7192 150.613 30.9817 151.298 30.9817C152.26 30.9817 152.909 30.5151 153.245 29.5819H157.225C156.905 31.0108 156.227 32.1336 155.191 32.9502C154.156 33.7667 152.88 34.175 151.364 34.175C150.168 34.175 149.104 33.9198 148.17 33.4095C147.252 32.8991 146.53 32.1701 146.005 31.2223C145.495 30.2745 145.24 29.1663 145.24 27.8977ZM158.482 27.8977C158.482 26.6292 158.737 25.521 159.248 24.5732C159.773 23.6254 160.494 22.8964 161.413 22.386C162.346 21.8757 163.411 21.6205 164.606 21.6205C166.137 21.6205 167.413 22.0215 168.434 22.8235C169.469 23.6254 170.147 24.7555 170.468 26.2136H166.487C166.152 25.2804 165.503 24.8138 164.541 24.8138C163.855 24.8138 163.309 25.0836 162.9 25.6231C162.492 26.148 162.288 26.9062 162.288 27.8977C162.288 28.8893 162.492 29.6548 162.9 30.1943C163.309 30.7192 163.855 30.9817 164.541 30.9817C165.503 30.9817 166.152 30.5151 166.487 29.5819H170.468C170.147 31.0108 169.469 32.1336 168.434 32.9502C167.399 33.7667 166.123 34.175 164.606 34.175C163.411 34.175 162.346 33.9198 161.413 33.4095C160.494 32.8991 159.773 32.1701 159.248 31.2223C158.737 30.2745 158.482 29.1663 158.482 27.8977ZM178.024 34.175C176.828 34.175 175.749 33.9198 174.787 33.4095C173.839 32.8991 173.088 32.1701 172.534 31.2223C171.995 30.2745 171.725 29.1663 171.725 27.8977C171.725 26.6438 172.002 25.5429 172.556 24.5951C173.11 23.6327 173.868 22.8964 174.831 22.386C175.793 21.8757 176.872 21.6205 178.068 21.6205C179.264 21.6205 180.343 21.8757 181.305 22.386C182.267 22.8964 183.025 23.6327 183.58 24.5951C184.134 25.5429 184.411 26.6438 184.411 27.8977C184.411 29.1517 184.126 30.2599 183.558 31.2223C183.004 32.1701 182.238 32.8991 181.261 33.4095C180.299 33.9198 179.22 34.175 178.024 34.175ZM178.024 30.9379C178.739 30.9379 179.344 30.6755 179.839 30.1506C180.35 29.6256 180.605 28.8747 180.605 27.8977C180.605 26.9208 180.357 26.1699 179.861 25.6449C179.38 25.12 178.782 24.8576 178.068 24.8576C177.339 24.8576 176.734 25.12 176.252 25.6449C175.771 26.1553 175.531 26.9062 175.531 27.8977C175.531 28.8747 175.764 29.6256 176.231 30.1506C176.712 30.6755 177.31 30.9379 178.024 30.9379ZM201.968 21.6643C203.484 21.6643 204.687 22.1236 205.577 23.0422C206.481 23.9608 206.933 25.2367 206.933 26.8698V34H203.214V27.3728C203.214 26.5854 203.003 25.9803 202.58 25.5575C202.172 25.12 201.603 24.9013 200.874 24.9013C200.145 24.9013 199.569 25.12 199.146 25.5575C198.738 25.9803 198.534 26.5854 198.534 27.3728V34H194.816V27.3728C194.816 26.5854 194.604 25.9803 194.181 25.5575C193.773 25.12 193.204 24.9013 192.475 24.9013C191.746 24.9013 191.17 25.12 190.747 25.5575C190.339 25.9803 190.135 26.5854 190.135 27.3728V34H186.395V21.7955H190.135V23.3265C190.514 22.8162 191.01 22.4152 191.622 22.1236C192.235 21.8174 192.927 21.6643 193.7 21.6643C194.619 21.6643 195.435 21.8611 196.15 22.2548C196.879 22.6485 197.447 23.2099 197.856 23.9389C198.279 23.2682 198.855 22.7214 199.584 22.2985C200.313 21.8757 201.107 21.6643 201.968 21.6643ZM213.288 23.5234C213.653 22.9547 214.156 22.4954 214.798 22.1454C215.439 21.7955 216.19 21.6205 217.05 21.6205C218.056 21.6205 218.968 21.8757 219.784 22.386C220.601 22.8964 221.242 23.6254 221.709 24.5732C222.19 25.521 222.431 26.6219 222.431 27.8759C222.431 29.1299 222.19 30.238 221.709 31.2004C221.242 32.1482 220.601 32.8845 219.784 33.4095C218.968 33.9198 218.056 34.175 217.05 34.175C216.205 34.175 215.454 34 214.798 33.6501C214.156 33.3001 213.653 32.8481 213.288 32.294V39.8179H209.548V21.7955H213.288V23.5234ZM218.625 27.8759C218.625 26.9427 218.363 26.2136 217.838 25.6887C217.327 25.1492 216.693 24.8794 215.935 24.8794C215.191 24.8794 214.557 25.1492 214.032 25.6887C213.522 26.2282 213.267 26.9645 213.267 27.8977C213.267 28.8309 213.522 29.5673 214.032 30.1068C214.557 30.6463 215.191 30.9161 215.935 30.9161C216.679 30.9161 217.313 30.6463 217.838 30.1068C218.363 29.5527 218.625 28.8091 218.625 27.8759ZM223.649 27.8759C223.649 26.6219 223.883 25.521 224.349 24.5732C224.83 23.6254 225.479 22.8964 226.296 22.386C227.112 21.8757 228.024 21.6205 229.03 21.6205C229.89 21.6205 230.641 21.7955 231.283 22.1454C231.939 22.4954 232.442 22.9547 232.792 23.5234V21.7955H236.532V34H232.792V32.2721C232.427 32.8408 231.917 33.3001 231.261 33.6501C230.619 34 229.868 34.175 229.008 34.175C228.016 34.175 227.112 33.9198 226.296 33.4095C225.479 32.8845 224.83 32.1482 224.349 31.2004C223.883 30.238 223.649 29.1299 223.649 27.8759ZM232.792 27.8977C232.792 26.9645 232.529 26.2282 232.004 25.6887C231.494 25.1492 230.867 24.8794 230.123 24.8794C229.38 24.8794 228.745 25.1492 228.221 25.6887C227.71 26.2136 227.455 26.9427 227.455 27.8759C227.455 28.8091 227.71 29.5527 228.221 30.1068C228.745 30.6463 229.38 30.9161 230.123 30.9161C230.867 30.9161 231.494 30.6463 232.004 30.1068C232.529 29.5673 232.792 28.8309 232.792 27.8977ZM243.875 21.6205C244.735 21.6205 245.486 21.7955 246.127 22.1454C246.783 22.4954 247.287 22.9547 247.636 23.5234V21.7955H251.377V33.9781C251.377 35.1009 251.151 36.1143 250.699 37.0183C250.261 37.9369 249.583 38.666 248.664 39.2055C247.76 39.745 246.63 40.0148 245.274 40.0148C243.466 40.0148 242.001 39.5846 240.878 38.7243C239.755 37.8786 239.114 36.7267 238.953 35.2686H242.65C242.766 35.7352 243.043 36.0997 243.481 36.3622C243.918 36.6392 244.458 36.7777 245.099 36.7777C245.872 36.7777 246.485 36.5517 246.937 36.0997C247.403 35.6623 247.636 34.9551 247.636 33.9781V32.2503C247.272 32.8189 246.769 33.2855 246.127 33.6501C245.486 34 244.735 34.175 243.875 34.175C242.868 34.175 241.957 33.9198 241.141 33.4095C240.324 32.8845 239.675 32.1482 239.194 31.2004C238.727 30.238 238.494 29.1299 238.494 27.8759C238.494 26.6219 238.727 25.521 239.194 24.5732C239.675 23.6254 240.324 22.8964 241.141 22.386C241.957 21.8757 242.868 21.6205 243.875 21.6205ZM247.636 27.8977C247.636 26.9645 247.374 26.2282 246.849 25.6887C246.339 25.1492 245.712 24.8794 244.968 24.8794C244.224 24.8794 243.59 25.1492 243.065 25.6887C242.555 26.2136 242.3 26.9427 242.3 27.8759C242.3 28.8091 242.555 29.5527 243.065 30.1068C243.59 30.6463 244.224 30.9161 244.968 30.9161C245.712 30.9161 246.339 30.6463 246.849 30.1068C247.374 29.5673 247.636 28.8309 247.636 27.8977ZM261.519 21.6643C262.948 21.6643 264.085 22.1309 264.931 23.0641C265.791 23.9827 266.221 25.2513 266.221 26.8698V34H262.503V27.3728C262.503 26.5563 262.292 25.922 261.869 25.47C261.446 25.018 260.877 24.7919 260.163 24.7919C259.448 24.7919 258.88 25.018 258.457 25.47C258.034 25.922 257.822 26.5563 257.822 27.3728V34H254.082V21.7955H257.822V23.414C258.202 22.8745 258.712 22.4517 259.353 22.1454C259.995 21.8247 260.717 21.6643 261.519 21.6643ZM280.325 27.7009C280.325 28.0509 280.303 28.4154 280.259 28.7945H271.795C271.853 29.5527 272.094 30.136 272.517 30.5442C272.954 30.9379 273.486 31.1348 274.113 31.1348C275.046 31.1348 275.695 30.7411 276.06 29.9537H280.04C279.836 30.7557 279.465 31.4774 278.925 32.119C278.4 32.7606 277.737 33.2636 276.935 33.6282C276.133 33.9927 275.236 34.175 274.244 34.175C273.049 34.175 271.984 33.9198 271.051 33.4095C270.118 32.8991 269.389 32.1701 268.864 31.2223C268.339 30.2745 268.077 29.1663 268.077 27.8977C268.077 26.6292 268.332 25.521 268.842 24.5732C269.367 23.6254 270.096 22.8964 271.029 22.386C271.962 21.8757 273.034 21.6205 274.244 21.6205C275.426 21.6205 276.475 21.8684 277.394 22.3642C278.313 22.8599 279.027 23.5671 279.537 24.4857C280.062 25.4044 280.325 26.4761 280.325 27.7009ZM276.497 26.7167C276.497 26.0751 276.279 25.5647 275.841 25.1856C275.404 24.8065 274.857 24.617 274.201 24.617C273.574 24.617 273.042 24.7992 272.604 25.1638C272.181 25.5283 271.919 26.0459 271.817 26.7167H276.497ZM297.871 21.6643C299.387 21.6643 300.59 22.1236 301.48 23.0422C302.384 23.9608 302.836 25.2367 302.836 26.8698V34H299.117V27.3728C299.117 26.5854 298.906 25.9803 298.483 25.5575C298.075 25.12 297.506 24.9013 296.777 24.9013C296.048 24.9013 295.472 25.12 295.049 25.5575C294.641 25.9803 294.437 26.5854 294.437 27.3728V34H290.719V27.3728C290.719 26.5854 290.507 25.9803 290.084 25.5575C289.676 25.12 289.107 24.9013 288.378 24.9013C287.649 24.9013 287.073 25.12 286.65 25.5575C286.242 25.9803 286.038 26.5854 286.038 27.3728V34H282.298V21.7955H286.038V23.3265C286.417 22.8162 286.913 22.4152 287.525 22.1236C288.138 21.8174 288.83 21.6643 289.603 21.6643C290.522 21.6643 291.338 21.8611 292.053 22.2548C292.782 22.6485 293.35 23.2099 293.759 23.9389C294.182 23.2682 294.758 22.7214 295.487 22.2985C296.216 21.8757 297.01 21.6643 297.871 21.6643ZM316.956 27.7009C316.956 28.0509 316.934 28.4154 316.89 28.7945H308.426C308.484 29.5527 308.725 30.136 309.148 30.5442C309.585 30.9379 310.117 31.1348 310.744 31.1348C311.678 31.1348 312.326 30.7411 312.691 29.9537H316.672C316.467 30.7557 316.096 31.4774 315.556 32.119C315.031 32.7606 314.368 33.2636 313.566 33.6282C312.764 33.9927 311.867 34.175 310.876 34.175C309.68 34.175 308.615 33.9198 307.682 33.4095C306.749 32.8991 306.02 32.1701 305.495 31.2223C304.97 30.2745 304.708 29.1663 304.708 27.8977C304.708 26.6292 304.963 25.521 305.473 24.5732C305.998 23.6254 306.727 22.8964 307.66 22.386C308.594 21.8757 309.665 21.6205 310.876 21.6205C312.057 21.6205 313.106 21.8684 314.025 22.3642C314.944 22.8599 315.658 23.5671 316.169 24.4857C316.693 25.4044 316.956 26.4761 316.956 27.7009ZM313.128 26.7167C313.128 26.0751 312.91 25.5647 312.472 25.1856C312.035 24.8065 311.488 24.617 310.832 24.617C310.205 24.617 309.673 24.7992 309.235 25.1638C308.812 25.5283 308.55 26.0459 308.448 26.7167H313.128ZM326.365 21.6643C327.794 21.6643 328.932 22.1309 329.778 23.0641C330.638 23.9827 331.068 25.2513 331.068 26.8698V34H327.35V27.3728C327.35 26.5563 327.138 25.922 326.715 25.47C326.293 25.018 325.724 24.7919 325.009 24.7919C324.295 24.7919 323.726 25.018 323.303 25.47C322.881 25.922 322.669 26.5563 322.669 27.3728V34H318.929V21.7955H322.669V23.414C323.048 22.8745 323.559 22.4517 324.2 22.1454C324.842 21.8247 325.564 21.6643 326.365 21.6643ZM340.469 30.8286V34H338.566C337.21 34 336.153 33.6719 335.395 33.0158C334.637 32.345 334.257 31.2587 334.257 29.7569V24.9013H332.77V21.7955H334.257V18.8209H337.998V21.7955H340.447V24.9013H337.998V29.8006C337.998 30.1651 338.085 30.4276 338.26 30.588C338.435 30.7484 338.727 30.8286 339.135 30.8286H340.469ZM131.812 71.5712C130.397 70.2152 129.296 68.4654 128.509 66.322C127.722 64.1785 127.328 61.8674 127.328 59.3886C127.328 56.8806 127.736 54.5403 128.553 52.3677C129.369 50.1805 130.529 48.4016 132.03 47.031H135.705V47.3809C134.174 48.8974 132.993 50.72 132.162 52.8489C131.331 54.9632 130.915 57.1431 130.915 59.3886C130.915 61.6195 131.316 63.7703 132.118 65.8408C132.92 67.9113 134.05 69.7048 135.508 71.2213V71.5712H131.812ZM152.71 54.2924H145.886V57.3108C146.177 56.99 146.586 56.7275 147.111 56.5234C147.636 56.3192 148.204 56.2172 148.817 56.2172C149.91 56.2172 150.814 56.465 151.529 56.9608C152.258 57.4566 152.79 58.0981 153.125 58.8855C153.461 59.6729 153.628 60.5259 153.628 61.4445C153.628 63.1506 153.147 64.5066 152.185 65.5127C151.223 66.5042 149.866 67 148.117 67C146.95 67 145.937 66.8032 145.077 66.4095C144.216 66.0012 143.553 65.4398 143.086 64.7253C142.62 64.0108 142.364 63.187 142.321 62.2538H145.973C146.061 62.7058 146.272 63.0849 146.608 63.3911C146.943 63.6828 147.402 63.8286 147.985 63.8286C148.671 63.8286 149.181 63.6099 149.517 63.1724C149.852 62.735 150.02 62.1517 150.02 61.4227C150.02 60.7082 149.845 60.1614 149.495 59.7823C149.145 59.4032 148.634 59.2136 147.964 59.2136C147.468 59.2136 147.06 59.3376 146.739 59.5854C146.418 59.8187 146.207 60.1322 146.105 60.5259H142.496V51.0117H152.71V54.2924ZM165.665 67.175C164.6 67.175 163.652 66.9927 162.821 66.6282C161.99 66.2636 161.334 65.7679 160.853 65.1409C160.372 64.4993 160.102 63.7848 160.044 62.9974H163.74C163.784 63.4203 163.98 63.763 164.33 64.0254C164.68 64.2879 165.111 64.4191 165.621 64.4191C166.087 64.4191 166.445 64.3316 166.693 64.1567C166.955 63.9671 167.086 63.7265 167.086 63.4349C167.086 63.0849 166.904 62.8298 166.539 62.6694C166.175 62.4944 165.584 62.3048 164.768 62.1007C163.893 61.8966 163.164 61.6851 162.581 61.4664C161.997 61.2331 161.494 60.8759 161.072 60.3947C160.649 59.8989 160.437 59.2355 160.437 58.4044C160.437 57.7045 160.627 57.0702 161.006 56.5015C161.4 55.9183 161.968 55.4589 162.712 55.1236C163.47 54.7882 164.367 54.6205 165.402 54.6205C166.933 54.6205 168.136 54.9996 169.011 55.7579C169.9 56.5161 170.411 57.5222 170.542 58.7762H167.086C167.028 58.3533 166.838 58.018 166.518 57.7701C166.211 57.5222 165.803 57.3982 165.293 57.3982C164.855 57.3982 164.52 57.4857 164.287 57.6607C164.053 57.8211 163.937 58.0471 163.937 58.3387C163.937 58.6887 164.119 58.9512 164.484 59.1261C164.863 59.3011 165.446 59.4761 166.233 59.6511C167.137 59.8844 167.874 60.1177 168.442 60.351C169.011 60.5697 169.507 60.9342 169.93 61.4445C170.367 61.9403 170.593 62.611 170.608 63.4568C170.608 64.1712 170.404 64.8128 169.995 65.3815C169.602 65.9356 169.026 66.373 168.267 66.6938C167.524 67.0146 166.656 67.175 165.665 67.175ZM184.4 60.7009C184.4 61.0509 184.379 61.4154 184.335 61.7945H175.87C175.929 62.5527 176.169 63.136 176.592 63.5442C177.03 63.9379 177.562 64.1348 178.189 64.1348C179.122 64.1348 179.771 63.7411 180.135 62.9537H184.116C183.912 63.7557 183.54 64.4774 183.001 65.119C182.476 65.7606 181.812 66.2636 181.01 66.6282C180.208 66.9927 179.312 67.175 178.32 67.175C177.124 67.175 176.06 66.9198 175.127 66.4095C174.194 65.8991 173.465 65.1701 172.94 64.2223C172.415 63.2745 172.152 62.1663 172.152 60.8977C172.152 59.6292 172.407 58.521 172.918 57.5732C173.443 56.6254 174.172 55.8964 175.105 55.386C176.038 54.8757 177.11 54.6205 178.32 54.6205C179.501 54.6205 180.551 54.8684 181.47 55.3642C182.388 55.8599 183.103 56.5671 183.613 57.4857C184.138 58.4044 184.4 59.4761 184.4 60.7009ZM180.573 59.7167C180.573 59.0751 180.354 58.5647 179.917 58.1856C179.479 57.8065 178.932 57.617 178.276 57.617C177.649 57.617 177.117 57.7992 176.68 58.1638C176.257 58.5283 175.994 59.0459 175.892 59.7167H180.573ZM180.835 51.6678L175.564 53.8769V51.296L180.835 48.7589V51.6678ZM185.63 60.8759C185.63 59.6219 185.863 58.521 186.33 57.5732C186.811 56.6254 187.46 55.8964 188.276 55.386C189.093 54.8757 190.004 54.6205 191.01 54.6205C191.871 54.6205 192.622 54.7955 193.263 55.1454C193.919 55.4954 194.422 55.9547 194.772 56.5234V54.7955H198.512V67H194.772V65.2721C194.408 65.8408 193.897 66.3001 193.241 66.6501C192.6 67 191.849 67.175 190.988 67.175C189.997 67.175 189.093 66.9198 188.276 66.4095C187.46 65.8845 186.811 65.1482 186.33 64.2004C185.863 63.238 185.63 62.1299 185.63 60.8759ZM194.772 60.8977C194.772 59.9645 194.51 59.2282 193.985 58.6887C193.475 58.1492 192.848 57.8794 192.104 57.8794C191.36 57.8794 190.726 58.1492 190.201 58.6887C189.691 59.2136 189.436 59.9427 189.436 60.8759C189.436 61.8091 189.691 62.5527 190.201 63.1068C190.726 63.6463 191.36 63.9161 192.104 63.9161C192.848 63.9161 193.475 63.6463 193.985 63.1068C194.51 62.5673 194.772 61.8309 194.772 60.8977ZM208.655 54.6643C210.084 54.6643 211.221 55.1309 212.067 56.0641C212.927 56.9827 213.357 58.2513 213.357 59.8698V67H209.639V60.3728C209.639 59.5563 209.427 58.922 209.005 58.47C208.582 58.018 208.013 57.7919 207.299 57.7919C206.584 57.7919 206.015 58.018 205.593 58.47C205.17 58.922 204.958 59.5563 204.958 60.3728V67H201.218V54.7955H204.958V56.414C205.337 55.8745 205.848 55.4517 206.489 55.1454C207.131 54.8247 207.853 54.6643 208.655 54.6643ZM215.212 60.8977C215.212 59.6292 215.468 58.521 215.978 57.5732C216.503 56.6254 217.225 55.8964 218.143 55.386C219.076 54.8757 220.141 54.6205 221.337 54.6205C222.868 54.6205 224.143 55.0215 225.164 55.8235C226.199 56.6254 226.877 57.7555 227.198 59.2136H223.218C222.882 58.2804 222.233 57.8138 221.271 57.8138C220.586 57.8138 220.039 58.0836 219.631 58.6231C219.222 59.148 219.018 59.9062 219.018 60.8977C219.018 61.8893 219.222 62.6548 219.631 63.1943C220.039 63.7192 220.586 63.9817 221.271 63.9817C222.233 63.9817 222.882 63.5151 223.218 62.5819H227.198C226.877 64.0108 226.199 65.1336 225.164 65.9502C224.129 66.7667 222.853 67.175 221.337 67.175C220.141 67.175 219.076 66.9198 218.143 66.4095C217.225 65.8991 216.503 65.1701 215.978 64.2223C215.468 63.2745 215.212 62.1663 215.212 60.8977ZM240.703 60.7009C240.703 61.0509 240.682 61.4154 240.638 61.7945H232.173C232.232 62.5527 232.472 63.136 232.895 63.5442C233.333 63.9379 233.865 64.1348 234.492 64.1348C235.425 64.1348 236.074 63.7411 236.438 62.9537H240.419C240.215 63.7557 239.843 64.4774 239.304 65.119C238.779 65.7606 238.115 66.2636 237.313 66.6282C236.511 66.9927 235.615 67.175 234.623 67.175C233.427 67.175 232.363 66.9198 231.43 66.4095C230.497 65.8991 229.767 65.1701 229.243 64.2223C228.718 63.2745 228.455 62.1663 228.455 60.8977C228.455 59.6292 228.71 58.521 229.221 57.5732C229.746 56.6254 230.475 55.8964 231.408 55.386C232.341 54.8757 233.413 54.6205 234.623 54.6205C235.804 54.6205 236.854 54.8684 237.773 55.3642C238.691 55.8599 239.406 56.5671 239.916 57.4857C240.441 58.4044 240.703 59.4761 240.703 60.7009ZM236.876 59.7167C236.876 59.0751 236.657 58.5647 236.22 58.1856C235.782 57.8065 235.235 57.617 234.579 57.617C233.952 57.617 233.42 57.7992 232.983 58.1638C232.56 58.5283 232.297 59.0459 232.195 59.7167H236.876ZM247.641 67.175C246.577 67.175 245.629 66.9927 244.798 66.6282C243.967 66.2636 243.311 65.7679 242.83 65.1409C242.348 64.4993 242.079 63.7848 242.02 62.9974H245.717C245.76 63.4203 245.957 63.763 246.307 64.0254C246.657 64.2879 247.087 64.4191 247.598 64.4191C248.064 64.4191 248.422 64.3316 248.669 64.1567C248.932 63.9671 249.063 63.7265 249.063 63.4349C249.063 63.0849 248.881 62.8298 248.516 62.6694C248.152 62.4944 247.561 62.3048 246.745 62.1007C245.87 61.8966 245.141 61.6851 244.557 61.4664C243.974 61.2331 243.471 60.8759 243.048 60.3947C242.625 59.8989 242.414 59.2355 242.414 58.4044C242.414 57.7045 242.604 57.0702 242.983 56.5015C243.376 55.9183 243.945 55.4589 244.689 55.1236C245.447 54.7882 246.344 54.6205 247.379 54.6205C248.91 54.6205 250.113 54.9996 250.988 55.7579C251.877 56.5161 252.388 57.5222 252.519 58.7762H249.063C249.005 58.3533 248.815 58.018 248.494 57.7701C248.188 57.5222 247.78 57.3982 247.27 57.3982C246.832 57.3982 246.497 57.4857 246.263 57.6607C246.03 57.8211 245.914 58.0471 245.914 58.3387C245.914 58.6887 246.096 58.9512 246.46 59.1261C246.839 59.3011 247.423 59.4761 248.21 59.6511C249.114 59.8844 249.85 60.1177 250.419 60.351C250.988 60.5697 251.484 60.9342 251.906 61.4445C252.344 61.9403 252.57 62.611 252.584 63.4568C252.584 64.1712 252.38 64.8128 251.972 65.3815C251.578 65.9356 251.002 66.373 250.244 66.6938C249.501 67.0146 248.633 67.175 247.641 67.175ZM258.501 71.5712V71.2213C259.96 69.7048 261.09 67.9113 261.892 65.8408C262.694 63.7703 263.095 61.6195 263.095 59.3886C263.095 57.1431 262.679 54.9632 261.848 52.8489C261.017 50.72 259.836 48.8974 258.305 47.3809V47.031H261.979C263.481 48.4016 264.64 50.1805 265.457 52.3677C266.273 54.5403 266.682 56.8806 266.682 59.3886C266.682 61.8674 266.288 64.1785 265.5 66.322C264.713 68.4654 263.612 70.2152 262.198 71.5712H258.501Z" fill="white"/>
</svg>
