<svg width="205" height="46" viewBox="0 0 205 46" fill="none" xmlns="http://www.w3.org/2000/svg">
<rect width="205" height="46" fill="#80BDF2"/>
<path d="M28.688 23.112C28.688 24.04 28.368 24.8133 27.728 25.432C27.0987 26.04 26.1333 26.344 24.832 26.344H22.688V31H21.232V19.848H24.832C26.0907 19.848 27.0453 20.152 27.696 20.76C28.3573 21.368 28.688 22.152 28.688 23.112ZM24.832 25.144C25.6427 25.144 26.24 24.968 26.624 24.616C27.008 24.264 27.2 23.7627 27.2 23.112C27.2 21.736 26.4107 21.048 24.832 21.048H22.688V25.144H24.832ZM29.9536 26.584C29.9536 25.688 30.135 24.904 30.4976 24.232C30.8603 23.5493 31.3563 23.0213 31.9856 22.648C32.6256 22.2747 33.335 22.088 34.1136 22.088C34.8816 22.088 35.5483 22.2533 36.1136 22.584C36.679 22.9147 37.1003 23.3307 37.3776 23.832V22.232H38.8496V31H37.3776V29.368C37.0896 29.88 36.6576 30.3067 36.0816 30.648C35.5163 30.9787 34.855 31.144 34.0976 31.144C33.319 31.144 32.615 30.952 31.9856 30.568C31.3563 30.184 30.8603 29.6453 30.4976 28.952C30.135 28.2587 29.9536 27.4693 29.9536 26.584ZM37.3776 26.6C37.3776 25.9387 37.2443 25.3627 36.9776 24.872C36.711 24.3813 36.3483 24.008 35.8896 23.752C35.4416 23.4853 34.9456 23.352 34.4016 23.352C33.8576 23.352 33.3616 23.48 32.9136 23.736C32.4656 23.992 32.1083 24.3653 31.8416 24.856C31.575 25.3467 31.4416 25.9227 31.4416 26.584C31.4416 27.256 31.575 27.8427 31.8416 28.344C32.1083 28.8347 32.4656 29.2133 32.9136 29.48C33.3616 29.736 33.8576 29.864 34.4016 29.864C34.9456 29.864 35.4416 29.736 35.8896 29.48C36.3483 29.2133 36.711 28.8347 36.9776 28.344C37.2443 27.8427 37.3776 27.2613 37.3776 26.6ZM44.4141 31.144C43.7421 31.144 43.1395 31.032 42.6061 30.808C42.0728 30.5733 41.6515 30.2533 41.3421 29.848C41.0328 29.432 40.8621 28.9573 40.8301 28.424H42.3341C42.3768 28.8613 42.5795 29.2187 42.9421 29.496C43.3155 29.7733 43.8008 29.912 44.3981 29.912C44.9528 29.912 45.3901 29.7893 45.7101 29.544C46.0301 29.2987 46.1901 28.9893 46.1901 28.616C46.1901 28.232 46.0195 27.9493 45.6781 27.768C45.3368 27.576 44.8088 27.3893 44.0941 27.208C43.4435 27.0373 42.9101 26.8667 42.4941 26.696C42.0888 26.5147 41.7368 26.2533 41.4381 25.912C41.1501 25.56 41.0061 25.1013 41.0061 24.536C41.0061 24.088 41.1395 23.6773 41.4061 23.304C41.6728 22.9307 42.0515 22.6373 42.5421 22.424C43.0328 22.2 43.5928 22.088 44.2221 22.088C45.1928 22.088 45.9768 22.3333 46.5741 22.824C47.1715 23.3147 47.4915 23.9867 47.5341 24.84H46.0781C46.0461 24.3813 45.8595 24.0133 45.5181 23.736C45.1875 23.4587 44.7395 23.32 44.1741 23.32C43.6515 23.32 43.2355 23.432 42.9261 23.656C42.6168 23.88 42.4621 24.1733 42.4621 24.536C42.4621 24.824 42.5528 25.064 42.7341 25.256C42.9261 25.4373 43.1608 25.5867 43.4381 25.704C43.7261 25.8107 44.1208 25.9333 44.6221 26.072C45.2515 26.2427 45.7635 26.4133 46.1581 26.584C46.5528 26.744 46.8888 26.9893 47.1661 27.32C47.4541 27.6507 47.6035 28.0827 47.6141 28.616C47.6141 29.096 47.4808 29.528 47.2141 29.912C46.9475 30.296 46.5688 30.6 46.0781 30.824C45.5981 31.0373 45.0435 31.144 44.4141 31.144ZM52.7735 31.144C52.1015 31.144 51.4988 31.032 50.9655 30.808C50.4322 30.5733 50.0108 30.2533 49.7015 29.848C49.3922 29.432 49.2215 28.9573 49.1895 28.424H50.6935C50.7362 28.8613 50.9388 29.2187 51.3015 29.496C51.6748 29.7733 52.1602 29.912 52.7575 29.912C53.3122 29.912 53.7495 29.7893 54.0695 29.544C54.3895 29.2987 54.5495 28.9893 54.5495 28.616C54.5495 28.232 54.3788 27.9493 54.0375 27.768C53.6962 27.576 53.1682 27.3893 52.4535 27.208C51.8028 27.0373 51.2695 26.8667 50.8535 26.696C50.4482 26.5147 50.0962 26.2533 49.7975 25.912C49.5095 25.56 49.3655 25.1013 49.3655 24.536C49.3655 24.088 49.4988 23.6773 49.7655 23.304C50.0322 22.9307 50.4108 22.6373 50.9015 22.424C51.3922 22.2 51.9522 22.088 52.5815 22.088C53.5522 22.088 54.3362 22.3333 54.9335 22.824C55.5308 23.3147 55.8508 23.9867 55.8935 24.84H54.4375C54.4055 24.3813 54.2188 24.0133 53.8775 23.736C53.5468 23.4587 53.0988 23.32 52.5335 23.32C52.0108 23.32 51.5948 23.432 51.2855 23.656C50.9762 23.88 50.8215 24.1733 50.8215 24.536C50.8215 24.824 50.9122 25.064 51.0935 25.256C51.2855 25.4373 51.5202 25.5867 51.7975 25.704C52.0855 25.8107 52.4802 25.9333 52.9815 26.072C53.6108 26.2427 54.1228 26.4133 54.5175 26.584C54.9122 26.744 55.2482 26.9893 55.5255 27.32C55.8135 27.6507 55.9628 28.0827 55.9735 28.616C55.9735 29.096 55.8402 29.528 55.5735 29.912C55.3068 30.296 54.9282 30.6 54.4375 30.824C53.9575 31.0373 53.4028 31.144 52.7735 31.144ZM61.8529 31.144C61.0315 31.144 60.2849 30.9573 59.6129 30.584C58.9515 30.2107 58.4289 29.6827 58.0449 29C57.6715 28.3067 57.4849 27.5067 57.4849 26.6C57.4849 25.704 57.6769 24.9147 58.0609 24.232C58.4555 23.5387 58.9889 23.0107 59.6609 22.648C60.3329 22.2747 61.0849 22.088 61.9169 22.088C62.7489 22.088 63.5009 22.2747 64.1729 22.648C64.8449 23.0107 65.3729 23.5333 65.7569 24.216C66.1515 24.8987 66.3489 25.6933 66.3489 26.6C66.3489 27.5067 66.1462 28.3067 65.7409 29C65.3462 29.6827 64.8075 30.2107 64.1249 30.584C63.4422 30.9573 62.6849 31.144 61.8529 31.144ZM61.8529 29.864C62.3755 29.864 62.8662 29.7413 63.3249 29.496C63.7835 29.2507 64.1515 28.8827 64.4289 28.392C64.7169 27.9013 64.8609 27.304 64.8609 26.6C64.8609 25.896 64.7222 25.2987 64.4449 24.808C64.1675 24.3173 63.8049 23.9547 63.3569 23.72C62.9089 23.4747 62.4235 23.352 61.9009 23.352C61.3675 23.352 60.8769 23.4747 60.4289 23.72C59.9915 23.9547 59.6395 24.3173 59.3729 24.808C59.1062 25.2987 58.9729 25.896 58.9729 26.6C58.9729 27.3147 59.1009 27.9173 59.3569 28.408C59.6235 28.8987 59.9755 29.2667 60.4129 29.512C60.8502 29.7467 61.3302 29.864 61.8529 29.864ZM72.5353 22.072C73.6019 22.072 74.4659 22.3973 75.1273 23.048C75.7886 23.688 76.1193 24.616 76.1193 25.832V31H74.6793V26.04C74.6793 25.1653 74.4606 24.4987 74.0233 24.04C73.5859 23.5707 72.9886 23.336 72.2313 23.336C71.4633 23.336 70.8499 23.576 70.3913 24.056C69.9433 24.536 69.7193 25.2347 69.7193 26.152V31H68.2633V22.232H69.7193V23.48C70.0073 23.032 70.3966 22.6853 70.8873 22.44C71.3886 22.1947 71.9379 22.072 72.5353 22.072ZM81.6016 31.144C80.9296 31.144 80.327 31.032 79.7936 30.808C79.2603 30.5733 78.839 30.2533 78.5296 29.848C78.2203 29.432 78.0496 28.9573 78.0176 28.424H79.5216C79.5643 28.8613 79.767 29.2187 80.1296 29.496C80.503 29.7733 80.9883 29.912 81.5856 29.912C82.1403 29.912 82.5776 29.7893 82.8976 29.544C83.2176 29.2987 83.3776 28.9893 83.3776 28.616C83.3776 28.232 83.207 27.9493 82.8656 27.768C82.5243 27.576 81.9963 27.3893 81.2816 27.208C80.631 27.0373 80.0976 26.8667 79.6816 26.696C79.2763 26.5147 78.9243 26.2533 78.6256 25.912C78.3376 25.56 78.1936 25.1013 78.1936 24.536C78.1936 24.088 78.327 23.6773 78.5936 23.304C78.8603 22.9307 79.239 22.6373 79.7296 22.424C80.2203 22.2 80.7803 22.088 81.4096 22.088C82.3803 22.088 83.1643 22.3333 83.7616 22.824C84.359 23.3147 84.679 23.9867 84.7216 24.84H83.2656C83.2336 24.3813 83.047 24.0133 82.7056 23.736C82.375 23.4587 81.927 23.32 81.3616 23.32C80.839 23.32 80.423 23.432 80.1136 23.656C79.8043 23.88 79.6496 24.1733 79.6496 24.536C79.6496 24.824 79.7403 25.064 79.9216 25.256C80.1136 25.4373 80.3483 25.5867 80.6256 25.704C80.9136 25.8107 81.3083 25.9333 81.8096 26.072C82.439 26.2427 82.951 26.4133 83.3456 26.584C83.7403 26.744 84.0763 26.9893 84.3536 27.32C84.6416 27.6507 84.791 28.0827 84.8016 28.616C84.8016 29.096 84.6683 29.528 84.4016 29.912C84.135 30.296 83.7563 30.6 83.2656 30.824C82.7856 31.0373 82.231 31.144 81.6016 31.144ZM90.5786 26.584C90.5786 25.688 90.76 24.904 91.1226 24.232C91.4853 23.5493 91.9813 23.0213 92.6106 22.648C93.2506 22.2747 93.96 22.088 94.7386 22.088C95.5066 22.088 96.1733 22.2533 96.7386 22.584C97.304 22.9147 97.7253 23.3307 98.0026 23.832V22.232H99.4746V31H98.0026V29.368C97.7146 29.88 97.2826 30.3067 96.7066 30.648C96.1413 30.9787 95.48 31.144 94.7226 31.144C93.944 31.144 93.24 30.952 92.6106 30.568C91.9813 30.184 91.4853 29.6453 91.1226 28.952C90.76 28.2587 90.5786 27.4693 90.5786 26.584ZM98.0026 26.6C98.0026 25.9387 97.8693 25.3627 97.6026 24.872C97.336 24.3813 96.9733 24.008 96.5146 23.752C96.0666 23.4853 95.5706 23.352 95.0266 23.352C94.4826 23.352 93.9866 23.48 93.5386 23.736C93.0906 23.992 92.7333 24.3653 92.4666 24.856C92.2 25.3467 92.0666 25.9227 92.0666 26.584C92.0666 27.256 92.2 27.8427 92.4666 28.344C92.7333 28.8347 93.0906 29.2133 93.5386 29.48C93.9866 29.736 94.4826 29.864 95.0266 29.864C95.5706 29.864 96.0666 29.736 96.5146 29.48C96.9733 29.2133 97.336 28.8347 97.6026 28.344C97.8693 27.8427 98.0026 27.2613 98.0026 26.6ZM96.8666 20.488V21.576L93.4586 19.752V18.488L96.8666 20.488ZM107.657 19.16V31H106.201V19.16H107.657ZM110.362 19.848H111.978L110.442 23.48H109.418L110.362 19.848ZM113.094 26.584C113.094 25.688 113.276 24.904 113.638 24.232C114.001 23.5493 114.497 23.0213 115.126 22.648C115.766 22.2747 116.476 22.088 117.254 22.088C118.022 22.088 118.689 22.2533 119.254 22.584C119.82 22.9147 120.241 23.3307 120.518 23.832V22.232H121.99V31H120.518V29.368C120.23 29.88 119.798 30.3067 119.222 30.648C118.657 30.9787 117.996 31.144 117.238 31.144C116.46 31.144 115.756 30.952 115.126 30.568C114.497 30.184 114.001 29.6453 113.638 28.952C113.276 28.2587 113.094 27.4693 113.094 26.584ZM120.518 26.6C120.518 25.9387 120.385 25.3627 120.118 24.872C119.852 24.3813 119.489 24.008 119.03 23.752C118.582 23.4853 118.086 23.352 117.542 23.352C116.998 23.352 116.502 23.48 116.054 23.736C115.606 23.992 115.249 24.3653 114.982 24.856C114.716 25.3467 114.582 25.9227 114.582 26.584C114.582 27.256 114.716 27.8427 114.982 28.344C115.249 28.8347 115.606 29.2133 116.054 29.48C116.502 29.736 116.998 29.864 117.542 29.864C118.086 29.864 118.582 29.736 119.03 29.48C119.489 29.2133 119.852 28.8347 120.118 28.344C120.385 27.8427 120.518 27.2613 120.518 26.6ZM123.907 26.6C123.907 25.6933 124.088 24.904 124.451 24.232C124.813 23.5493 125.315 23.0213 125.955 22.648C126.605 22.2747 127.347 22.088 128.179 22.088C129.256 22.088 130.141 22.3493 130.835 22.872C131.539 23.3947 132.003 24.12 132.227 25.048H130.659C130.509 24.5147 130.216 24.0933 129.779 23.784C129.352 23.4747 128.819 23.32 128.179 23.32C127.347 23.32 126.675 23.608 126.163 24.184C125.651 24.7493 125.395 25.5547 125.395 26.6C125.395 27.656 125.651 28.472 126.163 29.048C126.675 29.624 127.347 29.912 128.179 29.912C128.819 29.912 129.352 29.7627 129.779 29.464C130.205 29.1653 130.499 28.7387 130.659 28.184H132.227C131.992 29.08 131.523 29.8 130.819 30.344C130.115 30.8773 129.235 31.144 128.179 31.144C127.347 31.144 126.605 30.9573 125.955 30.584C125.315 30.2107 124.813 29.6827 124.451 29C124.088 28.3173 123.907 27.5173 123.907 26.6ZM135.946 23.432V28.6C135.946 29.0267 136.036 29.3307 136.218 29.512C136.399 29.6827 136.714 29.768 137.161 29.768H138.234V31H136.922C136.111 31 135.503 30.8133 135.098 30.44C134.692 30.0667 134.49 29.4533 134.49 28.6V23.432H133.354V22.232H134.49V20.024H135.946V22.232H138.234V23.432H135.946ZM140.75 20.808C140.472 20.808 140.238 20.712 140.046 20.52C139.854 20.328 139.758 20.0933 139.758 19.816C139.758 19.5387 139.854 19.304 140.046 19.112C140.238 18.92 140.472 18.824 140.75 18.824C141.016 18.824 141.24 18.92 141.422 19.112C141.614 19.304 141.71 19.5387 141.71 19.816C141.71 20.0933 141.614 20.328 141.422 20.52C141.24 20.712 141.016 20.808 140.75 20.808ZM141.454 22.232V31H139.998V22.232H141.454ZM147.759 31.144C146.938 31.144 146.191 30.9573 145.519 30.584C144.858 30.2107 144.335 29.6827 143.951 29C143.578 28.3067 143.391 27.5067 143.391 26.6C143.391 25.704 143.583 24.9147 143.967 24.232C144.362 23.5387 144.895 23.0107 145.567 22.648C146.239 22.2747 146.991 22.088 147.823 22.088C148.655 22.088 149.407 22.2747 150.079 22.648C150.751 23.0107 151.279 23.5333 151.663 24.216C152.058 24.8987 152.255 25.6933 152.255 26.6C152.255 27.5067 152.052 28.3067 151.647 29C151.252 29.6827 150.714 30.2107 150.031 30.584C149.348 30.9573 148.591 31.144 147.759 31.144ZM147.759 29.864C148.282 29.864 148.772 29.7413 149.231 29.496C149.69 29.2507 150.058 28.8827 150.335 28.392C150.623 27.9013 150.767 27.304 150.767 26.6C150.767 25.896 150.628 25.2987 150.351 24.808C150.074 24.3173 149.711 23.9547 149.263 23.72C148.815 23.4747 148.33 23.352 147.807 23.352C147.274 23.352 146.783 23.4747 146.335 23.72C145.898 23.9547 145.546 24.3173 145.279 24.808C145.012 25.2987 144.879 25.896 144.879 26.6C144.879 27.3147 145.007 27.9173 145.263 28.408C145.53 28.8987 145.882 29.2667 146.319 29.512C146.756 29.7467 147.236 29.864 147.759 29.864ZM158.442 22.072C159.508 22.072 160.372 22.3973 161.034 23.048C161.695 23.688 162.026 24.616 162.026 25.832V31H160.586V26.04C160.586 25.1653 160.367 24.4987 159.93 24.04C159.492 23.5707 158.895 23.336 158.138 23.336C157.37 23.336 156.756 23.576 156.298 24.056C155.85 24.536 155.626 25.2347 155.626 26.152V31H154.17V22.232H155.626V23.48C155.914 23.032 156.303 22.6853 156.794 22.44C157.295 22.1947 157.844 22.072 158.442 22.072Z" fill="white"/>
<path d="M179.705 19.0012C179.921 18.9841 180.11 19.1502 180.127 19.3727L180.399 23.0056C180.415 23.2281 180.253 23.4216 180.036 23.4387C179.82 23.4556 179.631 23.2898 179.614 23.0672L179.414 20.4098L170.596 31L170 30.472L178.818 19.8818L176.236 20.0873C176.02 20.104 175.832 19.9368 175.815 19.7142C175.799 19.4916 175.96 19.2967 176.176 19.2794L179.705 19.0012Z" fill="white"/>
</svg>
