<svg width="70" height="70" viewBox="0 0 70 70" fill="none" xmlns="http://www.w3.org/2000/svg">
<path d="M34.9999 8.75C18.9168 8.75 5.83325 21.8336 5.83325 37.9167C5.83325 45.113 8.48071 52.0199 13.2888 57.3665C14.3668 58.564 16.2099 58.6652 17.4075 57.5858C18.605 56.5092 18.7033 54.6647 17.6268 53.4672C14.4392 49.9225 12.4617 45.5149 11.8719 40.8333H14.5833C16.1938 40.8333 17.4999 39.5272 17.4999 37.9167C17.4999 36.3061 16.1938 35 14.5833 35H11.8693C12.403 30.749 14.0822 26.8578 16.5911 23.632L18.3545 25.3954C18.9241 25.965 19.6702 26.25 20.4166 26.25C21.163 26.25 21.909 25.965 22.4787 25.3954C23.6179 24.2562 23.6179 22.4105 22.4787 21.271L20.7153 19.5078C23.9411 16.9989 27.8322 15.3195 32.0833 14.786V17.5C32.0833 19.1106 33.3893 20.4167 34.9999 20.4167C36.6105 20.4167 37.9166 19.1106 37.9166 17.5V14.786C42.1676 15.3198 46.0588 16.9989 49.2846 19.5078L47.5212 21.2712C46.3819 22.4105 46.3819 24.2562 47.5212 25.3957C48.0908 25.965 48.8369 26.25 49.5832 26.25C50.3296 26.25 51.0757 25.965 51.6453 25.3954L53.4087 23.632C55.9177 26.8578 57.5968 30.749 58.1305 35H55.4166C53.806 35 52.4999 36.3061 52.4999 37.9167C52.4999 39.5272 53.806 40.8333 55.4166 40.8333H58.1279C57.5382 45.5149 55.5607 49.9225 52.373 53.4669C51.2965 54.6645 51.3948 56.509 52.5924 57.5855C53.1495 58.0869 53.8457 58.3333 54.5407 58.3333C55.3396 58.3333 56.1344 58.0073 56.711 57.3665C61.5191 52.0199 64.1666 45.113 64.1666 37.9167C64.1666 21.8336 51.083 8.75 34.9999 8.75Z" fill="#5B5A5F"/>
<path d="M45.8119 30.0214C44.6727 28.8822 42.827 28.8822 41.6875 30.0214L36.4917 35.2172C36.0131 35.0897 35.519 35.0002 34.9998 35.0002C31.7781 35.0002 29.1665 37.6118 29.1665 40.8335C29.1665 44.0553 31.7781 46.6668 34.9998 46.6668C38.2216 46.6668 40.8332 44.0553 40.8332 40.8335C40.8332 40.3143 40.7436 39.8203 40.6165 39.3413L45.8122 34.1456C46.9515 33.0063 46.9515 31.1607 45.8119 30.0214Z" fill="#5B5A5F"/>
</svg>
