<svg width="10" height="10" viewBox="0 0 10 10" fill="none" xmlns="http://www.w3.org/2000/svg">
<g clip-path="url(#clip0_41_45)">
<path d="M4.13 2.5198C4.01063 1.14667 2.57813 0.472921 2.5175 0.445421C2.46083 0.41878 2.39732 0.410268 2.33563 0.421046C0.68188 0.695421 0.43313 1.65792 0.42313 1.69792C0.409525 1.75366 0.411688 1.81209 0.42938 1.86667C2.40188 7.98667 6.50125 9.12105 7.84875 9.49417C7.9525 9.52292 8.03813 9.54605 8.10313 9.5673C8.1773 9.59153 8.25789 9.58684 8.32875 9.55417C8.37001 9.53542 9.34375 9.07667 9.58188 7.58042C9.59244 7.5151 9.58193 7.44812 9.55188 7.38917C9.53063 7.34792 9.02125 6.37855 7.60875 6.03605C7.56084 6.02379 7.51066 6.02336 7.46254 6.03479C7.41442 6.04622 7.36979 6.06917 7.33251 6.10167C6.88688 6.4823 6.27126 6.88792 6.00563 6.9298C4.22501 6.05917 3.23063 4.38855 3.19313 4.07167C3.17126 3.89355 3.57938 3.26792 4.04875 2.75917C4.07826 2.72715 4.10073 2.68931 4.11472 2.64808C4.12871 2.60686 4.13392 2.56316 4.13 2.5198Z" fill="#80BDF2"/>
</g>
<defs>
<clipPath id="clip0_41_45">
<rect width="10" height="10" fill="white"/>
</clipPath>
</defs>
</svg>
