<svg width="39" height="39" viewBox="0 0 39 39" fill="none" xmlns="http://www.w3.org/2000/svg">
<path d="M28.5797 25.5084C28.24 25.1676 27.8364 24.8971 27.3919 24.7126C26.9475 24.528 26.471 24.4331 25.9898 24.4331C25.5086 24.4331 25.0321 24.528 24.5877 24.7126C24.1433 24.8971 23.7397 25.1676 23.4 25.5084L21.6328 27.2756C19.6431 26.0128 17.7996 24.5331 16.1362 22.8637C14.4668 21.2004 12.9872 19.3569 11.7244 17.3672L13.4915 15.6C13.8324 15.2603 14.1029 14.8567 14.2874 14.4123C14.4719 13.9678 14.5669 13.4914 14.5669 13.0102C14.5669 12.5289 14.4719 12.0525 14.2874 11.608C14.1029 11.1636 13.8324 10.76 13.4915 10.4203L10.0425 6.98344C9.7076 6.64145 9.30739 6.37027 8.86562 6.18603C8.42386 6.00179 7.94956 5.90823 7.47092 5.91094C6.98888 5.90975 6.51137 6.0039 6.06586 6.18797C5.62034 6.37203 5.21562 6.64237 4.87498 6.98344L3.21748 8.62875C2.42746 9.47818 1.83782 10.4939 1.49194 11.6011C1.14605 12.7084 1.05269 13.8791 1.21873 15.0272C1.60873 19.5975 4.60686 25.0941 9.22592 29.7253C13.845 34.3566 19.4025 37.3425 23.9728 37.7812C24.3138 37.7995 24.6555 37.7995 24.9965 37.7812C25.9804 37.8226 26.9625 37.667 27.8854 37.3238C28.8084 36.9806 29.6535 36.4566 30.3712 35.7825L32.0165 34.125C32.3576 33.7844 32.628 33.3796 32.812 32.9341C32.9961 32.4886 33.0902 32.0111 33.089 31.5291C33.0917 31.0504 32.9982 30.5761 32.814 30.1344C32.6297 29.6926 32.3585 29.2924 32.0165 28.9575L28.5797 25.5084ZM32.4187 6.56906C30.725 4.86887 28.7114 3.52077 26.4942 2.6025C24.2769 1.68422 21.8999 1.21393 19.5 1.21875C19.1768 1.21875 18.8668 1.34715 18.6382 1.57571C18.4096 1.80427 18.2812 2.11427 18.2812 2.4375C18.2812 2.76073 18.4096 3.07072 18.6382 3.29928C18.8668 3.52784 19.1768 3.65625 19.5 3.65625C21.5919 3.65617 23.6632 4.07038 25.5942 4.87498C27.5253 5.67957 29.2779 6.85862 30.7509 8.34407C32.2239 9.82953 33.3881 11.592 34.1764 13.5297C34.9647 15.4675 35.3614 17.5422 35.3437 19.6341C35.3437 19.9573 35.4721 20.2673 35.7007 20.4958C35.9293 20.7244 36.2393 20.8528 36.5625 20.8528C36.8857 20.8528 37.1957 20.7244 37.4243 20.4958C37.6528 20.2673 37.7812 19.9573 37.7812 19.6341C37.8046 17.2087 37.3421 14.8031 36.4211 12.5593C35.5002 10.3154 34.1393 8.27868 32.4187 6.56906Z" fill="#80BDF2"/>
<path d="M25.484 13.5403C26.1757 14.2278 26.7229 15.0467 27.0933 15.9488C27.4638 16.8509 27.6501 17.818 27.6412 18.7931C27.6412 19.1164 27.7696 19.4264 27.9982 19.6549C28.2268 19.8835 28.5368 20.0119 28.86 20.0119C29.1832 20.0119 29.4932 19.8835 29.7218 19.6549C29.9503 19.4264 30.0787 19.1164 30.0787 18.7931C30.0949 17.5025 29.8546 16.2216 29.3718 15.0245C28.8891 13.8275 28.1735 12.7382 27.2665 11.8199C26.3595 10.9016 25.2792 10.1725 24.0883 9.67491C22.8973 9.17732 21.6194 8.92115 20.3287 8.92125C20.0055 8.92125 19.6955 9.04965 19.4669 9.27821C19.2384 9.50677 19.11 9.81677 19.11 10.14C19.11 10.4632 19.2384 10.7732 19.4669 11.0018C19.6955 11.2303 20.0055 11.3587 20.3287 11.3587C21.2892 11.366 22.2388 11.5624 23.1234 11.9367C24.008 12.311 24.8101 12.8559 25.484 13.5403Z" fill="#80BDF2"/>
</svg>
