<svg width="27" height="20" viewBox="0 0 27 20" fill="none" xmlns="http://www.w3.org/2000/svg">
<path d="M0.471557 9.46454C0.4716 4.22704 4.81 0 10.1381 0C14.0842 7.28695e-06 17.4868 2.31893 18.9867 5.64946C19.2634 5.56312 19.5184 5.51266 19.7506 5.47835C20.041 5.43542 20.3377 5.41324 20.6389 5.41324C24.0693 5.41331 26.8081 8.26597 26.8082 11.7324C26.8082 12.7465 26.5742 13.7074 26.1575 14.5595L26.1577 14.5598C26.1504 14.5748 26.1477 14.5871 26.1471 14.5945C26.1466 14.6014 26.1477 14.6026 26.1468 14.6001L26.9303 16.7647C27.2495 17.6468 26.4197 18.5131 25.5168 18.2405L23.1341 17.521C23.1367 17.5217 23.1354 17.5207 23.1288 17.5212C23.1253 17.5215 23.1207 17.5223 23.1151 17.5237L23.0955 17.5307C22.3423 17.8659 21.511 18.0518 20.6389 18.0518C19.535 18.0518 18.4976 17.7543 17.6013 17.2341C17.2441 17.0268 16.9097 16.7843 16.6021 16.5115L16.6452 16.4634C14.9262 17.996 12.6414 18.9294 10.1381 18.9294C8.70289 18.9294 7.3386 18.6226 6.11171 18.0716C6.09982 18.0662 6.09234 18.0659 6.08986 18.066L1.46821 19.3935C0.560277 19.6542 -0.2579 18.7736 0.0763118 17.8955L1.59399 13.9079C1.5934 13.9094 1.59407 13.9086 1.59371 13.904C1.59329 13.8988 1.59131 13.8901 1.58586 13.8801C0.874372 12.5614 0.471557 11.0581 0.471557 9.46454ZM6.75346 7.79767C6.75354 6.39333 8.26583 5.50007 9.50813 6.17058L13.2721 8.20222C14.571 8.90336 14.571 10.7552 13.2721 11.4564L9.50813 13.488C8.26583 14.1585 6.75354 13.2653 6.75346 11.8609V7.79767ZM1.90576 9.46454C1.90576 10.8169 2.24708 12.0899 2.85003 13.2073C3.04312 13.5652 3.09065 14.0037 2.93547 14.4115L1.62032 17.8665L5.69126 16.6974C6.03723 16.598 6.39543 16.6355 6.70248 16.7734C7.74694 17.2425 8.91018 17.5048 10.1381 17.5048C14.6952 17.5048 18.3705 13.8946 18.3705 9.46454C18.3704 5.03454 14.6952 1.42455 10.1381 1.42454C5.58104 1.42454 1.9058 5.03453 1.90576 9.46454ZM19.8047 9.46454C19.8047 11.7536 18.9757 13.8495 17.5979 15.484C17.8237 15.6799 18.0669 15.8543 18.3248 16.0041C19.0094 16.4013 19.7981 16.6273 20.6389 16.6273C21.3039 16.6273 21.9357 16.4859 22.5089 16.2308C22.818 16.0932 23.1881 16.0483 23.5512 16.1579L25.3871 16.7124L24.7972 15.0823C24.6545 14.688 24.7023 14.2753 24.8675 13.9374L24.9266 13.8122C25.2131 13.1823 25.374 12.4779 25.374 11.7324C25.3739 9.00567 23.2306 6.83785 20.6389 6.83778C20.4086 6.83778 20.1825 6.85467 19.9618 6.8873C19.8068 6.91021 19.644 6.94132 19.4708 6.99192C19.6879 7.77985 19.8047 8.60859 19.8047 9.46454ZM8.18766 11.8609C8.18773 12.185 8.53658 12.391 8.82325 12.2363L12.5872 10.2049C12.887 10.0431 12.887 9.61549 12.5872 9.45369L8.82325 7.42234C8.53658 7.26762 8.18773 7.47365 8.18766 7.79767V11.8609Z" fill="#969696"/>
</svg>
