<svg width="64" height="64" viewBox="0 0 64 64" fill="none" xmlns="http://www.w3.org/2000/svg">
<path d="M26 6C14.972 6 6 14.972 6 26C6 37.028 14.972 46 26 46C37.028 46 46 37.028 46 26C46 14.972 37.028 6 26 6ZM15.78 40.8C15.81 36.591 16.816 31.3 21.222 29.071C22.516 29.971 24.085 30.503 25.777 30.503C27.469 30.503 29.038 29.971 30.332 29.071C34.807 31.335 35.777 36.761 35.777 41C35.777 41.029 35.791 41.053 35.793 41.082C32.972 42.92 29.612 44 26 44C22.205 44 18.686 42.813 15.78 40.8ZM31.777 22.503C31.777 25.812 29.086 28.503 25.777 28.503C22.468 28.503 19.777 25.812 19.777 22.503V19.001C19.777 15.692 22.468 13.001 25.777 13.001C29.086 13.001 31.777 15.692 31.777 19.001V22.503ZM37.742 39.613C37.459 33.94 35.416 29.777 31.894 27.649C33.067 26.257 33.778 24.462 33.778 22.503V19.001C33.778 14.59 30.189 11.001 25.778 11.001C21.367 11.001 17.778 14.59 17.778 19.001V22.503C17.778 24.462 18.488 26.256 19.662 27.649C16.22 29.729 14.195 33.756 13.841 39.233C10.26 35.941 8 31.235 8 26C8 16.075 16.075 8 26 8C35.925 8 44 16.075 44 26C44 31.438 41.566 36.31 37.742 39.613ZM57.013 55.361L44.589 41.16C47.969 37.024 50 31.745 50 26C50 12.767 39.233 2 26 2C12.767 2 2 12.767 2 26C2 39.233 12.767 50 26 50C30.602 50 34.904 48.696 38.56 46.441L50.99 60.642C51.75 61.505 52.848 62 54 62C54.976 62 55.913 61.649 56.641 61.011C58.294 59.557 58.461 57.022 57.013 55.361ZM4 26C4 13.869 13.869 4 26 4C38.131 4 48 13.869 48 26C48 38.131 38.131 48 26 48C13.869 48 4 38.131 4 26ZM55.321 59.508C54.532 60.199 53.191 60.116 52.493 59.322L40.23 45.312C41.309 44.515 42.317 43.627 43.248 42.664L55.506 56.677C56.232 57.51 56.148 58.78 55.321 59.508Z" fill="white"/>
</svg>
