<svg width="30" height="30" viewBox="0 0 30 30" fill="none" xmlns="http://www.w3.org/2000/svg">
<path d="M15 27C12.6266 27 10.3066 26.2962 8.33316 24.9776C6.35977 23.6591 4.8217 21.7849 3.91345 19.5922C3.0052 17.3995 2.76756 14.9867 3.23058 12.6589C3.6936 10.3312 4.83649 8.19295 6.51472 6.51472C8.19295 4.83649 10.3312 3.6936 12.6589 3.23058C14.9867 2.76756 17.3995 3.0052 19.5922 3.91345C21.7849 4.8217 23.6591 6.35977 24.9776 8.33316C26.2962 10.3066 27 12.6266 27 15C27 18.1826 25.7357 21.2348 23.4853 23.4853C21.2348 25.7357 18.1826 27 15 27ZM15 5.00001C13.0222 5.00001 11.0888 5.58649 9.4443 6.68531C7.79981 7.78412 6.51809 9.34591 5.76121 11.1732C5.00433 13.0004 4.8063 15.0111 5.19215 16.9509C5.578 18.8907 6.53041 20.6725 7.92894 22.0711C9.32746 23.4696 11.1093 24.422 13.0491 24.8079C14.9889 25.1937 16.9996 24.9957 18.8268 24.2388C20.6541 23.4819 22.2159 22.2002 23.3147 20.5557C24.4135 18.9112 25 16.9778 25 15C25 12.3478 23.9464 9.8043 22.0711 7.92894C20.1957 6.05357 17.6522 5.00001 15 5.00001Z" fill="#969696"/>
<path d="M20 20.5C19.7522 20.4994 19.5134 20.4067 19.33 20.24L14.33 15.74C14.2264 15.6465 14.1435 15.5324 14.0867 15.4049C14.0299 15.2775 14.0003 15.1395 14 15V10C14 9.73478 14.1054 9.48043 14.2929 9.29289C14.4804 9.10536 14.7348 9 15 9C15.2652 9 15.5196 9.10536 15.7071 9.29289C15.8946 9.48043 16 9.73478 16 10V14.55L20.67 18.75C20.8229 18.8848 20.9309 19.0632 20.9796 19.2611C21.0283 19.4591 21.0154 19.6672 20.9425 19.8576C20.8696 20.048 20.7403 20.2115 20.5718 20.3263C20.4034 20.4412 20.2039 20.5018 20 20.5Z" fill="#969696"/>
</svg>
