<svg width="66" height="66" viewBox="0 0 66 66" fill="none" xmlns="http://www.w3.org/2000/svg">
<path d="M33 24.75C33 24.0207 33.2897 23.3212 33.8055 22.8055C34.3212 22.2897 35.0207 22 35.75 22C36.4793 22 37.1788 22.2897 37.6945 22.8055C38.2103 23.3212 38.5 24.0207 38.5 24.75V35.75C38.5 36.4793 38.2103 37.1788 37.6945 37.6945C37.1788 38.2103 36.4793 38.5 35.75 38.5H24.75C24.0207 38.5 23.3212 38.2103 22.8055 37.6945C22.2897 37.1788 22 36.4793 22 35.75C22 35.0207 22.2897 34.3212 22.8055 33.8055C23.3212 33.2897 24.0207 33 24.75 33H33V24.75Z" fill="#80BDF2"/>
<path fill-rule="evenodd" clip-rule="evenodd" d="M60.5 33C60.5 48.1882 48.1882 60.5 33 60.5C17.8118 60.5 5.5 48.1882 5.5 33C5.5 17.8118 17.8118 5.5 33 5.5C48.1882 5.5 60.5 17.8118 60.5 33ZM55 33C55 38.8348 52.6822 44.4305 48.5564 48.5564C44.4305 52.6822 38.8348 55 33 55C27.1652 55 21.5695 52.6822 17.4437 48.5564C13.3179 44.4305 11 38.8348 11 33C11 27.1652 13.3179 21.5695 17.4437 17.4437C21.5695 13.3179 27.1652 11 33 11C38.8348 11 44.4305 13.3179 48.5564 17.4437C52.6822 21.5695 55 27.1652 55 33Z" fill="#80BDF2"/>
</svg>
